<?xml version="1.0" encoding="utf-8" standalone="no"?>
<!DOCTYPE svg PUBLIC "-//W3C//DTD SVG 1.1//EN"
  "http://www.w3.org/Graphics/SVG/1.1/DTD/svg11.dtd">
<svg xmlns:xlink="http://www.w3.org/1999/xlink" width="1152pt" height="432pt" viewBox="0 0 1152 432" xmlns="http://www.w3.org/2000/svg" version="1.1">
 <metadata>
  <rdf:RDF xmlns:dc="http://purl.org/dc/elements/1.1/" xmlns:cc="http://creativecommons.org/ns#" xmlns:rdf="http://www.w3.org/1999/02/22-rdf-syntax-ns#">
   <cc:Work>
    <dc:type rdf:resource="http://purl.org/dc/dcmitype/StillImage"/>
    <dc:date>2024-07-15T12:08:56.116029</dc:date>
    <dc:format>image/svg+xml</dc:format>
    <dc:creator>
     <cc:Agent>
      <dc:title>Matplotlib v3.8.4, https://matplotlib.org/</dc:title>
     </cc:Agent>
    </dc:creator>
   </cc:Work>
  </rdf:RDF>
 </metadata>
 <defs>
  <style type="text/css">*{stroke-linejoin: round; stroke-linecap: butt}</style>
 </defs>
 <g id="figure_1">
  <g id="patch_1">
   <path d="M 0 432 
L 1152 432 
L 1152 0 
L 0 0 
z
" style="fill: #ffffff"/>
  </g>
  <g id="axes_1">
   <g id="patch_2">
    <path d="M 144 384.48 
L 1036.8 384.48 
L 1036.8 51.84 
L 144 51.84 
z
" style="fill: #ffffff"/>
   </g>
   <g id="matplotlib.axis_1">
    <g id="xtick_1">
     <g id="line2d_1">
      <defs>
       <path id="mce853db40b" d="M 0 0 
L 0 3.5 
" style="stroke: #000000; stroke-width: 0.8"/>
      </defs>
      <g>
       <use xlink:href="#mce853db40b" x="184.581818" y="384.48" style="stroke: #000000; stroke-width: 0.8"/>
      </g>
     </g>
     <g id="text_1">
      <!-- 0.0 -->
      <g transform="translate(176.630256 399.078438) scale(0.1 -0.1)">
       <defs>
        <path id="DejaVuSans-30" d="M 2034 4250 
Q 1547 4250 1301 3770 
Q 1056 3291 1056 2328 
Q 1056 1369 1301 889 
Q 1547 409 2034 409 
Q 2525 409 2770 889 
Q 3016 1369 3016 2328 
Q 3016 3291 2770 3770 
Q 2525 4250 2034 4250 
z
M 2034 4750 
Q 2819 4750 3233 4129 
Q 3647 3509 3647 2328 
Q 3647 1150 3233 529 
Q 2819 -91 2034 -91 
Q 1250 -91 836 529 
Q 422 1150 422 2328 
Q 422 3509 836 4129 
Q 1250 4750 2034 4750 
z
" transform="scale(0.015625)"/>
        <path id="DejaVuSans-2e" d="M 684 794 
L 1344 794 
L 1344 0 
L 684 0 
L 684 794 
z
" transform="scale(0.015625)"/>
       </defs>
       <use xlink:href="#DejaVuSans-30"/>
       <use xlink:href="#DejaVuSans-2e" x="63.623047"/>
       <use xlink:href="#DejaVuSans-30" x="95.410156"/>
      </g>
     </g>
    </g>
    <g id="xtick_2">
     <g id="line2d_2">
      <g>
       <use xlink:href="#mce853db40b" x="335.962172" y="384.48" style="stroke: #000000; stroke-width: 0.8"/>
      </g>
     </g>
     <g id="text_2">
      <!-- 0.2 -->
      <g transform="translate(328.01061 399.078438) scale(0.1 -0.1)">
       <defs>
        <path id="DejaVuSans-32" d="M 1228 531 
L 3431 531 
L 3431 0 
L 469 0 
L 469 531 
Q 828 903 1448 1529 
Q 2069 2156 2228 2338 
Q 2531 2678 2651 2914 
Q 2772 3150 2772 3378 
Q 2772 3750 2511 3984 
Q 2250 4219 1831 4219 
Q 1534 4219 1204 4116 
Q 875 4013 500 3803 
L 500 4441 
Q 881 4594 1212 4672 
Q 1544 4750 1819 4750 
Q 2544 4750 2975 4387 
Q 3406 4025 3406 3419 
Q 3406 3131 3298 2873 
Q 3191 2616 2906 2266 
Q 2828 2175 2409 1742 
Q 1991 1309 1228 531 
z
" transform="scale(0.015625)"/>
       </defs>
       <use xlink:href="#DejaVuSans-30"/>
       <use xlink:href="#DejaVuSans-2e" x="63.623047"/>
       <use xlink:href="#DejaVuSans-32" x="95.410156"/>
      </g>
     </g>
    </g>
    <g id="xtick_3">
     <g id="line2d_3">
      <g>
       <use xlink:href="#mce853db40b" x="487.342526" y="384.48" style="stroke: #000000; stroke-width: 0.8"/>
      </g>
     </g>
     <g id="text_3">
      <!-- 0.4 -->
      <g transform="translate(479.390963 399.078438) scale(0.1 -0.1)">
       <defs>
        <path id="DejaVuSans-34" d="M 2419 4116 
L 825 1625 
L 2419 1625 
L 2419 4116 
z
M 2253 4666 
L 3047 4666 
L 3047 1625 
L 3713 1625 
L 3713 1100 
L 3047 1100 
L 3047 0 
L 2419 0 
L 2419 1100 
L 313 1100 
L 313 1709 
L 2253 4666 
z
" transform="scale(0.015625)"/>
       </defs>
       <use xlink:href="#DejaVuSans-30"/>
       <use xlink:href="#DejaVuSans-2e" x="63.623047"/>
       <use xlink:href="#DejaVuSans-34" x="95.410156"/>
      </g>
     </g>
    </g>
    <g id="xtick_4">
     <g id="line2d_4">
      <g>
       <use xlink:href="#mce853db40b" x="638.72288" y="384.48" style="stroke: #000000; stroke-width: 0.8"/>
      </g>
     </g>
     <g id="text_4">
      <!-- 0.6 -->
      <g transform="translate(630.771317 399.078438) scale(0.1 -0.1)">
       <defs>
        <path id="DejaVuSans-36" d="M 2113 2584 
Q 1688 2584 1439 2293 
Q 1191 2003 1191 1497 
Q 1191 994 1439 701 
Q 1688 409 2113 409 
Q 2538 409 2786 701 
Q 3034 994 3034 1497 
Q 3034 2003 2786 2293 
Q 2538 2584 2113 2584 
z
M 3366 4563 
L 3366 3988 
Q 3128 4100 2886 4159 
Q 2644 4219 2406 4219 
Q 1781 4219 1451 3797 
Q 1122 3375 1075 2522 
Q 1259 2794 1537 2939 
Q 1816 3084 2150 3084 
Q 2853 3084 3261 2657 
Q 3669 2231 3669 1497 
Q 3669 778 3244 343 
Q 2819 -91 2113 -91 
Q 1303 -91 875 529 
Q 447 1150 447 2328 
Q 447 3434 972 4092 
Q 1497 4750 2381 4750 
Q 2619 4750 2861 4703 
Q 3103 4656 3366 4563 
z
" transform="scale(0.015625)"/>
       </defs>
       <use xlink:href="#DejaVuSans-30"/>
       <use xlink:href="#DejaVuSans-2e" x="63.623047"/>
       <use xlink:href="#DejaVuSans-36" x="95.410156"/>
      </g>
     </g>
    </g>
    <g id="xtick_5">
     <g id="line2d_5">
      <g>
       <use xlink:href="#mce853db40b" x="790.103233" y="384.48" style="stroke: #000000; stroke-width: 0.8"/>
      </g>
     </g>
     <g id="text_5">
      <!-- 0.8 -->
      <g transform="translate(782.151671 399.078438) scale(0.1 -0.1)">
       <defs>
        <path id="DejaVuSans-38" d="M 2034 2216 
Q 1584 2216 1326 1975 
Q 1069 1734 1069 1313 
Q 1069 891 1326 650 
Q 1584 409 2034 409 
Q 2484 409 2743 651 
Q 3003 894 3003 1313 
Q 3003 1734 2745 1975 
Q 2488 2216 2034 2216 
z
M 1403 2484 
Q 997 2584 770 2862 
Q 544 3141 544 3541 
Q 544 4100 942 4425 
Q 1341 4750 2034 4750 
Q 2731 4750 3128 4425 
Q 3525 4100 3525 3541 
Q 3525 3141 3298 2862 
Q 3072 2584 2669 2484 
Q 3125 2378 3379 2068 
Q 3634 1759 3634 1313 
Q 3634 634 3220 271 
Q 2806 -91 2034 -91 
Q 1263 -91 848 271 
Q 434 634 434 1313 
Q 434 1759 690 2068 
Q 947 2378 1403 2484 
z
M 1172 3481 
Q 1172 3119 1398 2916 
Q 1625 2713 2034 2713 
Q 2441 2713 2670 2916 
Q 2900 3119 2900 3481 
Q 2900 3844 2670 4047 
Q 2441 4250 2034 4250 
Q 1625 4250 1398 4047 
Q 1172 3844 1172 3481 
z
" transform="scale(0.015625)"/>
       </defs>
       <use xlink:href="#DejaVuSans-30"/>
       <use xlink:href="#DejaVuSans-2e" x="63.623047"/>
       <use xlink:href="#DejaVuSans-38" x="95.410156"/>
      </g>
     </g>
    </g>
    <g id="xtick_6">
     <g id="line2d_6">
      <g>
       <use xlink:href="#mce853db40b" x="941.483587" y="384.48" style="stroke: #000000; stroke-width: 0.8"/>
      </g>
     </g>
     <g id="text_6">
      <!-- 1.0 -->
      <g transform="translate(933.532025 399.078438) scale(0.1 -0.1)">
       <defs>
        <path id="DejaVuSans-31" d="M 794 531 
L 1825 531 
L 1825 4091 
L 703 3866 
L 703 4441 
L 1819 4666 
L 2450 4666 
L 2450 531 
L 3481 531 
L 3481 0 
L 794 0 
L 794 531 
z
" transform="scale(0.015625)"/>
       </defs>
       <use xlink:href="#DejaVuSans-31"/>
       <use xlink:href="#DejaVuSans-2e" x="63.623047"/>
       <use xlink:href="#DejaVuSans-30" x="95.410156"/>
      </g>
     </g>
    </g>
    <g id="text_7">
     <!-- Position -->
     <g transform="translate(570.935938 412.756563) scale(0.1 -0.1)">
      <defs>
       <path id="DejaVuSans-50" d="M 1259 4147 
L 1259 2394 
L 2053 2394 
Q 2494 2394 2734 2622 
Q 2975 2850 2975 3272 
Q 2975 3691 2734 3919 
Q 2494 4147 2053 4147 
L 1259 4147 
z
M 628 4666 
L 2053 4666 
Q 2838 4666 3239 4311 
Q 3641 3956 3641 3272 
Q 3641 2581 3239 2228 
Q 2838 1875 2053 1875 
L 1259 1875 
L 1259 0 
L 628 0 
L 628 4666 
z
" transform="scale(0.015625)"/>
       <path id="DejaVuSans-6f" d="M 1959 3097 
Q 1497 3097 1228 2736 
Q 959 2375 959 1747 
Q 959 1119 1226 758 
Q 1494 397 1959 397 
Q 2419 397 2687 759 
Q 2956 1122 2956 1747 
Q 2956 2369 2687 2733 
Q 2419 3097 1959 3097 
z
M 1959 3584 
Q 2709 3584 3137 3096 
Q 3566 2609 3566 1747 
Q 3566 888 3137 398 
Q 2709 -91 1959 -91 
Q 1206 -91 779 398 
Q 353 888 353 1747 
Q 353 2609 779 3096 
Q 1206 3584 1959 3584 
z
" transform="scale(0.015625)"/>
       <path id="DejaVuSans-73" d="M 2834 3397 
L 2834 2853 
Q 2591 2978 2328 3040 
Q 2066 3103 1784 3103 
Q 1356 3103 1142 2972 
Q 928 2841 928 2578 
Q 928 2378 1081 2264 
Q 1234 2150 1697 2047 
L 1894 2003 
Q 2506 1872 2764 1633 
Q 3022 1394 3022 966 
Q 3022 478 2636 193 
Q 2250 -91 1575 -91 
Q 1294 -91 989 -36 
Q 684 19 347 128 
L 347 722 
Q 666 556 975 473 
Q 1284 391 1588 391 
Q 1994 391 2212 530 
Q 2431 669 2431 922 
Q 2431 1156 2273 1281 
Q 2116 1406 1581 1522 
L 1381 1569 
Q 847 1681 609 1914 
Q 372 2147 372 2553 
Q 372 3047 722 3315 
Q 1072 3584 1716 3584 
Q 2034 3584 2315 3537 
Q 2597 3491 2834 3397 
z
" transform="scale(0.015625)"/>
       <path id="DejaVuSans-69" d="M 603 3500 
L 1178 3500 
L 1178 0 
L 603 0 
L 603 3500 
z
M 603 4863 
L 1178 4863 
L 1178 4134 
L 603 4134 
L 603 4863 
z
" transform="scale(0.015625)"/>
       <path id="DejaVuSans-74" d="M 1172 4494 
L 1172 3500 
L 2356 3500 
L 2356 3053 
L 1172 3053 
L 1172 1153 
Q 1172 725 1289 603 
Q 1406 481 1766 481 
L 2356 481 
L 2356 0 
L 1766 0 
Q 1100 0 847 248 
Q 594 497 594 1153 
L 594 3053 
L 172 3053 
L 172 3500 
L 594 3500 
L 594 4494 
L 1172 4494 
z
" transform="scale(0.015625)"/>
       <path id="DejaVuSans-6e" d="M 3513 2113 
L 3513 0 
L 2938 0 
L 2938 2094 
Q 2938 2591 2744 2837 
Q 2550 3084 2163 3084 
Q 1697 3084 1428 2787 
Q 1159 2491 1159 1978 
L 1159 0 
L 581 0 
L 581 3500 
L 1159 3500 
L 1159 2956 
Q 1366 3272 1645 3428 
Q 1925 3584 2291 3584 
Q 2894 3584 3203 3211 
Q 3513 2838 3513 2113 
z
" transform="scale(0.015625)"/>
      </defs>
      <use xlink:href="#DejaVuSans-50"/>
      <use xlink:href="#DejaVuSans-6f" x="56.677734"/>
      <use xlink:href="#DejaVuSans-73" x="117.859375"/>
      <use xlink:href="#DejaVuSans-69" x="169.958984"/>
      <use xlink:href="#DejaVuSans-74" x="197.742188"/>
      <use xlink:href="#DejaVuSans-69" x="236.951172"/>
      <use xlink:href="#DejaVuSans-6f" x="264.734375"/>
      <use xlink:href="#DejaVuSans-6e" x="325.916016"/>
     </g>
    </g>
    <g id="text_8">
     <!-- 1e6 -->
     <g transform="translate(1017.921875 411.756563) scale(0.1 -0.1)">
      <defs>
       <path id="DejaVuSans-65" d="M 3597 1894 
L 3597 1613 
L 953 1613 
Q 991 1019 1311 708 
Q 1631 397 2203 397 
Q 2534 397 2845 478 
Q 3156 559 3463 722 
L 3463 178 
Q 3153 47 2828 -22 
Q 2503 -91 2169 -91 
Q 1331 -91 842 396 
Q 353 884 353 1716 
Q 353 2575 817 3079 
Q 1281 3584 2069 3584 
Q 2775 3584 3186 3129 
Q 3597 2675 3597 1894 
z
M 3022 2063 
Q 3016 2534 2758 2815 
Q 2500 3097 2075 3097 
Q 1594 3097 1305 2825 
Q 1016 2553 972 2059 
L 3022 2063 
z
" transform="scale(0.015625)"/>
      </defs>
      <use xlink:href="#DejaVuSans-31"/>
      <use xlink:href="#DejaVuSans-65" x="63.623047"/>
      <use xlink:href="#DejaVuSans-36" x="125.146484"/>
     </g>
    </g>
   </g>
   <g id="matplotlib.axis_2">
    <g id="ytick_1">
     <g id="line2d_7">
      <defs>
       <path id="m0391c15219" d="M 0 0 
L -3.5 0 
" style="stroke: #000000; stroke-width: 0.8"/>
      </defs>
      <g>
       <use xlink:href="#m0391c15219" x="144" y="369.36" style="stroke: #000000; stroke-width: 0.8"/>
      </g>
     </g>
     <g id="text_9">
      <!-- 0 -->
      <g transform="translate(130.6375 373.159219) scale(0.1 -0.1)">
       <use xlink:href="#DejaVuSans-30"/>
      </g>
     </g>
    </g>
    <g id="ytick_2">
     <g id="line2d_8">
      <g>
       <use xlink:href="#m0391c15219" x="144" y="329.758114" style="stroke: #000000; stroke-width: 0.8"/>
      </g>
     </g>
     <g id="text_10">
      <!-- 250 -->
      <g transform="translate(117.9125 333.557333) scale(0.1 -0.1)">
       <defs>
        <path id="DejaVuSans-35" d="M 691 4666 
L 3169 4666 
L 3169 4134 
L 1269 4134 
L 1269 2991 
Q 1406 3038 1543 3061 
Q 1681 3084 1819 3084 
Q 2600 3084 3056 2656 
Q 3513 2228 3513 1497 
Q 3513 744 3044 326 
Q 2575 -91 1722 -91 
Q 1428 -91 1123 -41 
Q 819 9 494 109 
L 494 744 
Q 775 591 1075 516 
Q 1375 441 1709 441 
Q 2250 441 2565 725 
Q 2881 1009 2881 1497 
Q 2881 1984 2565 2268 
Q 2250 2553 1709 2553 
Q 1456 2553 1204 2497 
Q 953 2441 691 2322 
L 691 4666 
z
" transform="scale(0.015625)"/>
       </defs>
       <use xlink:href="#DejaVuSans-32"/>
       <use xlink:href="#DejaVuSans-35" x="63.623047"/>
       <use xlink:href="#DejaVuSans-30" x="127.246094"/>
      </g>
     </g>
    </g>
    <g id="ytick_3">
     <g id="line2d_9">
      <g>
       <use xlink:href="#m0391c15219" x="144" y="290.156228" style="stroke: #000000; stroke-width: 0.8"/>
      </g>
     </g>
     <g id="text_11">
      <!-- 500 -->
      <g transform="translate(117.9125 293.955447) scale(0.1 -0.1)">
       <use xlink:href="#DejaVuSans-35"/>
       <use xlink:href="#DejaVuSans-30" x="63.623047"/>
       <use xlink:href="#DejaVuSans-30" x="127.246094"/>
      </g>
     </g>
    </g>
    <g id="ytick_4">
     <g id="line2d_10">
      <g>
       <use xlink:href="#m0391c15219" x="144" y="250.554343" style="stroke: #000000; stroke-width: 0.8"/>
      </g>
     </g>
     <g id="text_12">
      <!-- 750 -->
      <g transform="translate(117.9125 254.353561) scale(0.1 -0.1)">
       <defs>
        <path id="DejaVuSans-37" d="M 525 4666 
L 3525 4666 
L 3525 4397 
L 1831 0 
L 1172 0 
L 2766 4134 
L 525 4134 
L 525 4666 
z
" transform="scale(0.015625)"/>
       </defs>
       <use xlink:href="#DejaVuSans-37"/>
       <use xlink:href="#DejaVuSans-35" x="63.623047"/>
       <use xlink:href="#DejaVuSans-30" x="127.246094"/>
      </g>
     </g>
    </g>
    <g id="ytick_5">
     <g id="line2d_11">
      <g>
       <use xlink:href="#m0391c15219" x="144" y="210.952457" style="stroke: #000000; stroke-width: 0.8"/>
      </g>
     </g>
     <g id="text_13">
      <!-- 1000 -->
      <g transform="translate(111.55 214.751676) scale(0.1 -0.1)">
       <use xlink:href="#DejaVuSans-31"/>
       <use xlink:href="#DejaVuSans-30" x="63.623047"/>
       <use xlink:href="#DejaVuSans-30" x="127.246094"/>
       <use xlink:href="#DejaVuSans-30" x="190.869141"/>
      </g>
     </g>
    </g>
    <g id="ytick_6">
     <g id="line2d_12">
      <g>
       <use xlink:href="#m0391c15219" x="144" y="171.350571" style="stroke: #000000; stroke-width: 0.8"/>
      </g>
     </g>
     <g id="text_14">
      <!-- 1250 -->
      <g transform="translate(111.55 175.14979) scale(0.1 -0.1)">
       <use xlink:href="#DejaVuSans-31"/>
       <use xlink:href="#DejaVuSans-32" x="63.623047"/>
       <use xlink:href="#DejaVuSans-35" x="127.246094"/>
       <use xlink:href="#DejaVuSans-30" x="190.869141"/>
      </g>
     </g>
    </g>
    <g id="ytick_7">
     <g id="line2d_13">
      <g>
       <use xlink:href="#m0391c15219" x="144" y="131.748685" style="stroke: #000000; stroke-width: 0.8"/>
      </g>
     </g>
     <g id="text_15">
      <!-- 1500 -->
      <g transform="translate(111.55 135.547904) scale(0.1 -0.1)">
       <use xlink:href="#DejaVuSans-31"/>
       <use xlink:href="#DejaVuSans-35" x="63.623047"/>
       <use xlink:href="#DejaVuSans-30" x="127.246094"/>
       <use xlink:href="#DejaVuSans-30" x="190.869141"/>
      </g>
     </g>
    </g>
    <g id="ytick_8">
     <g id="line2d_14">
      <g>
       <use xlink:href="#m0391c15219" x="144" y="92.146799" style="stroke: #000000; stroke-width: 0.8"/>
      </g>
     </g>
     <g id="text_16">
      <!-- 1750 -->
      <g transform="translate(111.55 95.946018) scale(0.1 -0.1)">
       <use xlink:href="#DejaVuSans-31"/>
       <use xlink:href="#DejaVuSans-37" x="63.623047"/>
       <use xlink:href="#DejaVuSans-35" x="127.246094"/>
       <use xlink:href="#DejaVuSans-30" x="190.869141"/>
      </g>
     </g>
    </g>
    <g id="ytick_9">
     <g id="line2d_15">
      <g>
       <use xlink:href="#m0391c15219" x="144" y="52.544914" style="stroke: #000000; stroke-width: 0.8"/>
      </g>
     </g>
     <g id="text_17">
      <!-- 2000 -->
      <g transform="translate(111.55 56.344132) scale(0.1 -0.1)">
       <use xlink:href="#DejaVuSans-32"/>
       <use xlink:href="#DejaVuSans-30" x="63.623047"/>
       <use xlink:href="#DejaVuSans-30" x="127.246094"/>
       <use xlink:href="#DejaVuSans-30" x="190.869141"/>
      </g>
     </g>
    </g>
    <g id="text_18">
     <!-- Depth of coverage -->
     <g transform="translate(105.470312 264.602187) rotate(-90) scale(0.1 -0.1)">
      <defs>
       <path id="DejaVuSans-44" d="M 1259 4147 
L 1259 519 
L 2022 519 
Q 2988 519 3436 956 
Q 3884 1394 3884 2338 
Q 3884 3275 3436 3711 
Q 2988 4147 2022 4147 
L 1259 4147 
z
M 628 4666 
L 1925 4666 
Q 3281 4666 3915 4102 
Q 4550 3538 4550 2338 
Q 4550 1131 3912 565 
Q 3275 0 1925 0 
L 628 0 
L 628 4666 
z
" transform="scale(0.015625)"/>
       <path id="DejaVuSans-70" d="M 1159 525 
L 1159 -1331 
L 581 -1331 
L 581 3500 
L 1159 3500 
L 1159 2969 
Q 1341 3281 1617 3432 
Q 1894 3584 2278 3584 
Q 2916 3584 3314 3078 
Q 3713 2572 3713 1747 
Q 3713 922 3314 415 
Q 2916 -91 2278 -91 
Q 1894 -91 1617 61 
Q 1341 213 1159 525 
z
M 3116 1747 
Q 3116 2381 2855 2742 
Q 2594 3103 2138 3103 
Q 1681 3103 1420 2742 
Q 1159 2381 1159 1747 
Q 1159 1113 1420 752 
Q 1681 391 2138 391 
Q 2594 391 2855 752 
Q 3116 1113 3116 1747 
z
" transform="scale(0.015625)"/>
       <path id="DejaVuSans-68" d="M 3513 2113 
L 3513 0 
L 2938 0 
L 2938 2094 
Q 2938 2591 2744 2837 
Q 2550 3084 2163 3084 
Q 1697 3084 1428 2787 
Q 1159 2491 1159 1978 
L 1159 0 
L 581 0 
L 581 4863 
L 1159 4863 
L 1159 2956 
Q 1366 3272 1645 3428 
Q 1925 3584 2291 3584 
Q 2894 3584 3203 3211 
Q 3513 2838 3513 2113 
z
" transform="scale(0.015625)"/>
       <path id="DejaVuSans-20" transform="scale(0.015625)"/>
       <path id="DejaVuSans-66" d="M 2375 4863 
L 2375 4384 
L 1825 4384 
Q 1516 4384 1395 4259 
Q 1275 4134 1275 3809 
L 1275 3500 
L 2222 3500 
L 2222 3053 
L 1275 3053 
L 1275 0 
L 697 0 
L 697 3053 
L 147 3053 
L 147 3500 
L 697 3500 
L 697 3744 
Q 697 4328 969 4595 
Q 1241 4863 1831 4863 
L 2375 4863 
z
" transform="scale(0.015625)"/>
       <path id="DejaVuSans-63" d="M 3122 3366 
L 3122 2828 
Q 2878 2963 2633 3030 
Q 2388 3097 2138 3097 
Q 1578 3097 1268 2742 
Q 959 2388 959 1747 
Q 959 1106 1268 751 
Q 1578 397 2138 397 
Q 2388 397 2633 464 
Q 2878 531 3122 666 
L 3122 134 
Q 2881 22 2623 -34 
Q 2366 -91 2075 -91 
Q 1284 -91 818 406 
Q 353 903 353 1747 
Q 353 2603 823 3093 
Q 1294 3584 2113 3584 
Q 2378 3584 2631 3529 
Q 2884 3475 3122 3366 
z
" transform="scale(0.015625)"/>
       <path id="DejaVuSans-76" d="M 191 3500 
L 800 3500 
L 1894 563 
L 2988 3500 
L 3597 3500 
L 2284 0 
L 1503 0 
L 191 3500 
z
" transform="scale(0.015625)"/>
       <path id="DejaVuSans-72" d="M 2631 2963 
Q 2534 3019 2420 3045 
Q 2306 3072 2169 3072 
Q 1681 3072 1420 2755 
Q 1159 2438 1159 1844 
L 1159 0 
L 581 0 
L 581 3500 
L 1159 3500 
L 1159 2956 
Q 1341 3275 1631 3429 
Q 1922 3584 2338 3584 
Q 2397 3584 2469 3576 
Q 2541 3569 2628 3553 
L 2631 2963 
z
" transform="scale(0.015625)"/>
       <path id="DejaVuSans-61" d="M 2194 1759 
Q 1497 1759 1228 1600 
Q 959 1441 959 1056 
Q 959 750 1161 570 
Q 1363 391 1709 391 
Q 2188 391 2477 730 
Q 2766 1069 2766 1631 
L 2766 1759 
L 2194 1759 
z
M 3341 1997 
L 3341 0 
L 2766 0 
L 2766 531 
Q 2569 213 2275 61 
Q 1981 -91 1556 -91 
Q 1019 -91 701 211 
Q 384 513 384 1019 
Q 384 1609 779 1909 
Q 1175 2209 1959 2209 
L 2766 2209 
L 2766 2266 
Q 2766 2663 2505 2880 
Q 2244 3097 1772 3097 
Q 1472 3097 1187 3025 
Q 903 2953 641 2809 
L 641 3341 
Q 956 3463 1253 3523 
Q 1550 3584 1831 3584 
Q 2591 3584 2966 3190 
Q 3341 2797 3341 1997 
z
" transform="scale(0.015625)"/>
       <path id="DejaVuSans-67" d="M 2906 1791 
Q 2906 2416 2648 2759 
Q 2391 3103 1925 3103 
Q 1463 3103 1205 2759 
Q 947 2416 947 1791 
Q 947 1169 1205 825 
Q 1463 481 1925 481 
Q 2391 481 2648 825 
Q 2906 1169 2906 1791 
z
M 3481 434 
Q 3481 -459 3084 -895 
Q 2688 -1331 1869 -1331 
Q 1566 -1331 1297 -1286 
Q 1028 -1241 775 -1147 
L 775 -588 
Q 1028 -725 1275 -790 
Q 1522 -856 1778 -856 
Q 2344 -856 2625 -561 
Q 2906 -266 2906 331 
L 2906 616 
Q 2728 306 2450 153 
Q 2172 0 1784 0 
Q 1141 0 747 490 
Q 353 981 353 1791 
Q 353 2603 747 3093 
Q 1141 3584 1784 3584 
Q 2172 3584 2450 3431 
Q 2728 3278 2906 2969 
L 2906 3500 
L 3481 3500 
L 3481 434 
z
" transform="scale(0.015625)"/>
      </defs>
      <use xlink:href="#DejaVuSans-44"/>
      <use xlink:href="#DejaVuSans-65" x="77.001953"/>
      <use xlink:href="#DejaVuSans-70" x="138.525391"/>
      <use xlink:href="#DejaVuSans-74" x="202.001953"/>
      <use xlink:href="#DejaVuSans-68" x="241.210938"/>
      <use xlink:href="#DejaVuSans-20" x="304.589844"/>
      <use xlink:href="#DejaVuSans-6f" x="336.376953"/>
      <use xlink:href="#DejaVuSans-66" x="397.558594"/>
      <use xlink:href="#DejaVuSans-20" x="432.763672"/>
      <use xlink:href="#DejaVuSans-63" x="464.550781"/>
      <use xlink:href="#DejaVuSans-6f" x="519.53125"/>
      <use xlink:href="#DejaVuSans-76" x="580.712891"/>
      <use xlink:href="#DejaVuSans-65" x="639.892578"/>
      <use xlink:href="#DejaVuSans-72" x="701.416016"/>
      <use xlink:href="#DejaVuSans-61" x="742.529297"/>
      <use xlink:href="#DejaVuSans-67" x="803.808594"/>
      <use xlink:href="#DejaVuSans-65" x="867.285156"/>
     </g>
    </g>
   </g>
   <g id="line2d_16">
    <path d="M 184.581818 369.36 
L 226.327978 369.36 
L 226.439243 369.043185 
L 226.441514 369.043185 
L 226.545209 369.201592 
L 226.552021 369.043185 
L 226.561104 369.043185 
L 226.673126 369.36 
L 387.923478 369.36 
L 388.033986 369.043185 
L 388.034743 369.201592 
L 388.113461 369.043185 
L 388.138439 369.36 
L 388.144494 369.36 
L 393.2392 369.36 
L 393.314133 369.201592 
L 393.349707 369.36 
L 400.510755 369.36 
L 400.55844 369.201592 
L 400.621263 369.36 
L 419.923771 369.36 
L 419.92907 368.72637 
L 420.033522 328.807669 
L 420.040334 330.550152 
L 420.084992 329.599707 
L 420.103914 332.451042 
L 420.150842 331.025375 
L 420.151599 331.025375 
L 420.230317 335.302378 
L 420.268919 334.035118 
L 420.287084 333.559895 
L 420.30525 335.460786 
L 420.306007 335.460786 
L 420.308278 66.96 
L 420.417271 79.632603 
L 420.418785 78.840566 
L 420.42257 96.106988 
L 420.484636 83.909607 
L 420.487663 94.04769 
L 420.499774 80.266234 
L 420.595143 82.800754 
L 420.628447 81.058271 
L 420.603469 90.087501 
L 420.686728 85.968905 
L 420.782855 114.640671 
L 420.689756 84.543237 
L 420.800264 90.562724 
L 420.872169 121.13538 
L 420.812374 89.929094 
L 420.91607 93.889282 
L 420.91834 93.255652 
L 420.963754 107.512331 
L 420.972837 102.44329 
L 420.981163 359.380325 
L 421.093185 359.06351 
L 421.093942 359.06351 
L 421.096212 358.905102 
L 421.170389 360.805993 
L 421.19688 360.489178 
L 421.295277 361.914845 
L 421.296791 334.985563 
L 421.406542 341.797087 
L 421.428492 341.321865 
L 421.505696 343.856386 
L 421.547326 348.450204 
L 421.581386 342.589125 
L 421.616204 342.589125 
L 421.665402 338.470529 
L 421.663889 344.014793 
L 421.666916 340.529827 
L 421.752446 363.498921 
L 421.778181 363.023698 
L 421.862197 364.766181 
L 421.893987 364.132551 
L 421.894744 364.132551 
L 421.953782 364.924589 
L 422.006008 364.290959 
L 422.01055 364.290959 
L 422.024931 364.766181 
L 422.033257 333.87671 
L 422.052936 335.936008 
L 422.11803 335.143971 
L 422.09835 338.153714 
L 422.162687 336.411231 
L 422.227024 338.628937 
L 422.17177 335.777601 
L 422.273951 336.569639 
L 422.318609 341.63868 
L 422.276979 336.411231 
L 422.389001 337.520084 
L 422.389757 337.520084 
L 422.39884 344.648423 
L 422.393542 337.361676 
L 422.434415 339.579382 
L 422.436685 264.969429 
L 422.545679 289.205783 
L 422.622126 293.799602 
L 422.663756 291.106674 
L 422.742474 289.839413 
L 422.703872 297.918198 
L 422.773507 292.057119 
L 422.972572 366.350257 
L 423.002091 366.033442 
L 423.007389 366.033442 
L 423.069455 366.508664 
L 423.096704 365.875034 
L 423.11714 365.875034 
L 423.118654 365.875034 
L 423.219322 366.508664 
L 423.221592 361.59803 
L 423.330586 364.607774 
L 423.347995 364.132551 
L 423.371459 364.924589 
L 423.441094 364.607774 
L 423.441851 364.607774 
L 423.523596 364.290959 
L 423.45926 364.924589 
L 423.551602 364.766181 
L 423.643944 365.558219 
L 423.66438 365.399811 
L 423.678761 364.924589 
L 423.751424 365.875034 
L 423.774888 365.558219 
L 423.778672 365.558219 
L 423.790783 365.875034 
L 423.805164 360.013955 
L 423.880097 363.657328 
L 423.880854 363.657328 
L 423.989091 364.449366 
L 423.886152 363.498921 
L 423.994389 364.290959 
L 423.999687 364.290959 
L 424.076135 365.399811 
L 424.112466 364.766181 
L 424.128361 364.766181 
L 424.160151 365.399811 
L 424.238868 364.766181 
L 424.239625 364.766181 
L 424.317586 365.399811 
L 424.35089 365.082996 
L 424.351647 365.082996 
L 424.356945 364.766181 
L 424.444746 366.508664 
L 424.459884 366.191849 
L 424.474265 366.508664 
L 424.481077 366.033442 
L 424.496972 366.033442 
L 424.498486 348.133389 
L 424.608236 349.875872 
L 424.60975 349.717465 
L 424.692253 351.30154 
L 424.715717 350.509502 
L 424.823953 352.093578 
L 424.755075 350.03428 
L 424.829252 351.143133 
L 424.859528 350.826317 
L 424.901157 353.519246 
L 424.901914 353.360838 
L 424.903428 307.739466 
L 425.013179 323.104997 
L 425.115361 330.866967 
L 425.129742 325.639518 
L 425.132013 325.639518 
L 425.243277 331.183782 
L 425.256901 328.649261 
L 425.257658 328.649261 
L 425.298531 331.659005 
L 425.299288 325.481111 
L 425.300802 326.431556 
L 425.405254 361.756438 
L 425.412066 361.439623 
L 425.41358 361.439623 
L 425.493812 362.390068 
L 425.525601 362.231661 
L 425.573286 361.59803 
L 425.577071 362.706883 
L 425.636866 362.073253 
L 425.707258 339.896197 
L 425.702716 362.706883 
L 425.83139 344.490016 
L 425.931301 349.083834 
L 425.847285 344.173201 
L 425.944925 345.282053 
L 425.985041 344.806831 
L 426.032726 348.925427 
L 426.048621 346.549314 
L 426.208327 369.36 
L 426.050891 346.232499 
L 426.267365 369.201592 
L 426.272663 369.201592 
L 426.383928 369.36 
L 426.726048 369.36 
L 426.838069 369.043185 
L 427.063626 369.043185 
L 427.166564 369.36 
L 427.17489 369.201592 
L 427.464027 369.201592 
L 427.484463 369.36 
L 427.574535 369.201592 
L 427.633573 369.201592 
L 427.744837 369.043185 
L 427.770572 369.043185 
L 427.772843 369.201592 
L 427.824312 362.073253 
L 427.84929 362.390068 
L 427.871997 361.914845 
L 427.916654 364.132551 
L 427.957527 363.340513 
L 427.958284 363.340513 
L 427.979477 363.182106 
L 427.965853 364.132551 
L 428.06425 364.132551 
L 428.067278 363.974144 
L 428.177028 364.766181 
L 428.270884 364.449366 
L 428.184597 365.082996 
L 428.288293 364.607774 
L 428.28905 364.607774 
L 428.369281 365.716627 
L 428.400314 364.924589 
L 428.404856 364.924589 
L 428.44043 366.033442 
L 428.427563 362.231661 
L 428.51612 365.082996 
L 428.516877 365.082996 
L 428.558507 365.716627 
L 428.561534 364.449366 
L 428.625871 364.766181 
L 428.631169 364.766181 
L 428.737136 365.558219 
L 428.744705 365.399811 
L 428.745462 365.399811 
L 428.755301 365.875034 
L 428.809041 357.637842 
L 428.832505 360.489178 
L 428.835533 360.489178 
L 428.906682 362.231661 
L 428.950582 361.756438 
L 429.052007 361.439623 
L 428.986156 362.231661 
L 429.06109 361.756438 
L 429.072443 361.756438 
L 429.147376 363.498921 
L 429.185978 362.390068 
L 429.188249 362.390068 
L 429.226851 362.706883 
L 429.290431 362.073253 
L 429.298 362.073253 
L 429.301784 362.073253 
L 429.393369 362.390068 
L 429.330547 361.59803 
L 429.411535 361.914845 
L 429.412292 361.914845 
L 429.494037 364.132551 
L 429.420618 357.321027 
L 429.525827 363.023698 
L 429.526584 363.023698 
L 429.545507 362.865291 
L 429.590921 363.974144 
L 429.634064 363.657328 
L 429.725649 363.974144 
L 429.733975 363.182106 
L 429.744572 363.498921 
L 429.745329 363.498921 
L 429.826317 352.5688 
L 429.887626 356.687397 
L 429.888383 357.637842 
L 429.944394 356.528989 
L 429.998134 356.845804 
L 430.001162 356.687397 
L 430.085178 358.271472 
L 430.1041 357.637842 
L 430.154813 359.221917 
L 430.117724 357.321027 
L 430.20931 359.06351 
L 430.210823 340.054605 
L 430.320574 348.767019 
L 430.321331 348.767019 
L 430.415187 351.30154 
L 430.327386 348.608612 
L 430.434109 349.717465 
L 430.437137 349.717465 
L 430.520396 352.093578 
L 430.453789 349.559057 
L 430.548402 350.03428 
L 430.551429 350.03428 
L 430.64907 352.5688 
L 430.664208 350.826317 
L 430.729301 329.282892 
L 430.708865 353.044023 
L 430.806505 343.064348 
L 430.807262 344.965238 
L 430.894306 342.27231 
L 430.917013 343.064348 
L 430.953344 342.430718 
L 431.013139 344.490016 
L 431.024493 343.222755 
L 431.054012 345.757276 
L 431.074448 342.90594 
L 431.135 343.064348 
L 431.135757 343.064348 
L 431.236425 364.449366 
L 431.228856 341.955495 
L 431.265944 363.657328 
L 431.275027 363.657328 
L 431.384021 365.082996 
L 431.39159 364.924589 
L 431.400673 364.766181 
L 431.458954 366.191849 
L 431.49907 365.558219 
L 431.499827 365.558219 
L 431.558865 366.033442 
L 431.560379 365.241404 
L 431.610335 365.558219 
L 431.622445 365.558219 
L 431.732196 365.716627 
L 431.633042 365.241404 
L 431.732953 365.558219 
L 431.771555 365.716627 
L 431.845731 365.082996 
L 431.857842 365.082996 
L 431.913852 365.716627 
L 431.969863 365.399811 
L 431.988786 349.717465 
L 432.143194 352.251985 
L 432.143951 352.251985 
L 432.254458 351.143133 
L 432.146978 352.885616 
L 432.256729 351.459948 
L 432.26127 351.143133 
L 432.343773 353.360838 
L 432.362695 352.410393 
L 432.393728 338.628937 
L 432.475473 353.677653 
L 432.479258 353.202431 
L 432.582197 354.944914 
L 432.582954 354.786506 
L 432.663942 356.528989 
L 432.586738 354.628098 
L 432.695732 355.578544 
L 432.815322 358.113064 
L 432.816079 357.637842 
L 432.843328 353.994468 
L 432.847869 364.290959 
L 432.916747 364.132551 
L 432.919018 364.132551 
L 432.997736 364.924589 
L 433.031796 364.607774 
L 433.034824 364.607774 
L 433.135492 365.399811 
L 433.146088 365.082996 
L 433.147602 365.082996 
L 433.223292 365.558219 
L 433.245243 364.924589 
L 433.25811 365.082996 
L 433.258867 364.924589 
L 433.358778 365.716627 
L 433.36559 365.716627 
L 433.380728 365.716627 
L 433.401164 352.410393 
L 433.396623 365.875034 
L 433.515457 355.736951 
L 433.516213 355.736951 
L 433.625964 354.944914 
L 433.532865 356.370581 
L 433.629749 355.103321 
L 433.67592 356.212174 
L 433.740256 355.578544 
L 433.775074 354.628098 
L 433.833355 356.053766 
L 433.852278 354.944914 
L 433.859847 356.845804 
L 433.881797 356.370581 
L 433.884068 324.055443 
L 433.993062 335.619193 
L 433.996846 335.619193 
L 434.045288 337.678491 
L 434.07405 335.460786 
L 434.107354 335.619193 
L 434.109624 335.619193 
L 434.187585 339.104159 
L 434.226944 338.470529 
L 434.236784 322.154552 
L 434.241325 350.351095 
L 434.289767 348.133389 
L 434.400275 353.519246 
L 434.405573 353.202431 
L 434.454015 352.885616 
L 434.510025 354.469691 
L 434.510782 354.469691 
L 434.556196 353.202431 
L 434.587229 355.736951 
L 434.616749 355.261729 
L 434.626588 355.103321 
L 434.640969 359.69714 
L 434.642483 288.255338 
L 434.752234 291.740304 
L 434.828681 297.12616 
L 434.756019 291.581896 
L 434.86804 293.799602 
L 434.910426 302.828832 
L 434.871068 293.482787 
L 434.98763 296.334123 
L 434.989901 126.362829 
L 435.098895 180.221393 
L 435.142038 178.162095 
L 435.117818 210.635642 
L 435.208646 182.122284 
L 435.219999 180.696616 
L 435.286607 198.755076 
L 435.3078 191.626737 
L 435.308557 191.626737 
L 435.437987 280.493368 
L 435.343374 121.610602 
L 435.448584 277.325217 
L 435.515191 281.285406 
L 435.535627 276.691587 
L 435.560605 277.80044 
L 435.574986 277.642032 
L 435.595423 283.503112 
L 435.663544 278.909293 
L 435.76951 288.255338 
L 435.780107 283.661519 
L 435.802814 292.215526 
L 435.824764 292.057119 
L 435.826278 255.306569 
L 435.827791 328.174039 
L 435.934515 327.540409 
L 436.012475 331.817412 
L 436.002636 326.589963 
L 436.04805 328.649261 
L 436.048807 328.649261 
L 436.154016 332.767858 
L 436.056376 328.174039 
L 436.166127 331.500597 
L 436.166883 331.500597 
L 436.23122 334.51034 
L 436.232734 291.106674 
L 436.342485 323.263405 
L 436.383357 321.362514 
L 436.423473 327.223594 
L 436.452992 323.738628 
L 436.45602 323.263405 
L 436.549876 328.015631 
L 436.559715 325.797926 
L 436.669466 331.025375 
L 436.679306 329.599707 
L 436.700499 328.490854 
L 436.699742 333.87671 
L 436.702013 329.758114 
L 436.81025 362.706883 
L 436.813278 362.548476 
L 436.912432 363.657328 
L 436.818576 362.390068 
L 436.926056 363.340513 
L 436.932111 363.340513 
L 436.943465 363.974144 
L 436.953304 362.865291 
L 437.043376 363.498921 
L 437.04716 363.498921 
L 437.134961 364.132551 
L 437.082735 363.340513 
L 437.158425 363.657328 
L 437.159939 363.657328 
L 437.20611 363.498921 
L 437.227303 364.132551 
L 437.268932 363.974144 
L 437.272717 363.974144 
L 437.30375 364.449366 
L 437.304507 364.290959 
L 437.340838 301.878387 
L 437.415771 305.046537 
L 437.517196 309.957171 
L 437.417285 304.88813 
L 437.52855 307.581058 
L 437.529307 307.581058 
L 437.629975 311.858062 
L 437.552771 306.947428 
L 437.645869 308.848318 
L 437.681444 307.897873 
L 437.654195 313.600545 
L 437.756377 308.848318 
L 437.953172 346.866129 
L 437.819957 291.106674 
L 437.954685 345.915684 
L 437.960741 345.598869 
L 438.038701 350.826317 
L 438.054596 350.509502 
L 438.058381 350.509502 
L 438.158292 354.944914 
L 438.065193 350.351095 
L 438.187054 354.311283 
L 438.190082 354.311283 
L 438.201435 354.152876 
L 438.230198 354.944914 
L 438.299833 354.469691 
L 438.300589 354.469691 
L 438.417152 356.370581 
L 438.493599 331.025375 
L 438.481489 357.162619 
L 438.540527 340.213012 
L 438.651035 342.747533 
L 438.655576 341.955495 
L 438.686609 345.598869 
L 438.776681 344.331608 
L 438.787277 343.697978 
L 438.858426 348.450204 
L 438.886431 345.123646 
L 439.013591 353.519246 
L 438.895514 330.866967 
L 439.016619 353.360838 
L 439.059005 353.202431 
L 439.06279 354.628098 
L 439.124099 353.994468 
L 439.124856 353.994468 
L 439.142264 353.677653 
L 439.216441 355.736951 
L 439.229308 355.261729 
L 439.24596 355.895359 
L 439.269424 354.628098 
L 439.337545 354.786506 
L 439.435185 353.677653 
L 439.414749 355.736951 
L 439.450323 354.311283 
L 439.45108 354.311283 
L 439.522229 357.004212 
L 439.460163 353.994468 
L 439.563102 354.786506 
L 439.566886 354.786506 
L 439.575969 355.420136 
L 439.659985 353.202431 
L 439.675123 353.677653 
L 439.772763 308.214688 
L 439.713725 354.469691 
L 439.836343 320.728884 
L 439.924901 325.481111 
L 439.842398 319.936847 
L 439.948365 323.421812 
L 439.977127 326.431556 
L 440.013458 323.104997 
L 440.067198 325.164295 
L 440.160297 305.996983 
L 440.158026 328.332446 
L 440.161054 307.105836 
L 440.194358 345.282053 
L 440.272319 343.222755 
L 440.273076 343.222755 
L 440.332114 346.549314 
L 440.39418 345.440461 
L 440.497875 344.490016 
L 440.427483 345.598869 
L 440.505444 344.965238 
L 440.506201 344.965238 
L 440.552372 344.648423 
L 440.610654 347.658167 
L 440.612168 346.866129 
L 440.614438 346.866129 
L 440.624278 346.390906 
L 440.64093 347.658167 
L 440.642444 327.698816 
L 440.717377 348.767019 
L 440.751437 347.341351 
L 440.752194 347.341351 
L 440.800636 347.024536 
L 440.84605 349.559057 
L 440.855133 348.925427 
L 440.926282 351.776763 
L 440.870271 348.608612 
L 440.970939 350.03428 
L 440.971696 350.03428 
L 441.076905 351.776763 
L 440.989861 349.875872 
L 441.084474 351.30154 
L 441.109452 350.66791 
L 441.131402 353.044023 
L 441.133673 353.044023 
L 441.135944 246.594154 
L 441.244937 258.47472 
L 441.25402 262.593316 
L 441.296407 256.732237 
L 441.355445 257.999497 
L 441.449301 253.880901 
L 441.459141 263.543761 
L 441.467467 256.415422 
L 441.524234 254.039309 
L 441.489417 263.068539 
L 441.538615 257.682682 
L 441.540129 138.084987 
L 441.649123 236.931294 
L 441.655935 234.396773 
L 441.670316 242.633965 
L 441.760387 235.822441 
L 441.88679 251.029565 
L 441.887547 173.251461 
L 441.990486 288.888968 
L 441.997298 282.552666 
L 442.024546 280.968591 
L 442.095695 284.453557 
L 442.107048 282.711074 
L 442.156247 290.156228 
L 442.223611 285.087187 
L 442.234208 268.612803 
L 442.272053 349.559057 
L 442.290976 348.291797 
L 442.292489 348.291797 
L 442.343202 350.351095 
L 442.397699 348.133389 
L 442.403754 348.450204 
L 442.406782 348.450204 
L 442.419649 351.143133 
L 442.415864 348.291797 
L 442.51956 349.242242 
L 442.53167 348.608612 
L 442.574057 350.509502 
L 442.630068 349.083834 
L 442.73452 352.251985 
L 442.751172 351.459948 
L 442.792045 340.529827 
L 442.811724 356.370581 
L 442.842 355.420136 
L 442.957806 357.479434 
L 442.860166 355.103321 
L 442.960834 357.162619 
L 442.961591 357.162619 
L 443.064529 358.746695 
L 442.969917 356.845804 
L 443.075883 358.113064 
L 443.125081 357.637842 
L 443.178821 358.905102 
L 443.185634 358.113064 
L 443.293114 359.855547 
L 443.302953 359.538732 
L 443.30371 359.538732 
L 443.391511 332.926265 
L 443.3794 360.489178 
L 443.493693 342.747533 
L 443.563327 347.024536 
L 443.608742 344.648423 
L 443.609499 344.648423 
L 443.688216 347.341351 
L 443.673078 344.331608 
L 443.720006 344.806831 
L 443.722277 344.648423 
L 443.804779 348.450204 
L 443.825216 345.440461 
L 443.916044 351.776763 
L 443.903933 330.391744 
L 443.938751 350.826317 
L 444.002331 350.03428 
L 443.97811 351.143133 
L 444.050015 350.66791 
L 444.050772 350.66791 
L 444.137816 353.044023 
L 444.163551 352.093578 
L 444.164308 352.093578 
L 444.277843 353.677653 
L 444.280113 353.202431 
L 444.28087 353.202431 
L 444.457228 367.300702 
L 444.364886 352.251985 
L 444.457985 367.142294 
L 444.458742 367.142294 
L 444.533676 367.459109 
L 444.53746 366.825479 
L 444.567736 366.825479 
L 444.568493 366.825479 
L 444.607852 367.142294 
L 444.61315 366.508664 
L 444.679001 366.825479 
L 444.682028 366.825479 
L 444.790265 367.142294 
L 444.793293 366.983887 
L 444.79405 366.983887 
L 444.855359 367.459109 
L 444.867469 366.825479 
L 444.903801 366.825479 
L 444.925751 366.825479 
L 444.931806 366.983887 
L 444.937104 366.825479 
L 444.939375 344.648423 
L 445.048369 347.816574 
L 445.061236 346.707721 
L 445.124816 348.767019 
L 445.158876 348.291797 
L 445.233053 347.499759 
L 445.261058 350.03428 
L 445.261815 349.083834 
L 445.262572 350.03428 
L 445.269384 347.658167 
L 445.372323 348.767019 
L 445.437416 346.390906 
L 445.435902 351.459948 
L 445.438173 346.707721 
L 445.541869 364.607774 
L 445.549438 364.290959 
L 445.555493 364.132551 
L 445.664487 366.191849 
L 445.665244 366.191849 
L 445.711415 366.033442 
L 445.753044 367.142294 
L 445.774238 366.508664 
L 445.81284 366.508664 
L 445.871121 367.459109 
L 445.924104 366.667072 
L 445.931673 366.667072 
L 446.002822 367.142294 
L 446.009634 361.59803 
L 446.0278 363.657328 
L 446.03007 363.657328 
L 446.068672 364.607774 
L 446.144363 362.865291 
L 446.236705 363.657328 
L 446.255627 363.023698 
L 446.257141 363.023698 
L 446.294986 363.974144 
L 446.323748 362.865291 
L 446.366892 363.023698 
L 446.412306 348.133389 
L 446.375218 364.132551 
L 446.528112 352.251985 
L 446.647702 355.420136 
L 446.648459 354.311283 
L 446.677221 353.677653 
L 446.755182 355.736951 
L 446.759724 354.152876 
L 446.763508 355.420136 
L 446.871745 355.103321 
L 446.873259 337.836899 
L 446.982253 352.251985 
L 446.983767 352.251985 
L 446.984523 352.093578 
L 447.048103 355.420136 
L 447.082921 354.469691 
L 447.18813 355.420136 
L 447.106385 354.152876 
L 447.195699 354.944914 
L 447.196456 354.944914 
L 447.302422 357.796249 
L 447.310748 356.528989 
L 447.311505 356.528989 
L 447.325129 357.796249 
L 447.42504 357.162619 
L 447.425797 357.162619 
L 447.443963 358.42988 
L 447.464399 342.113903 
L 447.465156 341.797087 
L 447.545388 352.727208 
L 447.551443 351.93517 
L 447.658166 356.212174 
L 447.563553 351.459948 
L 447.676332 354.944914 
L 447.677089 354.944914 
L 447.697525 356.053766 
L 447.789867 355.420136 
L 447.840579 354.786506 
L 447.792895 356.053766 
L 447.900375 355.420136 
L 447.901888 355.420136 
L 448.012396 356.845804 
L 448.016181 356.212174 
L 448.02375 355.736951 
L 448.0896 357.321027 
L 448.091871 246.910969 
L 448.200865 258.316312 
L 448.233411 257.84109 
L 448.212218 272.256176 
L 448.295477 260.217203 
L 448.392361 347.974982 
L 448.386306 255.148161 
L 448.437775 346.074091 
L 448.546012 344.965238 
L 448.461239 346.866129 
L 448.550553 345.282053 
L 448.56115 344.965238 
L 448.663332 347.816574 
L 448.717829 346.390906 
L 448.71253 350.192687 
L 448.773839 348.133389 
L 448.787464 348.925427 
L 448.789734 348.608612 
L 448.791248 282.869481 
L 448.900999 302.195202 
L 449.003181 309.957171 
L 449.027401 305.680168 
L 449.0327 305.204945 
L 449.115202 311.066024 
L 449.133368 307.105836 
L 449.222682 348.291797 
L 449.215113 295.22527 
L 449.258256 347.658167 
L 449.275665 346.232499 
L 449.333947 351.30154 
L 449.365736 348.925427 
L 449.384659 351.776763 
L 449.424018 348.608612 
L 449.477001 349.083834 
L 449.569343 351.93517 
L 449.599619 351.618355 
L 449.601133 351.618355 
L 449.651088 351.459948 
L 449.686663 352.885616 
L 449.706342 352.5688 
L 449.765381 355.420136 
L 449.767651 322.788182 
L 449.789601 335.302378 
L 449.901623 338.312122 
L 449.836529 333.718303 
L 449.906164 336.569639 
L 449.908435 336.569639 
L 450.007589 344.173201 
L 450.033324 342.430718 
L 450.034081 342.430718 
L 450.087821 344.173201 
L 450.099174 342.113903 
L 450.146102 343.53957 
L 450.148373 343.53957 
L 450.20287 345.915684 
L 450.267206 345.282053 
L 450.273262 345.282053 
L 450.324731 346.866129 
L 450.327002 179.587763 
L 450.435996 195.586925 
L 450.447349 211.744494 
L 450.555586 203.348895 
L 450.5571 202.715265 
L 450.622193 219.348057 
L 450.672906 360.647585 
L 450.733458 358.905102 
L 450.738756 358.905102 
L 450.846236 361.439623 
L 450.742541 358.746695 
L 450.854562 360.9644 
L 450.855319 360.9644 
L 450.947661 362.073253 
L 450.969611 361.756438 
L 450.972639 361.756438 
L 451.068009 362.865291 
L 450.992318 361.59803 
L 451.087688 362.706883 
L 451.173218 361.756438 
L 451.124019 363.657328 
L 451.200466 362.231661 
L 451.201223 362.231661 
L 451.24361 363.657328 
L 451.251179 326.273148 
L 451.273129 330.233337 
L 451.298864 328.807669 
L 451.328383 331.183782 
L 451.384393 329.441299 
L 451.420725 333.559895 
L 451.391206 328.490854 
L 451.500199 330.866967 
L 451.505498 330.233337 
L 451.575133 335.143971 
L 451.605409 333.24308 
L 451.771927 360.172362 
L 451.623574 320.095254 
L 451.779496 359.69714 
L 451.784038 359.538732 
L 451.858971 364.132551 
L 451.870324 363.815736 
L 451.871081 363.815736 
L 451.905142 366.508664 
L 451.985373 365.558219 
L 452.007324 365.716627 
L 452.098152 365.082996 
L 452.098909 365.875034 
L 452.192008 363.974144 
L 452.207903 363.974144 
L 452.28662 366.667072 
L 452.288134 359.06351 
L 452.303272 360.805993 
L 452.304786 360.805993 
L 452.309327 360.647585 
L 452.418321 362.231661 
L 452.438001 362.073253 
L 452.476603 363.974144 
L 452.522774 363.340513 
L 452.627226 364.607774 
L 452.63858 364.449366 
L 452.643878 364.449366 
L 452.717297 365.082996 
L 452.667342 364.132551 
L 452.753629 364.290959 
L 452.754386 364.290959 
L 452.868678 365.716627 
L 452.961777 365.875034 
L 452.947396 365.241404 
L 452.978429 365.558219 
L 453.077583 365.082996 
L 452.982213 365.716627 
L 453.09045 365.241404 
L 453.091964 365.241404 
L 453.222151 369.36 
L 456.107461 369.36 
L 456.219482 368.409555 
L 456.236134 368.409555 
L 456.250515 368.251147 
L 456.348155 368.72637 
L 456.370862 368.72637 
L 456.467746 369.201592 
L 456.482884 369.043185 
L 456.582795 369.043185 
L 456.65243 369.201592 
L 456.693302 369.043185 
L 456.73796 369.043185 
L 456.849224 368.884777 
L 456.882528 368.884777 
L 456.940052 369.043185 
L 456.989251 368.567962 
L 457.049803 326.431556 
L 457.100516 328.015631 
L 457.201184 330.708559 
L 457.219349 329.758114 
L 457.283686 329.282892 
L 457.293526 333.87671 
L 457.324559 330.391744 
L 457.363161 331.97582 
L 457.387381 328.015631 
L 457.434309 328.966076 
L 457.440365 328.490854 
L 457.450961 334.985563 
L 457.472911 331.34219 
L 457.474425 274.157067 
L 457.584176 305.996983 
L 457.584933 304.729722 
L 457.678789 312.174877 
L 457.690899 309.957171 
L 457.691656 316.610288 
L 457.700739 309.640356 
L 457.802164 312.808507 
L 457.804434 312.333284 
L 457.868771 317.719141 
L 457.871042 176.419612 
L 457.980035 217.763981 
L 458.094328 236.139256 
L 457.982306 217.130351 
L 458.107952 221.407355 
L 458.109466 220.615317 
L 458.140499 238.198554 
L 458.206349 226.159581 
L 458.213161 225.684358 
L 458.2722 238.040147 
L 458.273713 166.439937 
L 458.332752 297.12616 
L 458.38195 294.750047 
L 458.490944 304.412907 
L 458.387249 294.274825 
L 458.493215 296.334123 
L 458.538629 304.729722 
L 458.620374 300.769534 
L 458.668816 262.118093 
L 458.708175 317.402326 
L 458.722556 314.867805 
L 458.838362 320.253662 
L 458.727854 314.709398 
L 458.839119 320.095254 
L 458.86334 318.827994 
L 458.869395 322.788182 
L 458.943571 322.629775 
L 458.945085 328.174039 
L 459.035913 320.412069 
L 459.051051 321.204107 
L 459.066946 320.253662 
L 459.119173 324.372258 
L 459.160045 322.154552 
L 459.160802 322.154552 
L 459.17594 324.21385 
L 459.177454 279.701331 
L 459.286448 318.511179 
L 459.289476 318.511179 
L 459.402254 321.520922 
L 459.403011 319.620031 
L 459.404525 319.620031 
L 459.467347 324.372258 
L 459.425718 319.144809 
L 459.51806 321.362514 
L 459.522601 321.045699 
L 459.575584 326.114741 
L 459.582397 325.956333 
L 459.58391 234.396773 
L 459.693661 271.147323 
L 459.709556 270.196878 
L 459.778434 276.057957 
L 459.781462 273.681844 
L 459.787517 280.018146 
L 459.883643 271.464138 
L 459.891969 272.572991 
L 460.007018 281.760629 
L 460.007775 170.716941 
L 460.118283 254.197716 
L 460.22652 266.553504 
L 460.123581 253.088863 
L 460.232575 256.573829 
L 460.233332 256.573829 
L 460.234089 256.415422 
L 460.302967 263.860576 
L 460.320376 261.484463 
L 460.322646 260.850833 
L 460.382442 269.721655 
L 460.388497 92.622022 
L 460.493706 175.152352 
L 460.604214 169.766496 
L 460.59059 187.824955 
L 460.605728 170.875348 
L 460.611783 170.241718 
L 460.658711 195.586925 
L 460.704882 175.469167 
L 460.723048 256.732237 
L 460.720777 86.444128 
L 460.838097 250.71275 
L 460.838853 249.762305 
L 460.917571 258.47472 
L 460.94482 256.098607 
L 461.025808 254.197716 
L 460.985692 265.761467 
L 461.051543 256.890644 
L 461.156752 359.380325 
L 461.057598 256.098607 
L 461.189299 358.905102 
L 461.193084 358.905102 
L 461.233199 360.489178 
L 461.305105 359.221917 
L 461.305862 359.221917 
L 461.381552 360.9644 
L 461.41864 359.69714 
L 461.419397 359.69714 
L 461.420911 359.221917 
L 461.451944 360.172362 
L 461.529148 360.172362 
L 461.532932 360.172362 
L 461.639656 361.59803 
L 461.648738 361.281215 
L 461.650252 361.281215 
L 461.713075 362.231661 
L 461.715346 294.750047 
L 461.82434 301.244756 
L 461.833422 311.382839 
L 461.831152 299.977496 
L 461.951499 304.88813 
L 461.96361 304.2545 
L 461.977991 307.897873 
L 462.060493 305.204945 
L 462.098338 312.491692 
L 462.087741 305.046537 
L 462.181597 310.273986 
L 462.210359 217.763981 
L 462.208846 314.392583 
L 462.346602 265.127837 
L 462.402613 276.374772 
L 462.348116 264.969429 
L 462.463922 270.513693 
L 462.464678 270.196878 
L 462.52296 274.790697 
L 462.562319 274.632289 
L 462.572159 280.176553 
L 462.601678 271.305731 
L 462.672826 273.206621 
L 462.765168 223.466653 
L 462.763655 278.750885 
L 462.765925 224.892321 
L 462.767439 307.581058 
L 462.87719 305.838575 
L 462.986941 309.798764 
L 462.999051 308.373096 
L 463.095178 307.105836 
L 463.099719 311.224432 
L 463.110316 307.422651 
L 463.197359 312.016469 
L 463.113343 306.947428 
L 463.223851 310.590801 
L 463.225365 310.273986 
L 463.245801 314.075767 
L 463.247315 282.711074 
L 463.347226 333.718303 
L 463.356309 332.60945 
L 463.36085 332.60945 
L 463.418375 338.787344 
L 463.47817 334.035118 
L 463.532667 333.559895 
L 463.513744 335.460786 
L 463.580352 334.193525 
L 463.672694 337.044861 
L 463.589435 333.87671 
L 463.691616 336.094416 
L 463.695401 335.777601 
L 463.72492 338.787344 
L 463.727191 338.787344 
L 463.728704 280.018146 
L 463.838455 305.363353 
L 463.839212 305.363353 
L 463.914902 312.966915 
L 463.96183 310.749209 
L 463.963344 309.640356 
L 464.042819 314.075767 
L 464.070824 312.491692 
L 464.131376 349.40065 
L 464.121536 299.343866 
L 464.202525 348.133389 
L 464.203282 348.133389 
L 464.22826 347.341351 
L 464.302436 350.509502 
L 464.303193 350.509502 
L 464.313033 349.40065 
L 464.399319 352.093578 
L 464.409916 351.30154 
L 464.412187 351.30154 
L 464.450789 352.5688 
L 464.521181 350.509502 
L 464.521937 350.66791 
L 464.522694 350.66791 
L 464.532534 350.509502 
L 464.558269 352.251985 
L 464.628661 351.459948 
L 464.750522 355.261729 
L 464.751279 354.944914 
L 464.752793 322.154552 
L 464.862543 334.51034 
L 464.893576 335.777601 
L 464.965482 333.718303 
L 464.969266 334.51034 
L 465.026791 332.926265 
L 465.069934 336.886454 
L 465.079774 334.351933 
L 465.141083 337.836899 
L 465.147895 337.520084 
L 465.149409 306.15539 
L 465.212989 341.00505 
L 465.258403 336.728046 
L 465.259917 336.411231 
L 465.352259 339.262567 
L 465.362098 338.153714 
L 465.399187 342.27231 
L 465.48396 341.321865 
L 465.546026 340.054605 
L 465.534672 342.430718 
L 465.59371 340.846642 
L 465.696649 343.697978 
L 465.704975 341.480272 
L 465.705732 341.480272 
L 465.778394 344.014793 
L 465.714058 341.00505 
L 465.824565 343.222755 
L 465.826079 343.222755 
L 465.929018 369.201592 
L 465.957023 369.043185 
L 465.96762 369.043185 
L 465.978216 369.201592 
L 466.013034 368.72637 
L 466.076614 368.72637 
L 466.085697 368.72637 
L 466.098564 368.567962 
L 466.128083 369.043185 
L 466.195447 368.884777 
L 466.199232 368.884777 
L 466.311253 369.201592 
L 466.427816 369.201592 
L 466.495937 369.36 
L 466.538324 369.201592 
L 466.582224 369.201592 
L 466.693489 369.36 
L 466.763881 369.36 
L 466.875145 369.201592 
L 466.877416 369.201592 
L 466.950835 369.36 
L 466.987923 369.201592 
L 467.006846 369.201592 
L 467.141575 352.885616 
L 467.155199 353.202431 
L 467.176392 352.885616 
L 467.271762 354.628098 
L 467.323988 340.213012 
L 467.38454 353.519246 
L 467.421628 352.727208 
L 467.491263 355.261729 
L 467.526838 355.103321 
L 467.56771 356.687397 
L 467.596472 356.053766 
L 467.686544 357.004212 
L 467.708494 356.687397 
L 467.717577 356.212174 
L 467.719847 357.796249 
L 467.819002 357.004212 
L 467.921183 357.954657 
L 467.931023 357.796249 
L 467.936321 357.479434 
L 468.030934 359.538732 
L 468.033205 359.538732 
L 468.035475 304.2545 
L 468.144469 314.075767 
L 468.247408 321.045699 
L 468.159607 313.600545 
L 468.255734 314.867805 
L 468.363214 314.234175 
L 468.280712 320.570477 
L 468.366998 314.55099 
L 468.467666 321.837737 
L 468.469937 319.620031 
L 468.580445 363.815736 
L 468.581202 363.498921 
L 468.582715 363.182106 
L 468.677328 364.607774 
L 468.690196 364.290959 
L 468.69398 364.290959 
L 468.790863 366.033442 
L 468.8113 365.716627 
L 468.817355 365.716627 
L 468.839305 365.082996 
L 468.927106 366.983887 
L 469.009608 299.027051 
L 469.03837 300.135904 
L 469.12163 309.006726 
L 469.039884 299.660681 
L 469.157961 302.828832 
L 469.159475 301.878387 
L 469.259386 307.897873 
L 469.266955 304.2545 
L 469.269225 304.096092 
L 469.362324 312.333284 
L 469.363838 273.523436 
L 469.369136 329.599707 
L 469.472832 326.273148 
L 469.474346 326.273148 
L 469.548522 331.025375 
L 469.602262 329.916522 
L 469.609074 329.599707 
L 469.648433 334.035118 
L 469.703687 331.34219 
L 469.824791 355.736951 
L 469.727908 323.104997 
L 469.836902 354.944914 
L 469.886857 356.528989 
L 469.950437 356.053766 
L 470.016287 355.103321 
L 470.052619 357.004212 
L 470.060945 356.053766 
L 470.110143 358.113064 
L 470.132093 357.637842 
L 470.134364 329.916522 
L 470.243358 342.113903 
L 470.34781 348.450204 
L 470.250927 341.63868 
L 470.366733 347.341351 
L 470.470428 351.93517 
L 470.375816 347.024536 
L 470.486323 349.242242 
L 470.48708 349.242242 
L 470.58245 351.618355 
L 470.599102 350.984725 
L 470.708096 352.5688 
L 470.713394 352.093578 
L 470.737615 323.897035 
L 470.730046 353.360838 
L 470.855691 338.945752 
L 470.860233 338.787344 
L 470.947277 341.797087 
L 470.955603 341.00505 
L 471.062326 345.123646 
L 471.076707 343.53957 
L 471.127419 342.27231 
L 471.156938 345.757276 
L 471.185701 344.490016 
L 471.188728 344.173201 
L 471.235656 347.182944 
L 471.237927 301.244756 
L 471.346921 318.986401 
L 471.462727 326.273148 
L 471.349948 318.511179 
L 471.467268 323.104997 
L 471.504356 321.679329 
L 471.561881 326.431556 
L 471.562638 326.431556 
L 471.643626 281.443814 
L 471.619405 330.074929 
L 471.688283 316.927103 
L 471.785924 324.21385 
L 471.822255 321.837737 
L 471.832095 320.728884 
L 471.925194 326.273148 
L 471.925951 325.322703 
L 472.013751 335.143971 
L 472.006182 294.433232 
L 472.04327 334.193525 
L 472.087171 332.60945 
L 472.143938 336.411231 
L 472.151507 335.302378 
L 472.227197 338.945752 
L 472.267313 337.361676 
L 472.364954 339.737789 
L 472.383876 338.628937 
L 472.384633 338.628937 
L 472.473947 343.697978 
L 472.475461 314.075767 
L 472.584455 338.787344 
L 472.60035 338.470529 
L 472.63214 343.064348 
L 472.689664 339.896197 
L 472.798658 342.747533 
L 472.809255 341.797087 
L 472.812283 341.797087 
L 472.85694 344.965238 
L 472.85921 236.456071 
L 472.968204 252.772048 
L 473.056762 261.00924 
L 473.090066 257.524274 
L 473.094607 256.732237 
L 473.184678 270.672101 
L 473.196789 261.326056 
L 473.197546 261.326056 
L 473.271722 346.390906 
L 473.263396 248.970267 
L 473.374661 345.282053 
L 473.375417 345.123646 
L 473.455649 349.242242 
L 473.471544 347.658167 
L 473.57751 350.984725 
L 473.586593 350.509502 
L 473.592648 349.40065 
L 473.607029 351.93517 
L 473.699371 350.03428 
L 473.700128 350.03428 
L 473.81215 353.202431 
L 473.82199 352.410393 
L 473.822746 352.410393 
L 473.845453 352.251985 
L 473.859078 353.836061 
L 473.859835 353.836061 
L 473.862105 292.373934 
L 473.971099 304.412907 
L 473.977911 303.937685 
L 474.045276 306.630613 
L 474.072524 305.838575 
L 474.073281 309.798764 
L 474.1028 305.046537 
L 474.183789 309.165134 
L 474.19817 307.581058 
L 474.235258 312.6501 
L 474.276131 311.382839 
L 474.364688 335.302378 
L 474.285213 282.394259 
L 474.395721 335.143971 
L 474.402533 334.668748 
L 474.490334 338.312122 
L 474.505472 335.777601 
L 474.506229 335.777601 
L 474.616736 338.628937 
L 474.581162 335.619193 
L 474.619764 337.203269 
L 474.673504 312.491692 
L 474.718918 341.163457 
L 474.72346 340.213012 
L 474.724973 340.213012 
L 474.820343 342.27231 
L 474.749194 339.579382 
L 474.836995 341.00505 
L 474.937663 339.737789 
L 474.845321 343.856386 
L 474.948259 339.896197 
L 475.005027 342.113903 
L 475.059524 340.688235 
L 475.154137 344.014793 
L 475.15565 328.490854 
L 475.260103 353.044023 
L 475.264644 352.885616 
L 475.266158 352.885616 
L 475.2707 354.311283 
L 475.372124 352.251985 
L 475.375909 352.410393 
L 475.456897 353.677653 
L 475.403157 351.93517 
L 475.490201 353.202431 
L 475.592383 352.251985 
L 475.564377 354.628098 
L 475.600709 352.727208 
L 475.673371 354.152876 
L 475.674128 332.767858 
L 475.699863 345.282053 
L 475.707432 344.806831 
L 475.739979 347.341351 
L 475.806586 346.074091 
L 475.807343 346.074091 
L 475.916337 349.559057 
L 475.824752 345.757276 
L 475.922392 347.816574 
L 476.025331 351.459948 
L 476.026844 328.649261 
L 476.136595 343.697978 
L 476.22591 346.549314 
L 476.250887 344.965238 
L 476.28192 344.173201 
L 476.353069 347.341351 
L 476.360638 345.757276 
L 476.433301 317.560733 
L 476.40908 347.974982 
L 476.499908 333.718303 
L 476.565002 336.728046 
L 476.613443 335.777601 
L 476.614957 335.777601 
L 476.725465 340.213012 
L 476.730006 337.678491 
L 476.733034 337.678491 
L 476.777691 336.728046 
L 476.751956 339.104159 
L 476.839757 338.312122 
L 476.882143 341.797087 
L 476.857166 337.995306 
L 476.952535 338.787344 
L 476.954049 338.787344 
L 477.004761 337.995306 
L 477.022927 341.321865 
L 477.065314 338.470529 
L 477.072883 340.213012 
L 477.079695 340.054605 
L 477.081965 190.834699 
L 477.190959 213.803793 
L 477.291627 228.060471 
L 477.196258 213.170162 
L 477.304495 219.823279 
L 477.305251 218.239204 
L 477.378671 231.228622 
L 477.411218 226.634804 
L 477.438466 324.372258 
L 477.434682 196.695778 
L 477.529294 321.679329 
L 477.539134 321.204107 
L 477.610283 326.114741 
L 477.623907 324.055443 
L 477.717763 328.490854 
L 477.735929 325.322703 
L 477.738956 325.322703 
L 477.744254 325.005888 
L 477.829027 328.649261 
L 477.844166 327.540409 
L 477.960728 366.983887 
L 477.849464 327.223594 
L 478.047772 366.508664 
L 478.049286 366.508664 
L 478.131788 366.983887 
L 478.088645 366.350257 
L 478.16055 366.667072 
L 478.161307 366.667072 
L 478.258948 367.300702 
L 478.273329 366.983887 
L 478.278627 366.983887 
L 478.388378 367.459109 
L 478.390649 367.300702 
L 478.397461 367.300702 
L 478.488289 368.09274 
L 478.510996 367.934332 
L 478.511753 367.934332 
L 478.51478 368.09274 
L 478.595769 324.530665 
L 478.626045 325.956333 
L 478.660106 325.322703 
L 478.643454 328.807669 
L 478.732011 328.015631 
L 478.778182 326.906778 
L 478.783481 328.807669 
L 478.841005 328.174039 
L 478.94243 331.817412 
L 478.865226 327.698816 
L 478.961353 330.233337 
L 478.962109 330.233337 
L 478.965137 330.074929 
L 478.990115 333.718303 
L 478.996927 332.926265 
L 478.999198 200.814374 
L 479.108191 228.694102 
L 479.108948 228.694102 
L 479.133169 227.902064 
L 479.17934 234.079958 
L 479.208103 232.971105 
L 479.256544 240.41626 
L 479.233837 232.179068 
L 479.320881 238.040147 
L 479.321638 238.040147 
L 479.485885 367.300702 
L 479.324665 237.406517 
L 479.509349 366.667072 
L 479.51162 366.667072 
L 479.548708 366.983887 
L 479.581255 366.508664 
L 479.621371 366.667072 
L 479.731879 366.350257 
L 479.703116 366.983887 
L 479.732635 366.508664 
L 479.733392 366.508664 
L 479.808326 361.59803 
L 479.734906 366.667072 
L 479.863579 362.390068 
L 479.869635 362.390068 
L 479.987711 364.607774 
L 479.989982 364.449366 
L 479.990739 364.449366 
L 480.102004 366.667072 
L 480.110329 366.350257 
L 480.113357 366.350257 
L 480.145147 366.667072 
L 480.210997 365.716627 
L 480.220837 365.716627 
L 480.223108 365.716627 
L 480.223865 366.191849 
L 480.310151 364.607774 
L 480.332102 364.607774 
L 480.332859 364.607774 
L 480.339671 365.241404 
L 480.345726 364.290959 
L 480.362378 364.607774 
L 480.402494 314.392583 
L 480.473642 316.768696 
L 480.475156 316.768696 
L 480.477427 316.610288 
L 480.535708 320.253662 
L 480.575067 318.827994 
L 480.626536 322.31296 
L 480.590205 317.877548 
L 480.690873 319.936847 
L 480.734773 319.303216 
L 480.695414 322.471367 
L 480.78927 320.412069 
L 480.844524 325.322703 
L 480.846795 192.893997 
L 480.865717 229.327732 
L 480.880855 226.317988 
L 480.94822 231.862252 
L 480.976225 230.11977 
L 480.976982 229.327732 
L 481.056457 245.010079 
L 481.085219 232.02066 
L 481.085976 232.02066 
L 481.197997 247.703007 
L 481.092031 231.703845 
L 481.200268 241.525113 
L 481.240384 357.637842 
L 481.311533 357.162619 
L 481.419769 356.845804 
L 481.348621 358.113064 
L 481.422797 357.004212 
L 481.428095 357.004212 
L 481.512868 358.588287 
L 481.543144 357.954657 
L 481.543901 357.954657 
L 481.554498 357.637842 
L 481.636243 358.905102 
L 481.652138 358.271472 
L 481.76643 362.548476 
L 481.659707 351.143133 
L 481.770215 361.439623 
L 481.772486 361.281215 
L 481.864071 363.340513 
L 481.874667 362.706883 
L 481.879209 362.706883 
L 481.962468 363.974144 
L 481.99123 363.498921 
L 481.991987 363.498921 
L 482.099467 364.290959 
L 482.104766 364.132551 
L 482.206947 363.974144 
L 482.160776 364.607774 
L 482.215273 364.132551 
L 482.216787 364.132551 
L 482.252361 364.924589 
L 482.281881 363.657328 
L 482.326538 364.290959 
L 482.459753 315.976658 
L 482.332593 364.449366 
L 482.543012 319.936847 
L 482.637624 325.481111 
L 482.657304 321.679329 
L 482.676983 320.728884 
L 482.670928 324.21385 
L 482.767812 321.837737 
L 482.81701 303.779277 
L 482.919192 347.341351 
L 482.919949 347.341351 
L 483.028186 349.40065 
L 482.932059 346.866129 
L 483.038782 349.083834 
L 483.140964 348.608612 
L 483.135666 351.459948 
L 483.150804 348.767019 
L 483.151561 348.767019 
L 483.201516 350.192687 
L 483.221196 348.291797 
L 483.260555 348.925427 
L 483.309753 278.43407 
L 483.280234 349.559057 
L 483.458106 293.958009 
L 483.508061 297.918198 
L 483.484598 293.799602 
L 483.569371 295.700492 
L 483.588293 294.274825 
L 483.635221 300.452719 
L 483.676851 297.75979 
L 483.677607 297.75979 
L 483.778275 358.905102 
L 483.713939 294.433232 
L 483.860778 358.271472 
L 483.863048 357.954657 
L 483.906949 359.855547 
L 483.969015 359.380325 
L 484.026539 360.489178 
L 483.97507 359.221917 
L 484.081793 360.013955 
L 484.089362 359.855547 
L 484.13629 360.805993 
L 484.189273 360.647585 
L 484.19003 360.647585 
L 484.302051 359.855547 
L 484.206682 360.9644 
L 484.303565 360.013955 
L 484.34141 361.914845 
L 484.311891 359.855547 
L 484.416344 360.647585 
L 484.425426 360.489178 
L 484.517012 362.073253 
L 484.523067 361.439623 
L 484.523824 361.439623 
L 484.590431 362.390068 
L 484.591945 343.222755 
L 484.701696 348.925427 
L 484.703209 348.450204 
L 484.806905 350.984725 
L 484.810689 350.192687 
L 484.81296 350.192687 
L 484.895462 351.93517 
L 484.93028 351.618355 
L 484.931794 351.618355 
L 484.949959 351.143133 
L 484.96434 352.885616 
L 485.038517 352.251985 
L 485.148268 362.548476 
L 485.044572 345.915684 
L 485.195196 362.073253 
L 485.206549 361.59803 
L 485.298134 363.657328 
L 485.298891 363.657328 
L 485.303432 363.340513 
L 485.391233 364.607774 
L 485.405614 364.449366 
L 485.407885 364.449366 
L 485.488116 365.399811 
L 485.519906 364.924589 
L 485.53126 364.766181 
L 485.625873 365.716627 
L 485.6289 365.241404 
L 485.629657 365.241404 
L 485.717458 365.875034 
L 485.741679 365.716627 
L 485.742435 365.716627 
L 485.837805 338.470529 
L 485.834777 366.350257 
L 485.959666 341.797087 
L 485.964208 344.173201 
L 485.980103 341.321865 
L 486.070174 341.480272 
L 486.114074 343.064348 
L 486.092881 341.00505 
L 486.178411 341.00505 
L 486.179168 341.00505 
L 486.297244 345.915684 
L 486.300272 345.757276 
L 486.301786 324.689073 
L 486.37899 347.182944 
L 486.41078 345.757276 
L 486.445597 348.291797 
L 486.523558 346.707721 
L 486.525072 346.707721 
L 486.624226 348.291797 
L 486.631795 346.074091 
L 486.634066 346.549314 
L 486.653745 345.598869 
L 486.720353 347.974982 
L 486.743817 346.707721 
L 486.841457 357.954657 
L 486.801341 338.153714 
L 486.859622 357.637842 
L 486.978456 359.538732 
L 486.984511 359.380325 
L 487.009489 360.489178 
L 487.085936 360.172362 
L 487.089721 360.172362 
L 487.101074 360.013955 
L 487.117726 361.122808 
L 487.197201 360.805993 
L 487.197958 360.805993 
L 487.286515 362.073253 
L 487.228234 360.647585 
L 487.311493 361.439623 
L 487.313764 361.439623 
L 487.42957 363.023698 
L 487.342526 354.628098 
L 487.430326 362.865291 
L 487.469685 362.390068 
L 487.515856 363.657328 
L 487.53932 363.182106 
L 487.540834 363.182106 
L 487.543105 363.023698 
L 487.657397 364.449366 
L 487.658154 364.449366 
L 487.761093 365.875034 
L 487.774717 365.716627 
L 487.775474 365.716627 
L 487.810291 366.350257 
L 487.889009 365.082996 
L 487.892037 365.082996 
L 487.996489 365.716627 
L 487.929125 364.766181 
L 488.004815 365.558219 
L 488.021467 365.558219 
L 488.126676 366.191849 
L 488.133488 365.875034 
L 488.143328 365.875034 
L 488.231885 366.667072 
L 488.145599 365.241404 
L 488.234156 366.508664 
L 488.236427 358.271472 
L 488.345421 359.855547 
L 488.346178 359.855547 
L 488.378724 358.905102 
L 488.420354 360.33077 
L 488.458956 359.380325 
L 488.560381 360.33077 
L 488.570977 360.172362 
L 488.676944 359.538732 
L 488.626988 360.647585 
L 488.682999 359.855547 
L 488.684513 359.69714 
L 488.789722 361.122808 
L 488.791993 323.104997 
L 488.900987 329.599707 
L 488.901743 329.599707 
L 489.003168 332.292635 
L 488.943373 329.441299 
L 489.014522 330.866967 
L 489.068262 330.233337 
L 489.049339 334.193525 
L 489.122759 331.659005 
L 489.258244 367.617517 
L 489.126543 331.500597 
L 489.262029 367.300702 
L 489.263543 367.300702 
L 489.318039 367.459109 
L 489.343017 366.825479 
L 489.371779 366.825479 
L 489.375564 366.825479 
L 489.476232 367.617517 
L 489.488342 367.300702 
L 489.495154 367.300702 
L 489.605662 367.775925 
L 489.607176 367.617517 
L 489.614745 367.617517 
L 489.715413 368.09274 
L 489.722225 367.934332 
L 489.769153 341.63868 
L 489.83349 344.806831 
L 489.8895 346.707721 
L 489.944754 345.123646 
L 489.981842 344.806831 
L 490.036339 347.341351 
L 490.049207 346.390906 
L 490.108245 348.291797 
L 490.129438 346.074091 
L 490.159714 346.390906 
L 490.208156 345.123646 
L 490.214211 365.241404 
L 490.227835 364.290959 
L 490.232377 364.290959 
L 490.339857 365.082996 
L 490.324719 364.132551 
L 490.345155 364.766181 
L 490.355752 364.766181 
L 490.437497 366.191849 
L 490.470044 365.558219 
L 490.473828 365.558219 
L 490.482154 366.191849 
L 490.585093 365.875034 
L 490.586607 365.875034 
L 490.587364 366.191849 
L 490.676678 365.082996 
L 490.696358 365.558219 
L 490.697114 365.558219 
L 490.735716 365.399811 
L 490.778103 366.350257 
L 490.806108 365.875034 
L 490.808379 365.875034 
L 490.85455 366.191849 
L 490.843197 365.558219 
L 490.917373 365.558219 
L 490.921914 365.558219 
L 491.030908 366.191849 
L 490.926456 365.399811 
L 491.033936 365.875034 
L 491.039234 365.875034 
L 491.076322 366.667072 
L 491.152012 366.350257 
L 491.153526 366.350257 
L 491.201211 366.825479 
L 491.203482 357.479434 
L 491.25041 360.805993 
L 491.270846 359.538732 
L 491.299608 362.865291 
L 491.359404 362.548476 
L 491.361674 362.548476 
L 491.427525 365.399811 
L 491.483535 364.924589 
L 491.491104 364.924589 
L 491.593286 365.716627 
L 491.503972 364.766181 
L 491.603883 365.399811 
L 491.605397 365.399811 
L 491.70228 364.924589 
L 491.622048 366.508664 
L 491.717418 365.082996 
L 491.720446 365.082996 
L 491.78781 366.667072 
L 491.833981 366.350257 
L 491.846848 366.350257 
L 491.960384 365.716627 
L 491.961897 365.716627 
L 492.047427 366.191849 
L 492.072405 365.716627 
L 492.074676 365.716627 
L 492.160962 366.983887 
L 492.171559 366.667072 
L 492.172316 339.262567 
L 492.282824 340.846642 
L 492.309315 342.90594 
L 492.383492 340.213012 
L 492.393331 340.529827 
L 492.468265 343.064348 
L 492.395602 340.37142 
L 492.507623 341.955495 
L 492.541684 343.53957 
L 492.511408 341.797087 
L 492.622673 342.90594 
L 492.623429 342.90594 
L 492.714258 327.065186 
L 492.712744 345.757276 
L 492.715015 328.174039 
L 492.802815 351.143133 
L 492.826279 350.03428 
L 492.901212 351.143133 
L 492.836876 349.875872 
L 492.937544 350.984725 
L 492.978416 349.875872 
L 493.037455 351.618355 
L 493.048808 350.192687 
L 493.049565 350.192687 
L 493.123742 335.143971 
L 493.144935 351.93517 
L 493.147962 351.459948 
L 493.219868 354.944914 
L 493.154775 351.143133 
L 493.259984 353.677653 
L 493.262255 353.677653 
L 493.271337 353.202431 
L 493.32205 358.42988 
L 493.361409 356.053766 
L 493.362922 356.053766 
L 493.402281 356.845804 
L 493.432557 355.420136 
L 493.470403 355.895359 
L 493.574855 355.103321 
L 493.515817 356.370581 
L 493.582424 355.261729 
L 493.583181 355.261729 
L 493.585452 355.103321 
L 493.661142 356.687397 
L 493.689904 356.053766 
L 493.692175 356.053766 
L 493.694445 355.895359 
L 493.866262 369.36 
L 494.44832 369.36 
L 494.586833 350.509502 
L 494.601971 351.30154 
L 494.603484 351.30154 
L 494.625435 351.143133 
L 494.69507 353.677653 
L 494.704909 353.202431 
L 494.803307 354.944914 
L 494.706423 353.044023 
L 494.822229 354.628098 
L 494.835853 354.152876 
L 494.913814 355.578544 
L 494.931223 354.786506 
L 495.03946 356.053766 
L 495.003886 353.836061 
L 495.042488 355.420136 
L 495.096228 329.124484 
L 495.046272 355.895359 
L 495.164349 341.163457 
L 495.237768 343.53957 
L 495.202951 340.846642 
L 495.281668 342.90594 
L 495.294536 342.589125 
L 495.309674 345.757276 
L 495.391419 343.381163 
L 495.455756 346.549314 
L 495.45727 298.868643 
L 495.56702 318.669586 
L 495.568534 318.194364 
L 495.598053 321.045699 
L 495.675257 318.986401 
L 495.757003 325.481111 
L 495.79182 321.996145 
L 495.792577 321.520922 
L 495.859185 325.481111 
L 495.897787 323.897035 
L 495.938659 328.332446 
L 495.94093 264.335799 
L 495.988615 299.343866 
L 495.992399 298.235013 
L 496.037813 311.699654 
L 496.094581 303.304054 
L 496.19752 310.749209 
L 496.099122 302.987239 
L 496.211144 308.056281 
L 496.278508 270.513693 
L 496.280022 320.728884 
L 496.305757 317.560733 
L 496.367066 322.788182 
L 496.331491 315.81825 
L 496.420049 320.253662 
L 496.423833 319.936847 
L 496.502551 325.005888 
L 496.524501 322.94659 
L 496.556291 321.679329 
L 496.604733 327.540409 
L 496.622898 325.005888 
L 496.682694 330.391744 
L 496.684964 215.704683 
L 496.793958 248.81186 
L 496.802284 248.336637 
L 496.800013 252.613641 
L 496.899168 249.762305 
L 497.008161 256.573829 
L 496.901438 249.287082 
L 497.020272 251.98001 
L 497.043736 250.71275 
L 497.086122 260.534018 
L 497.243558 357.954657 
L 497.08915 252.613641 
L 497.248099 357.321027 
L 497.25037 357.162619 
L 497.31622 363.974144 
L 497.348767 359.380325 
L 497.386612 360.9644 
L 497.360878 358.746695 
L 497.441866 360.172362 
L 497.444137 291.898711 
L 497.553131 297.442975 
L 497.655312 303.304054 
L 497.617467 296.334123 
L 497.664395 298.076606 
L 497.665152 297.601383 
L 497.759008 304.2545 
L 497.768848 301.878387 
L 497.769605 301.878387 
L 497.836212 306.947428 
L 497.838483 306.78902 
L 497.83924 228.694102 
L 497.949747 285.245595 
L 497.950504 285.245595 
L 497.952018 283.344704 
L 498.036791 289.522598 
L 498.061012 286.19604 
L 498.061769 286.19604 
L 498.08826 294.274825 
L 498.095829 285.404002 
L 498.176818 289.681006 
L 498.225259 213.9622 
L 498.223746 295.066862 
L 498.299436 279.226108 
L 498.400104 286.988078 
L 498.30095 278.909293 
L 498.413728 283.503112 
L 498.414485 283.344704 
L 498.427352 289.997821 
L 498.504556 286.512855 
L 498.609766 296.49253 
L 498.611279 234.238366 
L 498.68924 308.373096 
L 498.720273 304.412907 
L 498.743737 303.304054 
L 498.817914 308.848318 
L 498.81867 309.798764 
L 498.822455 305.996983 
L 498.927664 307.739466 
L 498.966266 306.15539 
L 498.959454 311.066024 
L 499.029089 308.373096 
L 499.038172 310.907617 
L 499.060122 307.422651 
L 499.140354 309.798764 
L 499.141868 309.640356 
L 499.222856 317.402326 
L 499.225127 201.923227 
L 499.334121 252.296826 
L 499.34396 251.663195 
L 499.421164 257.84109 
L 499.434032 256.098607 
L 499.444628 270.513693 
L 499.440087 255.148161 
L 499.546053 257.365867 
L 499.549081 256.890644 
L 499.834433 368.884777 
L 499.916935 368.884777 
L 500.016089 369.043185 
L 500.027443 368.884777 
L 500.04031 368.884777 
L 500.153088 369.36 
L 500.866847 369.36 
L 500.978111 369.201592 
L 501.018984 369.201592 
L 501.021255 368.251147 
L 501.130248 368.72637 
L 501.13479 368.72637 
L 501.246054 368.09274 
L 501.247568 368.251147 
L 501.248325 368.251147 
L 501.249839 368.09274 
L 501.323258 369.201592 
L 501.354291 369.201592 
L 501.386081 369.201592 
L 501.497346 369.36 
L 501.953001 369.36 
L 502.007498 342.113903 
L 502.064265 342.589125 
L 502.065779 344.173201 
L 502.178557 341.797087 
L 502.179314 341.797087 
L 502.27317 343.53957 
L 502.223972 341.163457 
L 502.289822 341.63868 
L 502.291336 341.63868 
L 502.386705 344.965238 
L 502.404114 343.53957 
L 502.404871 343.53957 
L 502.405628 344.806831 
L 502.415468 276.374772 
L 502.48813 296.967753 
L 502.488887 296.809345 
L 502.572146 302.353609 
L 502.572903 302.353609 
L 502.619074 308.214688 
L 502.684925 304.729722 
L 502.740179 309.481949 
L 502.689466 304.096092 
L 502.800731 306.15539 
L 502.837819 305.52176 
L 502.89383 312.333284 
L 502.904426 308.689911 
L 502.906697 308.214688 
L 502.973304 313.442137 
L 502.974818 262.276501 
L 503.017961 321.204107 
L 503.083812 316.293473 
L 503.099707 314.709398 
L 503.187507 321.362514 
L 503.195076 315.81825 
L 503.195833 315.81825 
L 503.197347 315.501435 
L 503.220811 321.204107 
L 503.295744 318.035956 
L 503.407766 323.421812 
L 503.408523 320.253662 
L 503.420633 363.182106 
L 503.509191 362.390068 
L 503.509948 362.390068 
L 503.621969 363.498921 
L 503.624997 363.340513 
L 503.631809 363.340513 
L 503.736261 364.449366 
L 503.74383 363.974144 
L 503.746101 363.974144 
L 503.805139 365.082996 
L 503.812708 360.172362 
L 503.857366 364.132551 
L 503.861907 364.132551 
L 503.953492 365.082996 
L 503.973928 364.766181 
L 503.974685 364.766181 
L 504.073839 366.350257 
L 504.090491 365.875034 
L 504.122281 365.875034 
L 504.123038 366.350257 
L 504.207054 364.766181 
L 504.231275 364.924589 
L 504.238087 364.924589 
L 504.349352 365.558219 
L 504.241872 364.766181 
L 504.350865 365.399811 
L 504.351622 365.399811 
L 504.391738 366.033442 
L 504.4205 365.241404 
L 504.461373 365.241404 
L 504.471213 365.241404 
L 504.564312 366.191849 
L 504.571124 365.716627 
L 504.573395 338.153714 
L 504.682388 341.797087 
L 504.731587 345.282053 
L 504.803493 344.014793 
L 504.80425 344.014793 
L 504.8262 346.866129 
L 504.813332 343.856386 
L 504.917028 345.440461 
L 504.926111 344.014793 
L 505.026022 345.915684 
L 505.027536 345.282053 
L 505.132745 347.182944 
L 505.044944 344.806831 
L 505.1388 346.549314 
L 505.153181 345.598869 
L 505.191783 368.72637 
L 505.21449 368.72637 
L 505.257634 368.72637 
L 505.34165 369.043185 
L 505.368141 368.72637 
L 505.437776 368.72637 
L 505.489246 368.884777 
L 505.503627 368.09274 
L 505.51271 368.09274 
L 505.590671 310.432394 
L 505.623974 311.699654 
L 505.693609 319.936847 
L 505.625488 311.224432 
L 505.739023 313.758952 
L 505.774598 313.28373 
L 505.78141 324.84748 
L 505.841962 315.976658 
L 505.905542 364.290959 
L 505.844233 315.659843 
L 505.981232 363.657328 
L 505.982746 363.657328 
L 506.041784 364.132551 
L 506.004696 363.182106 
L 506.093253 363.657328 
L 506.094767 363.657328 
L 506.187866 364.766181 
L 506.120502 363.340513 
L 506.206789 363.974144 
L 506.208302 363.974144 
L 506.234037 363.815736 
L 506.293832 365.399811 
L 506.314269 364.924589 
L 506.318053 364.924589 
L 506.353628 366.033442 
L 506.430832 365.558219 
L 506.438401 365.716627 
L 506.542853 365.241404 
L 506.551179 365.241404 
L 506.604162 365.558219 
L 506.595836 365.082996 
L 506.661687 365.241404 
L 506.678338 365.241404 
L 506.681366 365.716627 
L 506.754785 281.285406 
L 506.792631 283.027889 
L 506.796415 283.027889 
L 506.883459 290.789859 
L 506.914492 289.047376 
L 506.924331 286.82967 
L 507.004563 293.165972 
L 507.024999 289.997821 
L 507.041651 296.49253 
L 507.053005 289.681006 
L 507.135507 291.423489 
L 507.137021 291.106674 
L 507.157457 300.294311 
L 507.227092 293.324379 
L 507.350467 355.895359 
L 507.255098 288.572153 
L 507.358793 354.944914 
L 507.361821 354.944914 
L 507.465516 356.528989 
L 507.476113 356.370581 
L 507.480654 356.212174 
L 507.539693 358.113064 
L 507.577538 357.796249 
L 507.6502 358.746695 
L 507.59646 357.479434 
L 507.688045 357.637842 
L 507.688802 357.637842 
L 507.69183 357.954657 
L 507.804608 356.212174 
L 507.857591 357.637842 
L 507.91663 356.845804 
L 507.999132 356.528989 
L 507.930254 357.796249 
L 508.027137 357.004212 
L 508.029408 357.004212 
L 508.10964 358.746695 
L 508.116452 358.42988 
L 508.117966 321.362514 
L 508.227716 328.807669 
L 508.338224 335.619193 
L 508.229987 328.490854 
L 508.35866 333.084673 
L 508.38818 332.60945 
L 508.374555 337.361676 
L 508.456301 335.619193 
L 508.622062 368.72637 
L 508.464627 334.985563 
L 508.645526 368.409555 
L 508.753006 368.884777 
L 508.756791 368.567962 
L 508.811288 368.567962 
L 508.870326 368.72637 
L 508.872597 368.409555 
L 508.921038 368.409555 
L 508.930121 368.409555 
L 509.040629 368.567962 
L 509.151893 368.409555 
L 509.160976 368.409555 
L 509.164004 368.72637 
L 509.251048 368.251147 
L 509.270727 368.251147 
L 509.298732 368.251147 
L 509.341119 368.72637 
L 509.40924 368.251147 
L 509.413781 368.251147 
L 509.419837 368.409555 
L 509.420594 365.399811 
L 509.515206 366.350257 
L 509.515963 366.350257 
L 509.603007 366.033442 
L 509.624957 366.667072 
L 509.625714 366.667072 
L 509.648421 366.508664 
L 509.650692 367.142294 
L 509.734708 366.983887 
L 509.740763 366.983887 
L 509.839917 367.459109 
L 509.852784 367.300702 
L 509.855055 367.300702 
L 509.885331 367.142294 
L 509.917121 367.617517 
L 509.964806 367.459109 
L 509.981458 367.459109 
L 510.093479 367.142294 
L 510.098778 367.142294 
L 510.118457 366.825479 
L 510.160087 367.459109 
L 510.209285 367.300702 
L 510.210799 367.300702 
L 510.222153 367.617517 
L 510.223666 362.390068 
L 510.304655 363.815736 
L 510.306925 363.815736 
L 510.39624 364.607774 
L 510.41819 364.132551 
L 510.421218 364.132551 
L 510.52567 366.033442 
L 510.538537 365.558219 
L 510.543079 365.558219 
L 510.658885 366.667072 
L 510.659642 366.667072 
L 510.765608 367.142294 
L 510.770906 366.825479 
L 510.771663 366.825479 
L 510.77242 366.983887 
L 510.779989 362.390068 
L 510.870817 364.607774 
L 510.89958 364.449366 
L 510.951049 365.558219 
L 510.979054 365.082996 
L 510.979811 365.082996 
L 510.985109 365.558219 
L 510.989651 364.766181 
L 511.091076 365.241404 
L 511.09486 365.241404 
L 511.205368 366.191849 
L 511.209152 366.033442 
L 511.226561 366.033442 
L 511.277274 366.508664 
L 511.337069 366.033442 
L 511.337826 366.033442 
L 511.445306 366.508664 
L 511.415787 365.716627 
L 511.449847 366.350257 
L 511.462715 366.350257 
L 511.50283 366.191849 
L 511.518725 366.667072 
L 511.519482 351.143133 
L 511.62999 352.251985 
L 511.631504 352.251985 
L 511.636045 352.885616 
L 511.657995 351.776763 
L 511.742011 351.93517 
L 511.742768 351.93517 
L 511.84495 353.677653 
L 511.85706 352.885616 
L 511.926695 331.659005 
L 511.922911 354.944914 
L 512.011468 343.064348 
L 512.047043 349.083834 
L 512.013739 342.90594 
L 512.122733 343.856386 
L 512.23097 347.816574 
L 512.246865 346.866129 
L 512.247622 346.707721 
L 512.327853 350.192687 
L 512.330124 349.875872 
L 512.434576 366.825479 
L 512.441388 366.508664 
L 512.450471 366.508664 
L 512.547355 367.934332 
L 512.564007 367.142294 
L 512.57536 367.142294 
L 512.576117 366.983887 
L 512.672244 367.775925 
L 512.683597 367.617517 
L 512.696464 367.617517 
L 512.704033 367.459109 
L 512.809243 368.251147 
L 512.950783 339.262567 
L 513.049938 340.846642 
L 513.052965 342.113903 
L 513.062048 340.054605 
L 513.160445 341.00505 
L 513.256572 338.628937 
L 513.213428 342.27231 
L 513.276251 338.945752 
L 513.392814 344.173201 
L 513.393571 328.332446 
L 513.404924 352.251985 
L 513.503322 349.875872 
L 513.505592 350.66791 
L 513.556305 349.40065 
L 513.613072 349.40065 
L 513.614586 349.40065 
L 513.633509 350.66791 
L 513.661514 348.608612 
L 513.724337 349.40065 
L 513.740989 349.242242 
L 513.774293 352.093578 
L 513.829546 350.509502 
L 514.030125 369.36 
L 549.076948 369.36 
L 549.188969 369.043185 
L 549.209406 369.043185 
L 549.32067 369.36 
L 591.992521 369.36 
L 592.104543 369.043185 
L 592.116653 369.043185 
L 592.228675 369.36 
L 606.693067 369.36 
L 606.751349 369.043185 
L 606.804332 369.201592 
L 606.88305 369.201592 
L 606.89516 369.36 
L 606.993557 369.201592 
L 607.006425 369.201592 
L 607.117689 369.36 
L 691.709031 369.36 
L 691.821053 369.043185 
L 691.849058 369.043185 
L 691.961079 369.36 
L 702.021818 369.36 
L 702.133082 369.201592 
L 702.270838 369.201592 
L 702.271595 369.36 
L 702.381346 369.201592 
L 702.449467 369.201592 
L 702.494881 369.36 
L 702.559975 369.201592 
L 702.709841 369.201592 
L 702.821106 369.36 
L 727.080565 369.36 
L 727.166851 369.043185 
L 727.191072 369.36 
L 814.909175 369.36 
L 814.98865 369.201592 
L 815.019683 369.36 
L 821.382956 369.36 
L 821.494977 369.043185 
L 821.495734 369.043185 
L 821.606999 369.36 
L 834.820233 369.36 
L 834.904249 369.201592 
L 834.930741 369.36 
L 959.472872 369.36 
L 959.549319 369.043185 
L 959.583379 369.36 
L 960.232044 369.36 
L 960.344066 369.043185 
L 960.388723 369.043185 
L 960.500744 369.36 
L 963.32096 369.36 
L 963.432225 369.201592 
L 963.626749 369.201592 
L 963.627505 369.36 
L 963.737256 369.201592 
L 963.862902 369.201592 
L 963.943133 369.043185 
L 963.94389 369.36 
L 963.972653 369.36 
L 978.595995 369.36 
L 978.689851 369.201592 
L 978.706502 369.36 
L 996.218182 369.36 
L 996.218182 369.36 
" clip-path="url(#p114b07c9b4)" style="fill: none; stroke: #1f77b4; stroke-width: 1.5; stroke-linecap: square"/>
   </g>
   <g id="line2d_17">
    <path d="M 184.581818 368.72637 
L 996.218182 368.72637 
L 996.218182 368.72637 
" clip-path="url(#p114b07c9b4)" style="fill: none; stroke-dasharray: 5.55,2.4; stroke-dashoffset: 0; stroke: #ff7f0e; stroke-width: 1.5"/>
   </g>
   <g id="line2d_18">
    <path d="M 184.581818 365.716627 
L 996.218182 365.716627 
L 996.218182 365.716627 
" clip-path="url(#p114b07c9b4)" style="fill: none; stroke-dasharray: 5.55,2.4; stroke-dashoffset: 0; stroke: #2ca02c; stroke-width: 1.5"/>
   </g>
   <g id="line2d_19">
    <path d="M 184.581818 362.865291 
L 996.218182 362.865291 
L 996.218182 362.865291 
" clip-path="url(#p114b07c9b4)" style="fill: none; stroke-dasharray: 5.55,2.4; stroke-dashoffset: 0; stroke: #d62728; stroke-width: 1.5"/>
   </g>
   <g id="patch_3">
    <path d="M 144 384.48 
L 144 51.84 
" style="fill: none; stroke: #000000; stroke-width: 0.8; stroke-linejoin: miter; stroke-linecap: square"/>
   </g>
   <g id="patch_4">
    <path d="M 1036.8 384.48 
L 1036.8 51.84 
" style="fill: none; stroke: #000000; stroke-width: 0.8; stroke-linejoin: miter; stroke-linecap: square"/>
   </g>
   <g id="patch_5">
    <path d="M 144 384.48 
L 1036.8 384.48 
" style="fill: none; stroke: #000000; stroke-width: 0.8; stroke-linejoin: miter; stroke-linecap: square"/>
   </g>
   <g id="patch_6">
    <path d="M 144 51.84 
L 1036.8 51.84 
" style="fill: none; stroke: #000000; stroke-width: 0.8; stroke-linejoin: miter; stroke-linecap: square"/>
   </g>
   <g id="text_19">
    <!-- NC_002506.1 -->
    <g transform="translate(550.092188 45.84) scale(0.12 -0.12)">
     <defs>
      <path id="DejaVuSans-4e" d="M 628 4666 
L 1478 4666 
L 3547 763 
L 3547 4666 
L 4159 4666 
L 4159 0 
L 3309 0 
L 1241 3903 
L 1241 0 
L 628 0 
L 628 4666 
z
" transform="scale(0.015625)"/>
      <path id="DejaVuSans-43" d="M 4122 4306 
L 4122 3641 
Q 3803 3938 3442 4084 
Q 3081 4231 2675 4231 
Q 1875 4231 1450 3742 
Q 1025 3253 1025 2328 
Q 1025 1406 1450 917 
Q 1875 428 2675 428 
Q 3081 428 3442 575 
Q 3803 722 4122 1019 
L 4122 359 
Q 3791 134 3420 21 
Q 3050 -91 2638 -91 
Q 1578 -91 968 557 
Q 359 1206 359 2328 
Q 359 3453 968 4101 
Q 1578 4750 2638 4750 
Q 3056 4750 3426 4639 
Q 3797 4528 4122 4306 
z
" transform="scale(0.015625)"/>
      <path id="DejaVuSans-5f" d="M 3263 -1063 
L 3263 -1509 
L -63 -1509 
L -63 -1063 
L 3263 -1063 
z
" transform="scale(0.015625)"/>
     </defs>
     <use xlink:href="#DejaVuSans-4e"/>
     <use xlink:href="#DejaVuSans-43" x="74.804688"/>
     <use xlink:href="#DejaVuSans-5f" x="144.628906"/>
     <use xlink:href="#DejaVuSans-30" x="194.628906"/>
     <use xlink:href="#DejaVuSans-30" x="258.251953"/>
     <use xlink:href="#DejaVuSans-32" x="321.875"/>
     <use xlink:href="#DejaVuSans-35" x="385.498047"/>
     <use xlink:href="#DejaVuSans-30" x="449.121094"/>
     <use xlink:href="#DejaVuSans-36" x="512.744141"/>
     <use xlink:href="#DejaVuSans-2e" x="576.367188"/>
     <use xlink:href="#DejaVuSans-31" x="608.154297"/>
    </g>
   </g>
   <g id="legend_1">
    <g id="patch_7">
     <path d="M 146 28.936045 
L 1034.8 28.936045 
Q 1036.8 28.936045 1036.8 26.936045 
L 1036.8 13.25792 
Q 1036.8 11.25792 1034.8 11.25792 
L 146 11.25792 
Q 144 11.25792 144 13.25792 
L 144 26.936045 
Q 144 28.936045 146 28.936045 
z
" style="fill: #ffffff; opacity: 0.8; stroke: #cccccc; stroke-linejoin: miter"/>
    </g>
    <g id="line2d_20">
     <path d="M 148 19.356358 
L 158 19.356358 
L 168 19.356358 
" style="fill: none; stroke-dasharray: 5.55,2.4; stroke-dashoffset: 0; stroke: #ff7f0e; stroke-width: 1.5"/>
    </g>
    <g id="text_20">
     <!-- Average depth * 0.2 -->
     <g transform="translate(176 22.856358) scale(0.1 -0.1)">
      <defs>
       <path id="DejaVuSans-41" d="M 2188 4044 
L 1331 1722 
L 3047 1722 
L 2188 4044 
z
M 1831 4666 
L 2547 4666 
L 4325 0 
L 3669 0 
L 3244 1197 
L 1141 1197 
L 716 0 
L 50 0 
L 1831 4666 
z
" transform="scale(0.015625)"/>
       <path id="DejaVuSans-64" d="M 2906 2969 
L 2906 4863 
L 3481 4863 
L 3481 0 
L 2906 0 
L 2906 525 
Q 2725 213 2448 61 
Q 2172 -91 1784 -91 
Q 1150 -91 751 415 
Q 353 922 353 1747 
Q 353 2572 751 3078 
Q 1150 3584 1784 3584 
Q 2172 3584 2448 3432 
Q 2725 3281 2906 2969 
z
M 947 1747 
Q 947 1113 1208 752 
Q 1469 391 1925 391 
Q 2381 391 2643 752 
Q 2906 1113 2906 1747 
Q 2906 2381 2643 2742 
Q 2381 3103 1925 3103 
Q 1469 3103 1208 2742 
Q 947 2381 947 1747 
z
" transform="scale(0.015625)"/>
       <path id="DejaVuSans-2a" d="M 3009 3897 
L 1888 3291 
L 3009 2681 
L 2828 2375 
L 1778 3009 
L 1778 1831 
L 1422 1831 
L 1422 3009 
L 372 2375 
L 191 2681 
L 1313 3291 
L 191 3897 
L 372 4206 
L 1422 3572 
L 1422 4750 
L 1778 4750 
L 1778 3572 
L 2828 4206 
L 3009 3897 
z
" transform="scale(0.015625)"/>
      </defs>
      <use xlink:href="#DejaVuSans-41"/>
      <use xlink:href="#DejaVuSans-76" x="62.533203"/>
      <use xlink:href="#DejaVuSans-65" x="121.712891"/>
      <use xlink:href="#DejaVuSans-72" x="183.236328"/>
      <use xlink:href="#DejaVuSans-61" x="224.349609"/>
      <use xlink:href="#DejaVuSans-67" x="285.628906"/>
      <use xlink:href="#DejaVuSans-65" x="349.105469"/>
      <use xlink:href="#DejaVuSans-20" x="410.628906"/>
      <use xlink:href="#DejaVuSans-64" x="442.416016"/>
      <use xlink:href="#DejaVuSans-65" x="505.892578"/>
      <use xlink:href="#DejaVuSans-70" x="567.416016"/>
      <use xlink:href="#DejaVuSans-74" x="630.892578"/>
      <use xlink:href="#DejaVuSans-68" x="670.101562"/>
      <use xlink:href="#DejaVuSans-20" x="733.480469"/>
      <use xlink:href="#DejaVuSans-2a" x="765.267578"/>
      <use xlink:href="#DejaVuSans-20" x="815.267578"/>
      <use xlink:href="#DejaVuSans-30" x="847.054688"/>
      <use xlink:href="#DejaVuSans-2e" x="910.677734"/>
      <use xlink:href="#DejaVuSans-32" x="942.464844"/>
     </g>
    </g>
    <g id="line2d_21">
     <path d="M 539.724219 19.356358 
L 549.724219 19.356358 
L 559.724219 19.356358 
" style="fill: none; stroke-dasharray: 5.55,2.4; stroke-dashoffset: 0; stroke: #2ca02c; stroke-width: 1.5"/>
    </g>
    <g id="text_21">
     <!-- Average depth -->
     <g transform="translate(567.724219 22.856358) scale(0.1 -0.1)">
      <use xlink:href="#DejaVuSans-41"/>
      <use xlink:href="#DejaVuSans-76" x="62.533203"/>
      <use xlink:href="#DejaVuSans-65" x="121.712891"/>
      <use xlink:href="#DejaVuSans-72" x="183.236328"/>
      <use xlink:href="#DejaVuSans-61" x="224.349609"/>
      <use xlink:href="#DejaVuSans-67" x="285.628906"/>
      <use xlink:href="#DejaVuSans-65" x="349.105469"/>
      <use xlink:href="#DejaVuSans-20" x="410.628906"/>
      <use xlink:href="#DejaVuSans-64" x="442.416016"/>
      <use xlink:href="#DejaVuSans-65" x="505.892578"/>
      <use xlink:href="#DejaVuSans-70" x="567.416016"/>
      <use xlink:href="#DejaVuSans-74" x="630.892578"/>
      <use xlink:href="#DejaVuSans-68" x="670.101562"/>
     </g>
    </g>
    <g id="line2d_22">
     <path d="M 904.189062 19.356358 
L 914.189062 19.356358 
L 924.189062 19.356358 
" style="fill: none; stroke-dasharray: 5.55,2.4; stroke-dashoffset: 0; stroke: #d62728; stroke-width: 1.5"/>
    </g>
    <g id="text_22">
     <!-- Average depth * 1.8 -->
     <g transform="translate(932.189062 22.856358) scale(0.1 -0.1)">
      <use xlink:href="#DejaVuSans-41"/>
      <use xlink:href="#DejaVuSans-76" x="62.533203"/>
      <use xlink:href="#DejaVuSans-65" x="121.712891"/>
      <use xlink:href="#DejaVuSans-72" x="183.236328"/>
      <use xlink:href="#DejaVuSans-61" x="224.349609"/>
      <use xlink:href="#DejaVuSans-67" x="285.628906"/>
      <use xlink:href="#DejaVuSans-65" x="349.105469"/>
      <use xlink:href="#DejaVuSans-20" x="410.628906"/>
      <use xlink:href="#DejaVuSans-64" x="442.416016"/>
      <use xlink:href="#DejaVuSans-65" x="505.892578"/>
      <use xlink:href="#DejaVuSans-70" x="567.416016"/>
      <use xlink:href="#DejaVuSans-74" x="630.892578"/>
      <use xlink:href="#DejaVuSans-68" x="670.101562"/>
      <use xlink:href="#DejaVuSans-20" x="733.480469"/>
      <use xlink:href="#DejaVuSans-2a" x="765.267578"/>
      <use xlink:href="#DejaVuSans-20" x="815.267578"/>
      <use xlink:href="#DejaVuSans-31" x="847.054688"/>
      <use xlink:href="#DejaVuSans-2e" x="910.677734"/>
      <use xlink:href="#DejaVuSans-38" x="942.464844"/>
     </g>
    </g>
   </g>
  </g>
 </g>
 <defs>
  <clipPath id="p114b07c9b4">
   <rect x="144" y="51.84" width="892.8" height="332.64"/>
  </clipPath>
 </defs>
</svg>
