<svg class="main-svg" xmlns="http://www.w3.org/2000/svg" xmlns:xlink="http://www.w3.org/1999/xlink" width="1920" height="1080" style="" viewBox="0 0 1920 1080"><rect x="0" y="0" width="1920" height="1080" style="fill: rgb(255, 255, 255); fill-opacity: 1;"/><defs id="defs-86a1f0"><g class="clips"><clipPath id="clip86a1f0xyplot" class="plotclip"><rect width="1704" height="900"/></clipPath><clipPath class="axesclip" id="clip86a1f0x"><rect x="80" y="0" width="1704" height="1080"/></clipPath><clipPath class="axesclip" id="clip86a1f0y"><rect x="0" y="100" width="1920" height="900"/></clipPath><clipPath class="axesclip" id="clip86a1f0xy"><rect x="80" y="100" width="1704" height="900"/></clipPath></g><g class="gradients"/><g class="patterns"/></defs><g class="bglayer"/><g class="layer-below"><g class="imagelayer"/><g class="shapelayer"/></g><g class="cartesianlayer"><g class="subplot xy"><g class="layer-subplot"><g class="shapelayer"/><g class="imagelayer"/></g><g class="minor-gridlayer"><g class="x"/><g class="y"/></g><g class="gridlayer"><g class="x"/><g class="y"/></g><g class="zerolinelayer"/><g class="layer-between"><g class="shapelayer"/><g class="imagelayer"/></g><path class="xlines-below"/><path class="ylines-below"/><g class="overlines-below"/><g class="xaxislayer-below"/><g class="yaxislayer-below"/><g class="overaxes-below"/><g class="plot" transform="translate(80,100)" clip-path="url(#clip86a1f0xyplot)"><g class="scatterlayer mlayer"><g class="trace scatter trace8cb0d3" style="stroke-miterlimit: 2;"><g class="fills"><g><path class="js-fill" d="M1704,9450L0,9450L0,18900L87.48225920778613,18900L87.65,816.56L87.65009568784497,18900L87.7,18900L87.7,900L87.7,816.56L87.70032533867287,18900L426.91,18900L426.91,900L427.2,816.56L427.200019137569,18900L427.21,18900L427.21,900L427.29,816.56L427.30839120380125,18900L438.07,18900L438.07,900L438.07,18900L453.34,18900L453.34,900L453.4165596723497,18900L494.1,18900L494.1,900L494.1,18900L494.4193680690286,18900L494.42,238.76L494.85,270.29L494.86,268.38L494.89,292.88L495.18,0L495.61,9.28L495.62,7.74L495.64,1.92L496.32,419.82L496.37,413.31L496.38,417.61L496.81,458.99L496.97,261L497.13,283.19L497.14,286.09L497.75,276.91L497.87,498.88L497.89,465.33L497.9,465.33L498.22,552.06L498.52,256.9L498.65,297.64L498.66,298.45L499.35,319.75L499.37,132.38L499.41,157.32L499.42,157.82L499.66,157.07L500.1,574.01L500.17,558.94L500.18,558.94L500.2,522.56L500.89,600.87L500.93,558.94L500.94,558.94L501,600.87L501.01,433.99L501.69,517.43L501.7,503.25L501.93,582.32L502.24,417.61L502.45,479.1L502.46,475.51L503.17,552.06L503.21,533.51L503.22,522.56L503.59,635.5L503.7,319.75L503.97,334.17L503.98,339.77L504.38,381.89L504.55,192.79L504.73,233.9L504.74,232.48L504.74,219.57L505.4,458.99L505.49,436.53L505.5,433.99L506.07,482.8L506.23,277.59L506.25,310.41L506.26,306L506.31,292.11L506.96,358.32L507.01,311.31L507.02,316.87L507.04,315.92L507.0400983317529,18900.000000000004L0,18900L509.05755039116906,18900L509.06,816.56L509.060076550276,18900L509.10998095056675,18900L509.11,900L509.11,18900L509.87,18900L509.87,900L509.87001904943327,18900L510.57863416431957,18900L510.58,462.12L510.61,486.62L510.62,490.57L510.77,441.76L511.2,539.38L511.37,490.57L511.38,490.57L511.78,591.24L511.95,458.99L512.13,512.52L512.14,522.56L512.58,574.01L512.75,388.58L512.89,426.7L512.9,429.08L512.9,424.36L513.33,490.57L513.65,450.07L513.66,450.07L513.98,507.8L514.03,390.31L514.41,486.62L514.42,479.1L514.56,517.43L514.88,345.64L515.17,401.26L515.18,399.36L515.57,462.12L515.69,283.91L515.93,332L515.94,335.27L515.98,320.72L516.46,383.52L516.69,346.85L516.7,349.31L516.77,390.31L516.78,251.28L517.45,322.69L517.46,318.78L517.57,291.34L518.16,545.56L518.21,527.91L518.22,527.91L518.37,574.01L518.86,512.52L518.97,527.91L518.98,527.91L519.06,574.01L519.56,327.77L519.73,355.68L519.74,354.38L520.1,390.31L520.28,283.19L520.49,365.2L520.5,362.4L520.54,353.09L521.23,507.8L521.25,494.65L521.26,494.65L521.3,479.1L521.9,558.94L522.01,533.51L522.02,522.56L522.37,574.01L522.39,351.82L522.77,377.1L522.78,377.1L523.23,413.31L523.4,230.16L523.53,262.2L523.54,264.63L524.14,227.87L524.17,351.82L524.29,320.72L524.3,321.7L524.99,503.25L525.04,159.35L525.05,172.89L525.06,174.62L525.19,199.04L525.72,27.96L525.81,50.08L525.82,52.16L526.46,31.98L526.54,154.09L526.57,143.76L526.58,144.21L526.6,136.76L527.31,183.36L527.33,166.2L527.34,164.58L527.48,126.39L528.09,264.02L528.09,243.82L528.1,243.82L528.32,291.34L528.33,169.22L528.85,240.76L528.86,237.77L528.88,226.52L529.55,522.56L529.61,462.12L529.62,462.12L529.62,452.97L530.18,574.01L530.37,479.1L530.38,486.62L530.57,552.06L530.65,178.76L531.13,189.78L531.14,190.45L531.67,165.39L531.89,323.69L531.89,302.58L531.9,305.14L532.01,301.75L532.38,381.89L532.65,361.03L532.66,361.03L533.06,439.12L533.08,250.73L533.41,291.34L533.42,290.58L533.92,253.5L534.06,383.52L534.17,361.03L534.18,362.4L534.42,348.07L534.55,403.19L534.93,365.2L534.94,366.63L535.24,401.26L535.58,348.07L535.69,353.09L535.7,353.09L535.75,381.89L535.76,193.47L536.45,258.64L536.46,258.06L536.58,196.57L537.14,330.93L537.21,303.43L537.22,303.43L537.59,245.9L537.87,353.09L537.97,314.06L537.98,319.75L538.61,375.55L538.63,107.84L538.73,125.23L538.74,129.75L539.46,153.11L539.48,32.69L539.49,106.34L539.5,106.02L540.2,59.42L540.23,152.87L540.25,145.57L540.26,146.26L540.93,134.87L541.01,345.64L541.01,343.26L541.02,344.44L541.06,316.87L541.77,359.67L541.77,354.38L541.78,351.82L541.88,409.16L542.1,293.66L542.53,399.36L542.54,401.26L542.55,381.89L543.19,465.33L543.29,419.82L543.3,422.07L543.35,450.07L543.36,256.33L544.05,306L544.06,304.28L544.44,254.06L544.76,368.07L544.81,349.31L544.82,349.31L544.89,335.27L545.43,611.35L545.57,611.35L545.58,611.35L545.84,665.76L545.98,558.94L546.33,591.24L546.34,591.24L546.6,649.68L546.69,298.45L547.29,363.8L547.29,371.01L547.39,314.06L547.88,539.38L548.04,527.91L548.05,527.91L548.05,512.52L548.57,649.68L548.8,591.24L548.81,582.32L548.84,635.5L548.86,452.97L549.56,472.02L549.57,472.02L549.69,566.24L549.7,323.69L550.32,363.8L550.33,361.03L550.42,392.07L550.67,274.88L551.08,356.99L551.09,356.99L551.09,354.38L551.57,447.24L551.84,392.07L551.85,397.5L551.88,413.31L551.91,289.06L552.6,380.27L552.61,381.89L552.75,426.7L553.23,106.51L553.36,128.56L553.37,125.42L553.37,115.77L554.1,335.27L554.12,307.74L554.13,307.74L554.53,355.68L554.7,154.33L554.88,181.5L554.89,181.81L554.89,177.86L555.6,338.63L555.64,325.72L555.65,323.69L555.69,310.41L555.94,362.4L556.4,350.55L556.41,350.55L556.73,393.85L556.75,223.43L557.16,281.76L557.17,278.28L557.44,340.92L557.92,52.79L557.92,67.02L557.93,67.74L558.29,63.39L558.58,462.12L558.68,413.31L558.69,415.44L558.75,399.36L559.17,479.1L559.44,455.94L559.45,458.99L559.84,498.88L559.86,233.9L560.2,243.82L560.21,245.38L560.65,223.43L560.96,452.97L560.96,436.53L560.97,433.99L560.98,411.21L561.24,767.75L561.72,545.56L561.73,552.06L562.04,635.5L562.15,419.82L562.48,462.12L562.49,462.12L562.49,458.99L562.66,558.94L563.24,517.43L563.25,512.52L563.68,507.8L563.6801167821483,18900L570.06,18900L570.06,733.12L570.38,665.76L570.3800771874062,18900L570.429980862431,18900L570.43,816.56L570.45,684.31L570.4511566355023,18900L571.1797523573673,18900L571.18,900L571.19,900L571.94,230.16L571.95,230.16L572.61,272.24L572.7,247.49L572.71,250.73L572.81,280.36L572.93,143.31L573.46,212.19L573.47,215.01L573.75,242.79L573.76,56.33L574.22,89.74L574.23,98.22L574.61,56.44L574.73,202.28L574.98,182.43L574.99,191.11L575.44,130.76L575.66,229.7L575.74,217.47L575.75,217.89L576.34,262.2L576.5,152.14L576.5,153.11L576.51,151.42L577.19,255.19L577.26,220.41L577.27,219.99L577.34,269.65L577.36,100.55L578.02,148.58L578.03,150.94L578.23,179.97L578.25,52.69L578.78,120.69L578.79,120.69L579.02,166.74L579.04,15.09L579.54,61.33L579.55,61.56L579.75,16.33L579.94,137.61L580.3,126.01L580.31,139.99L580.32,115.24L580.66,447.24L581.06,422.07L581.07,419.82L581.17,407.13L581.66,490.57L581.82,452.97L581.83,458.99L581.83,475.51L581.83,168.94L582.58,194.84L582.59,193.47L582.86,234.86L582.87,87.04L583.34,137.83L583.35,135.29L584.04,94.42L584.05,194.84L584.1,187.82L584.11,187.5L584.18,182.43L584.75,222.13L584.86,201.55L584.87,200.11L585.05,159.09L585.41,292.11L585.62,278.97L585.63,279.66L585.89,299.26L586.06,152.38L586.38,195.87L586.39,195.53L586.88,181.5L586.9,338.63L587.14,327.77L587.15,326.74L587.16,321.7L587.27,378.68L587.9,372.5L587.91,372.5L588.2,401.26L588.21,224.75L588.66,260.41L588.67,259.23L589.04,193.13L589.19,303.43L589.42,275.55L589.43,275.55L589.5,270.29L589.74,320.72L590.18,292.88L590.19,294.45L590.22,281.76L590.2210245262931,18900L590.9396162174975,18900L590.94,767.75L590.95,767.75L591.01,706.26L591.0106546385127,18900.000000000004L0,18900L591.6993332698353,18900L591.7,900L591.71,900L591.71,18900L592.4585712925041,18900L592.46,900L592.47,900L592.4704381369654,18900L0,18900L592.9794502210767,18899.999999998137L592.98,345.64L593.21,346.85L593.22,348.07L593.43,399.36L593.61,287.57L593.97,381.89L593.98,375.55L593.99,368.07L594.65,415.44L594.73,385.19L594.74,390.31L594.99,450.07L595.1,183.99L595.49,210.22L595.5,209.83L595.73,200.47L596.03,503.25L596.25,472.02L596.26,468.62L596.96,622.82L597.01,178.76L597.01,182.12L597.02,183.05L597.12,175.2L597.68,236.79L597.77,217.06L597.78,214.2L597.89,142.19L598.49,285.36L598.53,278.28L598.54,276.91L598.65,232.02L599,399.36L599.29,375.55L599.3,377.1L599.49,426.7L599.51,244.33L600.05,327.77L600.06,324.7L600.76,378.68L600.77,235.34L600.81,286.09L600.82,282.47L600.86,264.02L601.46,356.99L601.57,292.88L601.58,294.45L601.81,340.92L601.82,187.82L602.33,230.62L602.34,228.78L602.55,271.59L602.68,151.18L603.09,221.27L603.1,224.75L603.45,171.18L603.85,292.11L603.86,297.64L604.41,328.82L604.42,211.4L604.61,275.55L604.62,275.55L605.22,304.28L605.23,96.84L605.37,122.18L605.38,126.78L605.45,113.13L606.1,340.92L606.13,299.26L606.14,294.45L606.19,289.82L606.76,365.2L606.89,332L606.9,330.93L607.12,403.19L607.33,166.2L607.65,189.13L607.66,191.78L608.22,158.84L608.36,289.06L608.41,259.23L608.42,261L609.02,314.99L609.04,209.06L609.17,288.31L609.18,283.19L609.28,277.59L609.88,323.69L609.93,308.63L609.94,304.28L610.05,248.02L610.69,381.89L610.7,378.68L610.82,390.31L611.14,256.33L611.45,312.22L611.46,314.06L611.87,361.03L611.88,244.85L612.21,312.22L612.22,316.87L612.72,351.82L612.73,219.99L612.97,264.02L612.98,263.41L613.08,259.23L613.35,302.58L613.73,278.28L613.74,277.59L613.92,311.31L614.09,63.05L614.49,84.12L614.5,84.12L614.83,72.25L614.92,242.28L615.25,239.25L615.26,239.75L615.28,224.3L616.01,600.87L616.02,582.32L616.08,552.06L616.49,649.68L616.77,591.24L616.78,591.24L616.93,706.26L617.13,228.33L617.53,243.3L617.54,242.79L618.1,287.57L618.12,72.75L618.29,92.2L618.3,92.2L618.32,88.17L619.03,574.01L619.05,566.24L619.06,574.01L619.44,622.82L619.81,450.07L619.82,441.76L620.54,611.35L620.57,539.38L620.58,539.38L620.77,622.82L620.94,494.65L620.98,507.8L620.98,209.83L621.03,201.92L621.54,248.02L621.73,225.63L621.74,223.87L621.98,257.48L622,65.37L622.49,91.33L622.5,92.94L623.12,419.82L623.25,393.85L623.26,392.07L623.7,340.92L623.88,486.62L624.01,450.07L624.02,447.24L624.02,444.47L624.67,545.56L624.77,498.88L624.78,494.65L625.12,545.56L625.29,206.38L625.53,220.84L625.54,218.72L626.13,189.46L626.29,332L626.29,332L626.3,330.93L626.48,309.51L627,358.32L627.05,342.08L627.06,356.99L627.15,366.63L627.17,146.49L627.81,173.46L627.82,175.5L627.93,174.04L628.42,450.07L628.57,436.53L628.58,436.53L628.6,405.14L629.33,458.99L629.33,452.97L629.34,417.61L629.85,486.62L629.86,294.45L630.09,325.72L630.1,332L630.81,309.51L630.84,465.33L630.85,439.12L630.86,436.53L630.9,426.7L631.42,539.38L631.61,512.52L631.62,507.8L631.65,490.57L632.2,582.32L632.37,527.91L632.38,533.51L632.46,582.32L632.48,270.29L633.13,286.09L633.14,286.83L633.45,235.82L633.58,344.44L633.89,314.06L633.9,314.06L634.5,281.06L634.6,413.31L634.65,397.5L634.66,395.66L634.69,393.85L635.15,475.51L635.41,433.99L635.42,433.99L635.64,374.02L636.12,512.52L636.17,490.57L636.18,482.8L636.22,479.1L636.49,566.24L636.93,503.25L636.94,503.25L637.5,600.87L637.64,395.66L637.69,401.26L637.7,401.26L637.81,455.94L638.45,439.12L638.46,444.47L638.46,479.1L638.68,225.19L639.21,249.64L639.22,249.64L639.31,245.9L639.62,649.68L639.97,574.01L639.98,582.32L640.62,706.26L640.75,283.19L640.9,306.87L640.91,310.41L641.06,302.58L641.66,522.56L641.66,517.43L641.67,517.43L641.69,486.62L642.16,566.24L642.42,545.56L642.43,545.56L642.64,512.52L642.93,611.35L643.18,533.51L643.19,539.38L643.71,635.5L643.74,393.85L643.94,475.51L643.95,452.97L643.96,426.7L644.6,566.24L644.7,533.51L644.71,527.91L644.79,507.8L645.3,600.87L645.46,533.51L645.47,533.51L645.54,522.56L645.76,600.87L645.77,582.32L645.78,272.89L645.89,319.75L646.53,298.45L646.54,299.26L646.91,242.79L647.11,358.32L647.29,335.27L647.3,336.38L647.64,390.31L647.77,267.12L648.05,365.2L648.06,365.2L648.1,351.82L648.19,403.19L648.81,381.89L648.82,378.68L648.98,365.2L648.9803922860596,18900L650.8574851743091,18900L650.86,334.17L651.31,365.2L651.32,362.4L651.8,415.44L651.91,246.96L652.07,286.09L652.08,287.57L652.66,349.31L652.67,181.81L652.83,216.23L652.84,215.01L652.84,212.19L653.51,263.41L653.59,232.02L653.6,232.96L653.67,277.59L653.69,130.96L654.35,198.33L654.36,198.33L654.4,138.9L655.08,261.6L655.11,235.82L655.12,237.28L655.23,273.55L655.25,82.35L655.87,117.57L655.88,116.49L655.9,108.17L656.58,600.87L656.63,409.16L656.64,413.31L656.83,482.8L656.84,162.73L657.39,183.68L657.4,183.99L657.66,219.57L657.67,95.17L658.15,154.58L658.16,153.35L658.48,82.49L658.78,197.62L658.91,173.18L658.92,165.66L659.29,102.61L659.46,214.2L659.67,190.78L659.68,191.11L659.84,184.94L660.2,231.08L660.43,207.9L660.44,209.06L660.57,248.02L660.58,71.76L661.19,128.75L661.2,127.96L661.25,118.3L661.71,900L661.95,767.75L661.96,767.75L661.9608059432554,18900L662.38,18900L662.38,900L662.3829717115916,18900L664.03,18900L664.03,900L664.0300571482998,18900L664.3494403913053,18900L664.35,665.76L664.77,706.26L664.78,733.12L664.8,649.68L664.8006180427438,18900L666.9088176337535,18900L666.91,278.28L667.06,288.31L667.07,289.06L667.16,336.38L667.28,142.64L667.82,189.13L667.83,191.44L668.45,129.75L668.55,237.77L668.58,210.22L668.59,209.06L668.62,200.11L668.87,254.06L669.34,223.43L669.35,222.13L670.09,545.56L670.1,517.43L670.11,512.52L670.21,422.07L670.7,558.94L670.86,527.91L670.87,545.56L670.94,558.94L671.23,494.65L671.62,517.43L671.63,517.43L671.69,582.32L671.81,269.65L672.38,306.87L672.39,305.14L672.55,293.66L673.11,816.56L673.14,733.12L673.15,733.12L673.68,816.56L673.76,684.31L673.77,684.31L673.78,665.76L673.85,193.81L674.53,219.99L674.54,232.48L674.55,213.39L674.95,552.06L675.29,486.62L675.3,486.62L675.52,582.32L676.05,533.51L676.06,517.43L676.2,552.06L676.39,148.81L676.81,167.29L676.82,165.93L676.82,156.31L677.55,392.07L677.57,388.58L677.58,395.66L677.6,365.2L678.21,424.36L678.33,395.66L678.34,399.36L678.59,375.55L678.86,439.12L679.09,411.21L679.1,411.21L679.24,455.94L679.25,224.3L679.85,267.74L679.86,267.74L679.91,259.82L680.13,900L680.61,733.12L680.62,733.12L680.68,816.56L680.93,684.31L681.37,706.26L681.38,684.31L681.43,816.56L681.99,512.52L682.13,582.32L682.14,574.01L682.32,533.51L682.47,649.68L682.89,611.35L682.9,611.35L683.34,649.68L683.43,574.01L683.65,622.82L683.66,611.35L683.66,665.76L683.68,465.33L684.41,552.06L684.42,566.24L684.5,649.68L684.84,455.94L685.04,498.88L685.05,490.57L685.2,574.01L685.8,539.38L685.81,539.38L686.38,622.82L686.51,338.63L686.56,346.85L686.57,346.85L687.06,403.19L687.25,259.23L687.32,291.34L687.33,290.58L687.33,283.91L688.08,368.07L688.08,351.82L688.09,345.64L688.09,334.17L688.55,665.76L688.84,611.35L688.85,622.82L689.18,706.26L689.34,275.55L689.6,285.36L689.61,286.09L690.33,250.73L690.35,365.2L690.36,336.38L690.37,339.77L690.71,363.8L691.03,319.75L691.12,356.99L691.13,366.63L691.23,335.27L691.2301571673115,18900.000000000004L0,18900L765.1202343080294,18900L765.26,900L765.2600380988665,18900L765.2899809505667,18900L765.29,900L765.29,18900L765.419751211603,18900L765.42,816.56L765.5920850203751,18900L855.3499809505668,18900L855.35,900L855.6,816.56L855.600019137569,18900L855.61,18900L855.61,900L855.6680817220688,18900L886.21,18900L886.21,900L886.2100190494333,18900L886.239961724862,18900L886.24,816.56L886.2414161801054,18900L886.98,18900L886.98,900L887.318222687875,18900L1064.7,18900L1064.7,900L1064.75,816.56L1064.750114825414,18900L1064.8199809505666,18900L1064.82,900L1064.82,816.56L1064.8203253386728,18900L1086.35,18900L1086.35,900L1086.3510096199636,18900L1087.0995809124677,18900L1087.1,900L1087.11,900L1087.2086379655204,18900L1138.96,18900L1138.96,900L1139.14,816.56L1139.1400191375692,18900L1323.35,18900L1323.35,900L1323.375583388894,18900L1336.94,18900L1336.94,900L1336.94,816.56L1336.940344476242,18900L1365.15,18900L1365.15,900L1365.6483712734548,18900L1626.8599809505665,18900L1626.86,900L1626.9,816.56L1626.9,18900L1626.91,18900L1626.91,816.56L1626.9129663231938,18900L1628.46,18900L1628.46,900L1628.48,816.56L1628.4800191375691,18900L1628.5,18900L1628.5,900L1628.59,816.56L1628.590019137569,18900L1628.61,18900L1628.61,900L1628.78,816.56L1628.780038275138,18900L1628.81,18900L1628.81,900L1628.8184008000762,18900L1634.9399809505667,18900L1634.94,900L1634.9412001142966,18900L1635.6897714068007,18900L1635.69,900L1635.7,900L1636.07,900L1636.07,900L1636.07,816.56L1636.24,816.56L1636.24,816.56L1636.24,18900L1667.031232498333,18900L1667.09,900L1667.090076197733,18900L1667.13,18900L1667.13,900L1667.2001781122012,18900L1704,18900" style="fill: rgb(255, 212, 135); fill-opacity: 0.4; stroke-width: 0;"/></g></g><g class="errorbars"/><g class="lines"><path class="js-line" d="M0,18900L87.48225920778613,18900L87.65,816.56L87.65009568784497,18900L87.7,18900L87.7,900L87.7,816.56L87.70032533867287,18900L426.91,18900L426.91,900L427.2,816.56L427.200019137569,18900L427.21,18900L427.21,900L427.29,816.56L427.30839120380125,18900L438.07,18900L438.07,900L438.07,18900L453.34,18900L453.34,900L453.4165596723497,18900L494.1,18900L494.1,900L494.1,18900L494.4193680690286,18900L494.42,238.76L494.85,270.29L494.86,268.38L494.89,292.88L495.18,0L495.61,9.28L495.62,7.74L495.64,1.92L496.32,419.82L496.37,413.31L496.38,417.61L496.81,458.99L496.97,261L497.13,283.19L497.14,286.09L497.75,276.91L497.87,498.88L497.89,465.33L497.9,465.33L498.22,552.06L498.52,256.9L498.65,297.64L498.66,298.45L499.35,319.75L499.37,132.38L499.41,157.32L499.42,157.82L499.66,157.07L500.1,574.01L500.17,558.94L500.18,558.94L500.2,522.56L500.89,600.87L500.93,558.94L500.94,558.94L501,600.87L501.01,433.99L501.69,517.43L501.7,503.25L501.93,582.32L502.24,417.61L502.45,479.1L502.46,475.51L503.17,552.06L503.21,533.51L503.22,522.56L503.59,635.5L503.7,319.75L503.97,334.17L503.98,339.77L504.38,381.89L504.55,192.79L504.73,233.9L504.74,232.48L504.74,219.57L505.4,458.99L505.49,436.53L505.5,433.99L506.07,482.8L506.23,277.59L506.25,310.41L506.26,306L506.31,292.11L506.96,358.32L507.01,311.31L507.02,316.87L507.04,315.92L507.0400983317529,18900.000000000004L0,18900L509.05755039116906,18900L509.06,816.56L509.060076550276,18900L509.10998095056675,18900L509.11,900L509.11,18900L509.87,18900L509.87,900L509.87001904943327,18900L510.57863416431957,18900L510.58,462.12L510.61,486.62L510.62,490.57L510.77,441.76L511.2,539.38L511.37,490.57L511.38,490.57L511.78,591.24L511.95,458.99L512.13,512.52L512.14,522.56L512.58,574.01L512.75,388.58L512.89,426.7L512.9,429.08L512.9,424.36L513.33,490.57L513.65,450.07L513.66,450.07L513.98,507.8L514.03,390.31L514.41,486.62L514.42,479.1L514.56,517.43L514.88,345.64L515.17,401.26L515.18,399.36L515.57,462.12L515.69,283.91L515.93,332L515.94,335.27L515.98,320.72L516.46,383.52L516.69,346.85L516.7,349.31L516.77,390.31L516.78,251.28L517.45,322.69L517.46,318.78L517.57,291.34L518.16,545.56L518.21,527.91L518.22,527.91L518.37,574.01L518.86,512.52L518.97,527.91L518.98,527.91L519.06,574.01L519.56,327.77L519.73,355.68L519.74,354.38L520.1,390.31L520.28,283.19L520.49,365.2L520.5,362.4L520.54,353.09L521.23,507.8L521.25,494.65L521.26,494.65L521.3,479.1L521.9,558.94L522.01,533.51L522.02,522.56L522.37,574.01L522.39,351.82L522.77,377.1L522.78,377.1L523.23,413.31L523.4,230.16L523.53,262.2L523.54,264.63L524.14,227.87L524.17,351.82L524.29,320.72L524.3,321.7L524.99,503.25L525.04,159.35L525.05,172.89L525.06,174.62L525.19,199.04L525.72,27.96L525.81,50.08L525.82,52.16L526.46,31.98L526.54,154.09L526.57,143.76L526.58,144.21L526.6,136.76L527.31,183.36L527.33,166.2L527.34,164.58L527.48,126.39L528.09,264.02L528.09,243.82L528.1,243.82L528.32,291.34L528.33,169.22L528.85,240.76L528.86,237.77L528.88,226.52L529.55,522.56L529.61,462.12L529.62,462.12L529.62,452.97L530.18,574.01L530.37,479.1L530.38,486.62L530.57,552.06L530.65,178.76L531.13,189.78L531.14,190.45L531.67,165.39L531.89,323.69L531.89,302.58L531.9,305.14L532.01,301.75L532.38,381.89L532.65,361.03L532.66,361.03L533.06,439.12L533.08,250.73L533.41,291.34L533.42,290.58L533.92,253.5L534.06,383.52L534.17,361.03L534.18,362.4L534.42,348.07L534.55,403.19L534.93,365.2L534.94,366.63L535.24,401.26L535.58,348.07L535.69,353.09L535.7,353.09L535.75,381.89L535.76,193.47L536.45,258.64L536.46,258.06L536.58,196.57L537.14,330.93L537.21,303.43L537.22,303.43L537.59,245.9L537.87,353.09L537.97,314.06L537.98,319.75L538.61,375.55L538.63,107.84L538.73,125.23L538.74,129.75L539.46,153.11L539.48,32.69L539.49,106.34L539.5,106.02L540.2,59.42L540.23,152.87L540.25,145.57L540.26,146.26L540.93,134.87L541.01,345.64L541.01,343.26L541.02,344.44L541.06,316.87L541.77,359.67L541.77,354.38L541.78,351.82L541.88,409.16L542.1,293.66L542.53,399.36L542.54,401.26L542.55,381.89L543.19,465.33L543.29,419.82L543.3,422.07L543.35,450.07L543.36,256.33L544.05,306L544.06,304.28L544.44,254.06L544.76,368.07L544.81,349.31L544.82,349.31L544.89,335.27L545.43,611.35L545.57,611.35L545.58,611.35L545.84,665.76L545.98,558.94L546.33,591.24L546.34,591.24L546.6,649.68L546.69,298.45L547.29,363.8L547.29,371.01L547.39,314.06L547.88,539.38L548.04,527.91L548.05,527.91L548.05,512.52L548.57,649.68L548.8,591.24L548.81,582.32L548.84,635.5L548.86,452.97L549.56,472.02L549.57,472.02L549.69,566.24L549.7,323.69L550.32,363.8L550.33,361.03L550.42,392.07L550.67,274.88L551.08,356.99L551.09,356.99L551.09,354.38L551.57,447.24L551.84,392.07L551.85,397.5L551.88,413.31L551.91,289.06L552.6,380.27L552.61,381.89L552.75,426.7L553.23,106.51L553.36,128.56L553.37,125.42L553.37,115.77L554.1,335.27L554.12,307.74L554.13,307.74L554.53,355.68L554.7,154.33L554.88,181.5L554.89,181.81L554.89,177.86L555.6,338.63L555.64,325.72L555.65,323.69L555.69,310.41L555.94,362.4L556.4,350.55L556.41,350.55L556.73,393.85L556.75,223.43L557.16,281.76L557.17,278.28L557.44,340.92L557.92,52.79L557.92,67.02L557.93,67.74L558.29,63.39L558.58,462.12L558.68,413.31L558.69,415.44L558.75,399.36L559.17,479.1L559.44,455.94L559.45,458.99L559.84,498.88L559.86,233.9L560.2,243.82L560.21,245.38L560.65,223.43L560.96,452.97L560.96,436.53L560.97,433.99L560.98,411.21L561.24,767.75L561.72,545.56L561.73,552.06L562.04,635.5L562.15,419.82L562.48,462.12L562.49,462.12L562.49,458.99L562.66,558.94L563.24,517.43L563.25,512.52L563.68,507.8L563.6801167821483,18900L570.06,18900L570.06,733.12L570.38,665.76L570.3800771874062,18900L570.429980862431,18900L570.43,816.56L570.45,684.31L570.4511566355023,18900L571.1797523573673,18900L571.18,900L571.19,900L571.94,230.16L571.95,230.16L572.61,272.24L572.7,247.49L572.71,250.73L572.81,280.36L572.93,143.31L573.46,212.19L573.47,215.01L573.75,242.79L573.76,56.33L574.22,89.74L574.23,98.22L574.61,56.44L574.73,202.28L574.98,182.43L574.99,191.11L575.44,130.76L575.66,229.7L575.74,217.47L575.75,217.89L576.34,262.2L576.5,152.14L576.5,153.11L576.51,151.42L577.19,255.19L577.26,220.41L577.27,219.99L577.34,269.65L577.36,100.55L578.02,148.58L578.03,150.94L578.23,179.97L578.25,52.69L578.78,120.69L578.79,120.69L579.02,166.74L579.04,15.09L579.54,61.33L579.55,61.56L579.75,16.33L579.94,137.61L580.3,126.01L580.31,139.99L580.32,115.24L580.66,447.24L581.06,422.07L581.07,419.82L581.17,407.13L581.66,490.57L581.82,452.97L581.83,458.99L581.83,475.51L581.83,168.94L582.58,194.84L582.59,193.47L582.86,234.86L582.87,87.04L583.34,137.83L583.35,135.29L584.04,94.42L584.05,194.84L584.1,187.82L584.11,187.5L584.18,182.43L584.75,222.13L584.86,201.55L584.87,200.11L585.05,159.09L585.41,292.11L585.62,278.97L585.63,279.66L585.89,299.26L586.06,152.38L586.38,195.87L586.39,195.53L586.88,181.5L586.9,338.63L587.14,327.77L587.15,326.74L587.16,321.7L587.27,378.68L587.9,372.5L587.91,372.5L588.2,401.26L588.21,224.75L588.66,260.41L588.67,259.23L589.04,193.13L589.19,303.43L589.42,275.55L589.43,275.55L589.5,270.29L589.74,320.72L590.18,292.88L590.19,294.45L590.22,281.76L590.2210245262931,18900L590.9396162174975,18900L590.94,767.75L590.95,767.75L591.01,706.26L591.0106546385127,18900.000000000004L0,18900L591.6993332698353,18900L591.7,900L591.71,900L591.71,18900L592.4585712925041,18900L592.46,900L592.47,900L592.4704381369654,18900L0,18900L592.9794502210767,18899.999999998137L592.98,345.64L593.21,346.85L593.22,348.07L593.43,399.36L593.61,287.57L593.97,381.89L593.98,375.55L593.99,368.07L594.65,415.44L594.73,385.19L594.74,390.31L594.99,450.07L595.1,183.99L595.49,210.22L595.5,209.83L595.73,200.47L596.03,503.25L596.25,472.02L596.26,468.62L596.96,622.82L597.01,178.76L597.01,182.12L597.02,183.05L597.12,175.2L597.68,236.79L597.77,217.06L597.78,214.2L597.89,142.19L598.49,285.36L598.53,278.28L598.54,276.91L598.65,232.02L599,399.36L599.29,375.55L599.3,377.1L599.49,426.7L599.51,244.33L600.05,327.77L600.06,324.7L600.76,378.68L600.77,235.34L600.81,286.09L600.82,282.47L600.86,264.02L601.46,356.99L601.57,292.88L601.58,294.45L601.81,340.92L601.82,187.82L602.33,230.62L602.34,228.78L602.55,271.59L602.68,151.18L603.09,221.27L603.1,224.75L603.45,171.18L603.85,292.11L603.86,297.64L604.41,328.82L604.42,211.4L604.61,275.55L604.62,275.55L605.22,304.28L605.23,96.84L605.37,122.18L605.38,126.78L605.45,113.13L606.1,340.92L606.13,299.26L606.14,294.45L606.19,289.82L606.76,365.2L606.89,332L606.9,330.93L607.12,403.19L607.33,166.2L607.65,189.13L607.66,191.78L608.22,158.84L608.36,289.06L608.41,259.23L608.42,261L609.02,314.99L609.04,209.06L609.17,288.31L609.18,283.19L609.28,277.59L609.88,323.69L609.93,308.63L609.94,304.28L610.05,248.02L610.69,381.89L610.7,378.68L610.82,390.31L611.14,256.33L611.45,312.22L611.46,314.06L611.87,361.03L611.88,244.85L612.21,312.22L612.22,316.87L612.72,351.82L612.73,219.99L612.97,264.02L612.98,263.41L613.08,259.23L613.35,302.58L613.73,278.28L613.74,277.59L613.92,311.31L614.09,63.05L614.49,84.12L614.5,84.12L614.83,72.25L614.92,242.28L615.25,239.25L615.26,239.75L615.28,224.3L616.01,600.87L616.02,582.32L616.08,552.06L616.49,649.68L616.77,591.24L616.78,591.24L616.93,706.26L617.13,228.33L617.53,243.3L617.54,242.79L618.1,287.57L618.12,72.75L618.29,92.2L618.3,92.2L618.32,88.17L619.03,574.01L619.05,566.24L619.06,574.01L619.44,622.82L619.81,450.07L619.82,441.76L620.54,611.35L620.57,539.38L620.58,539.38L620.77,622.82L620.94,494.65L620.98,507.8L620.98,209.83L621.03,201.92L621.54,248.02L621.73,225.63L621.74,223.87L621.98,257.48L622,65.37L622.49,91.33L622.5,92.94L623.12,419.82L623.25,393.85L623.26,392.07L623.7,340.92L623.88,486.62L624.01,450.07L624.02,447.24L624.02,444.47L624.67,545.56L624.77,498.88L624.78,494.65L625.12,545.56L625.29,206.38L625.53,220.84L625.54,218.72L626.13,189.46L626.29,332L626.29,332L626.3,330.93L626.48,309.51L627,358.32L627.05,342.08L627.06,356.99L627.15,366.63L627.17,146.49L627.81,173.46L627.82,175.5L627.93,174.04L628.42,450.07L628.57,436.53L628.58,436.53L628.6,405.14L629.33,458.99L629.33,452.97L629.34,417.61L629.85,486.62L629.86,294.45L630.09,325.72L630.1,332L630.81,309.51L630.84,465.33L630.85,439.12L630.86,436.53L630.9,426.7L631.42,539.38L631.61,512.52L631.62,507.8L631.65,490.57L632.2,582.32L632.37,527.91L632.38,533.51L632.46,582.32L632.48,270.29L633.13,286.09L633.14,286.83L633.45,235.82L633.58,344.44L633.89,314.06L633.9,314.06L634.5,281.06L634.6,413.31L634.65,397.5L634.66,395.66L634.69,393.85L635.15,475.51L635.41,433.99L635.42,433.99L635.64,374.02L636.12,512.52L636.17,490.57L636.18,482.8L636.22,479.1L636.49,566.24L636.93,503.25L636.94,503.25L637.5,600.87L637.64,395.66L637.69,401.26L637.7,401.26L637.81,455.94L638.45,439.12L638.46,444.47L638.46,479.1L638.68,225.19L639.21,249.64L639.22,249.64L639.31,245.9L639.62,649.68L639.97,574.01L639.98,582.32L640.62,706.26L640.75,283.19L640.9,306.87L640.91,310.41L641.06,302.58L641.66,522.56L641.66,517.43L641.67,517.43L641.69,486.62L642.16,566.24L642.42,545.56L642.43,545.56L642.64,512.52L642.93,611.35L643.18,533.51L643.19,539.38L643.71,635.5L643.74,393.85L643.94,475.51L643.95,452.97L643.96,426.7L644.6,566.24L644.7,533.51L644.71,527.91L644.79,507.8L645.3,600.87L645.46,533.51L645.47,533.51L645.54,522.56L645.76,600.87L645.77,582.32L645.78,272.89L645.89,319.75L646.53,298.45L646.54,299.26L646.91,242.79L647.11,358.32L647.29,335.27L647.3,336.38L647.64,390.31L647.77,267.12L648.05,365.2L648.06,365.2L648.1,351.82L648.19,403.19L648.81,381.89L648.82,378.68L648.98,365.2L648.9803922860596,18900L650.8574851743091,18900L650.86,334.17L651.31,365.2L651.32,362.4L651.8,415.44L651.91,246.96L652.07,286.09L652.08,287.57L652.66,349.31L652.67,181.81L652.83,216.23L652.84,215.01L652.84,212.19L653.51,263.41L653.59,232.02L653.6,232.96L653.67,277.59L653.69,130.96L654.35,198.33L654.36,198.33L654.4,138.9L655.08,261.6L655.11,235.82L655.12,237.28L655.23,273.55L655.25,82.35L655.87,117.57L655.88,116.49L655.9,108.17L656.58,600.87L656.63,409.16L656.64,413.31L656.83,482.8L656.84,162.73L657.39,183.68L657.4,183.99L657.66,219.57L657.67,95.17L658.15,154.58L658.16,153.35L658.48,82.49L658.78,197.62L658.91,173.18L658.92,165.66L659.29,102.61L659.46,214.2L659.67,190.78L659.68,191.11L659.84,184.94L660.2,231.08L660.43,207.9L660.44,209.06L660.57,248.02L660.58,71.76L661.19,128.75L661.2,127.96L661.25,118.3L661.71,900L661.95,767.75L661.96,767.75L661.9608059432554,18900L662.38,18900L662.38,900L662.3829717115916,18900L664.03,18900L664.03,900L664.0300571482998,18900L664.3494403913053,18900L664.35,665.76L664.77,706.26L664.78,733.12L664.8,649.68L664.8006180427438,18900L666.9088176337535,18900L666.91,278.28L667.06,288.31L667.07,289.06L667.16,336.38L667.28,142.64L667.82,189.13L667.83,191.44L668.45,129.75L668.55,237.77L668.58,210.22L668.59,209.06L668.62,200.11L668.87,254.06L669.34,223.43L669.35,222.13L670.09,545.56L670.1,517.43L670.11,512.52L670.21,422.07L670.7,558.94L670.86,527.91L670.87,545.56L670.94,558.94L671.23,494.65L671.62,517.43L671.63,517.43L671.69,582.32L671.81,269.65L672.38,306.87L672.39,305.14L672.55,293.66L673.11,816.56L673.14,733.12L673.15,733.12L673.68,816.56L673.76,684.31L673.77,684.31L673.78,665.76L673.85,193.81L674.53,219.99L674.54,232.48L674.55,213.39L674.95,552.06L675.29,486.62L675.3,486.62L675.52,582.32L676.05,533.51L676.06,517.43L676.2,552.06L676.39,148.81L676.81,167.29L676.82,165.93L676.82,156.31L677.55,392.07L677.57,388.58L677.58,395.66L677.6,365.2L678.21,424.36L678.33,395.66L678.34,399.36L678.59,375.55L678.86,439.12L679.09,411.21L679.1,411.21L679.24,455.94L679.25,224.3L679.85,267.74L679.86,267.74L679.91,259.82L680.13,900L680.61,733.12L680.62,733.12L680.68,816.56L680.93,684.31L681.37,706.26L681.38,684.31L681.43,816.56L681.99,512.52L682.13,582.32L682.14,574.01L682.32,533.51L682.47,649.68L682.89,611.35L682.9,611.35L683.34,649.68L683.43,574.01L683.65,622.82L683.66,611.35L683.66,665.76L683.68,465.33L684.41,552.06L684.42,566.24L684.5,649.68L684.84,455.94L685.04,498.88L685.05,490.57L685.2,574.01L685.8,539.38L685.81,539.38L686.38,622.82L686.51,338.63L686.56,346.85L686.57,346.85L687.06,403.19L687.25,259.23L687.32,291.34L687.33,290.58L687.33,283.91L688.08,368.07L688.08,351.82L688.09,345.64L688.09,334.17L688.55,665.76L688.84,611.35L688.85,622.82L689.18,706.26L689.34,275.55L689.6,285.36L689.61,286.09L690.33,250.73L690.35,365.2L690.36,336.38L690.37,339.77L690.71,363.8L691.03,319.75L691.12,356.99L691.13,366.63L691.23,335.27L691.2301571673115,18900.000000000004L0,18900L765.1202343080294,18900L765.26,900L765.2600380988665,18900L765.2899809505667,18900L765.29,900L765.29,18900L765.419751211603,18900L765.42,816.56L765.5920850203751,18900L855.3499809505668,18900L855.35,900L855.6,816.56L855.600019137569,18900L855.61,18900L855.61,900L855.6680817220688,18900L886.21,18900L886.21,900L886.2100190494333,18900L886.239961724862,18900L886.24,816.56L886.2414161801054,18900L886.98,18900L886.98,900L887.318222687875,18900L1064.7,18900L1064.7,900L1064.75,816.56L1064.750114825414,18900L1064.8199809505666,18900L1064.82,900L1064.82,816.56L1064.8203253386728,18900L1086.35,18900L1086.35,900L1086.3510096199636,18900L1087.0995809124677,18900L1087.1,900L1087.11,900L1087.2086379655204,18900L1138.96,18900L1138.96,900L1139.14,816.56L1139.1400191375692,18900L1323.35,18900L1323.35,900L1323.375583388894,18900L1336.94,18900L1336.94,900L1336.94,816.56L1336.940344476242,18900L1365.15,18900L1365.15,900L1365.6483712734548,18900L1626.8599809505665,18900L1626.86,900L1626.9,816.56L1626.9,18900L1626.91,18900L1626.91,816.56L1626.9129663231938,18900L1628.46,18900L1628.46,900L1628.48,816.56L1628.4800191375691,18900L1628.5,18900L1628.5,900L1628.59,816.56L1628.590019137569,18900L1628.61,18900L1628.61,900L1628.78,816.56L1628.780038275138,18900L1628.81,18900L1628.81,900L1628.8184008000762,18900L1634.9399809505667,18900L1634.94,900L1634.9412001142966,18900L1635.6897714068007,18900L1635.69,900L1635.7,900L1636.07,900L1636.07,900L1636.07,816.56L1636.24,816.56L1636.24,816.56L1636.24,18900L1667.031232498333,18900L1667.09,900L1667.090076197733,18900L1667.13,18900L1667.13,900L1667.2001781122012,18900L1704,18900" style="vector-effect: none; fill: none; stroke: rgb(224, 168, 68); stroke-opacity: 1; stroke-width: 2px; opacity: 1;"/></g><g class="points"/><g class="text"/></g><g class="trace scatter trace470961" style="stroke-miterlimit: 2; opacity: 1;"><g class="fills"/><g class="errorbars"/><g class="lines"><path class="js-line" d="M0,538.03L1704,538.03" style="vector-effect: none; fill: none; stroke: rgb(128, 128, 128); stroke-opacity: 1; stroke-dasharray: 9px, 9px; stroke-width: 1px; opacity: 1;"/></g><g class="points"/><g class="text"><g class="textpoint"/><g class="textpoint" transform="translate(0,12)"><text x="1704" y="538.03" text-anchor="end" style="font-family: Arial; font-size: 16px; fill: rgb(42, 63, 95); fill-opacity: 1; white-space: pre;">20x</text></g></g></g></g></g><g class="overplot"/><path class="xlines-above crisp" d="M79,1000.5H1784" style="fill: none; stroke-width: 1px; stroke: rgb(0, 0, 0); stroke-opacity: 1;"/><path class="ylines-above crisp" d="M79.5,100V1000" style="fill: none; stroke-width: 1px; stroke: rgb(0, 0, 0); stroke-opacity: 1;"/><g class="overlines-above"/><g class="xaxislayer-above"><path class="xtick ticks crisp" d="M0,1001v3" transform="translate(159.45,0)" style="stroke: rgb(0, 0, 0); stroke-opacity: 1; stroke-width: 1px;"/><path class="xtick ticks crisp" d="M0,1001v3" transform="translate(238.91,0)" style="stroke: rgb(0, 0, 0); stroke-opacity: 1; stroke-width: 1px;"/><path class="xtick ticks crisp" d="M0,1001v3" transform="translate(318.36,0)" style="stroke: rgb(0, 0, 0); stroke-opacity: 1; stroke-width: 1px;"/><path class="xtick ticks crisp" d="M0,1001v3" transform="translate(477.27,0)" style="stroke: rgb(0, 0, 0); stroke-opacity: 1; stroke-width: 1px;"/><path class="xtick ticks crisp" d="M0,1001v3" transform="translate(556.73,0)" style="stroke: rgb(0, 0, 0); stroke-opacity: 1; stroke-width: 1px;"/><path class="xtick ticks crisp" d="M0,1001v3" transform="translate(636.18,0)" style="stroke: rgb(0, 0, 0); stroke-opacity: 1; stroke-width: 1px;"/><path class="xtick ticks crisp" d="M0,1001v3" transform="translate(795.09,0)" style="stroke: rgb(0, 0, 0); stroke-opacity: 1; stroke-width: 1px;"/><path class="xtick ticks crisp" d="M0,1001v3" transform="translate(874.54,0)" style="stroke: rgb(0, 0, 0); stroke-opacity: 1; stroke-width: 1px;"/><path class="xtick ticks crisp" d="M0,1001v3" transform="translate(954,0)" style="stroke: rgb(0, 0, 0); stroke-opacity: 1; stroke-width: 1px;"/><path class="xtick ticks crisp" d="M0,1001v3" transform="translate(1112.91,0)" style="stroke: rgb(0, 0, 0); stroke-opacity: 1; stroke-width: 1px;"/><path class="xtick ticks crisp" d="M0,1001v3" transform="translate(1192.36,0)" style="stroke: rgb(0, 0, 0); stroke-opacity: 1; stroke-width: 1px;"/><path class="xtick ticks crisp" d="M0,1001v3" transform="translate(1271.81,0)" style="stroke: rgb(0, 0, 0); stroke-opacity: 1; stroke-width: 1px;"/><path class="xtick ticks crisp" d="M0,1001v3" transform="translate(1430.72,0)" style="stroke: rgb(0, 0, 0); stroke-opacity: 1; stroke-width: 1px;"/><path class="xtick ticks crisp" d="M0,1001v3" transform="translate(1510.18,0)" style="stroke: rgb(0, 0, 0); stroke-opacity: 1; stroke-width: 1px;"/><path class="xtick ticks crisp" d="M0,1001v3" transform="translate(1589.63,0)" style="stroke: rgb(0, 0, 0); stroke-opacity: 1; stroke-width: 1px;"/><path class="xtick ticks crisp" d="M0,1001v3" transform="translate(1748.54,0)" style="stroke: rgb(0, 0, 0); stroke-opacity: 1; stroke-width: 1px;"/><path class="xtick ticks crisp" d="M0,1001v5" transform="translate(80,0)" style="stroke: rgb(0, 0, 0); stroke-opacity: 1; stroke-width: 1px;"/><path class="xtick ticks crisp" d="M0,1001v5" transform="translate(397.82,0)" style="stroke: rgb(0, 0, 0); stroke-opacity: 1; stroke-width: 1px;"/><path class="xtick ticks crisp" d="M0,1001v5" transform="translate(715.63,0)" style="stroke: rgb(0, 0, 0); stroke-opacity: 1; stroke-width: 1px;"/><path class="xtick ticks crisp" d="M0,1001v5" transform="translate(1033.45,0)" style="stroke: rgb(0, 0, 0); stroke-opacity: 1; stroke-width: 1px;"/><path class="xtick ticks crisp" d="M0,1001v5" transform="translate(1351.27,0)" style="stroke: rgb(0, 0, 0); stroke-opacity: 1; stroke-width: 1px;"/><path class="xtick ticks crisp" d="M0,1001v5" transform="translate(1669.09,0)" style="stroke: rgb(0, 0, 0); stroke-opacity: 1; stroke-width: 1px;"/><g class="xtick"><text text-anchor="middle" x="0" y="1025.2" transform="translate(80,0)" style="font-family: Arial; font-size: 16px; fill: rgb(42, 63, 95); fill-opacity: 1; white-space: pre; opacity: 1;">0</text></g><g class="xtick"><text text-anchor="middle" x="0" y="1025.2" style="font-family: Arial; font-size: 16px; fill: rgb(42, 63, 95); fill-opacity: 1; white-space: pre; opacity: 1;" transform="translate(397.82,0)">0.2M</text></g><g class="xtick"><text text-anchor="middle" x="0" y="1025.2" style="font-family: Arial; font-size: 16px; fill: rgb(42, 63, 95); fill-opacity: 1; white-space: pre; opacity: 1;" transform="translate(715.63,0)">0.4M</text></g><g class="xtick"><text text-anchor="middle" x="0" y="1025.2" style="font-family: Arial; font-size: 16px; fill: rgb(42, 63, 95); fill-opacity: 1; white-space: pre; opacity: 1;" transform="translate(1033.45,0)">0.6M</text></g><g class="xtick"><text text-anchor="middle" x="0" y="1025.2" style="font-family: Arial; font-size: 16px; fill: rgb(42, 63, 95); fill-opacity: 1; white-space: pre; opacity: 1;" transform="translate(1351.27,0)">0.8M</text></g><g class="xtick"><text text-anchor="middle" x="0" y="1025.2" style="font-family: Arial; font-size: 16px; fill: rgb(42, 63, 95); fill-opacity: 1; white-space: pre; opacity: 1;" transform="translate(1669.09,0)">1M</text></g></g><g class="yaxislayer-above"><path class="ytick ticks crisp" d="M79,0h-3" transform="translate(0,916.56)" style="stroke: rgb(0, 0, 0); stroke-opacity: 1; stroke-width: 1px;"/><path class="ytick ticks crisp" d="M79,0h-3" transform="translate(0,867.75)" style="stroke: rgb(0, 0, 0); stroke-opacity: 1; stroke-width: 1px;"/><path class="ytick ticks crisp" d="M79,0h-3" transform="translate(0,833.12)" style="stroke: rgb(0, 0, 0); stroke-opacity: 1; stroke-width: 1px;"/><path class="ytick ticks crisp" d="M79,0h-3" transform="translate(0,806.26)" style="stroke: rgb(0, 0, 0); stroke-opacity: 1; stroke-width: 1px;"/><path class="ytick ticks crisp" d="M79,0h-3" transform="translate(0,784.31)" style="stroke: rgb(0, 0, 0); stroke-opacity: 1; stroke-width: 1px;"/><path class="ytick ticks crisp" d="M79,0h-3" transform="translate(0,765.76)" style="stroke: rgb(0, 0, 0); stroke-opacity: 1; stroke-width: 1px;"/><path class="ytick ticks crisp" d="M79,0h-3" transform="translate(0,749.68)" style="stroke: rgb(0, 0, 0); stroke-opacity: 1; stroke-width: 1px;"/><path class="ytick ticks crisp" d="M79,0h-3" transform="translate(0,735.5)" style="stroke: rgb(0, 0, 0); stroke-opacity: 1; stroke-width: 1px;"/><path class="ytick ticks crisp" d="M79,0h-3" transform="translate(0,639.38)" style="stroke: rgb(0, 0, 0); stroke-opacity: 1; stroke-width: 1px;"/><path class="ytick ticks crisp" d="M79,0h-3" transform="translate(0,590.5699999999999)" style="stroke: rgb(0, 0, 0); stroke-opacity: 1; stroke-width: 1px;"/><path class="ytick ticks crisp" d="M79,0h-3" transform="translate(0,555.94)" style="stroke: rgb(0, 0, 0); stroke-opacity: 1; stroke-width: 1px;"/><path class="ytick ticks crisp" d="M79,0h-3" transform="translate(0,529.0799999999999)" style="stroke: rgb(0, 0, 0); stroke-opacity: 1; stroke-width: 1px;"/><path class="ytick ticks crisp" d="M79,0h-3" transform="translate(0,507.13)" style="stroke: rgb(0, 0, 0); stroke-opacity: 1; stroke-width: 1px;"/><path class="ytick ticks crisp" d="M79,0h-3" transform="translate(0,488.58)" style="stroke: rgb(0, 0, 0); stroke-opacity: 1; stroke-width: 1px;"/><path class="ytick ticks crisp" d="M79,0h-3" transform="translate(0,472.5)" style="stroke: rgb(0, 0, 0); stroke-opacity: 1; stroke-width: 1px;"/><path class="ytick ticks crisp" d="M79,0h-3" transform="translate(0,458.32)" style="stroke: rgb(0, 0, 0); stroke-opacity: 1; stroke-width: 1px;"/><path class="ytick ticks crisp" d="M79,0h-3" transform="translate(0,362.2)" style="stroke: rgb(0, 0, 0); stroke-opacity: 1; stroke-width: 1px;"/><path class="ytick ticks crisp" d="M79,0h-3" transform="translate(0,313.39)" style="stroke: rgb(0, 0, 0); stroke-opacity: 1; stroke-width: 1px;"/><path class="ytick ticks crisp" d="M79,0h-3" transform="translate(0,278.76)" style="stroke: rgb(0, 0, 0); stroke-opacity: 1; stroke-width: 1px;"/><path class="ytick ticks crisp" d="M79,0h-3" transform="translate(0,251.9)" style="stroke: rgb(0, 0, 0); stroke-opacity: 1; stroke-width: 1px;"/><path class="ytick ticks crisp" d="M79,0h-3" transform="translate(0,229.95)" style="stroke: rgb(0, 0, 0); stroke-opacity: 1; stroke-width: 1px;"/><path class="ytick ticks crisp" d="M79,0h-3" transform="translate(0,211.4)" style="stroke: rgb(0, 0, 0); stroke-opacity: 1; stroke-width: 1px;"/><path class="ytick ticks crisp" d="M79,0h-3" transform="translate(0,195.32)" style="stroke: rgb(0, 0, 0); stroke-opacity: 1; stroke-width: 1px;"/><path class="ytick ticks crisp" d="M79,0h-3" transform="translate(0,181.14)" style="stroke: rgb(0, 0, 0); stroke-opacity: 1; stroke-width: 1px;"/><path class="ytick ticks crisp" d="M79,0h-5" transform="translate(0,1000)" style="stroke: rgb(0, 0, 0); stroke-opacity: 1; stroke-width: 1px;"/><path class="ytick ticks crisp" d="M79,0h-5" transform="translate(0,722.82)" style="stroke: rgb(0, 0, 0); stroke-opacity: 1; stroke-width: 1px;"/><path class="ytick ticks crisp" d="M79,0h-5" transform="translate(0,445.64)" style="stroke: rgb(0, 0, 0); stroke-opacity: 1; stroke-width: 1px;"/><path class="ytick ticks crisp" d="M79,0h-5" transform="translate(0,168.45999999999998)" style="stroke: rgb(0, 0, 0); stroke-opacity: 1; stroke-width: 1px;"/><g class="ytick"><text text-anchor="end" x="70.8" y="5.6" transform="translate(0,1000)" style="font-family: Arial; font-size: 16px; fill: rgb(42, 63, 95); fill-opacity: 1; white-space: pre; opacity: 1;">1</text></g><g class="ytick"><text text-anchor="end" x="70.8" y="5.6" style="font-family: Arial; font-size: 16px; fill: rgb(42, 63, 95); fill-opacity: 1; white-space: pre; opacity: 1;" transform="translate(0,722.82)">10</text></g><g class="ytick"><text text-anchor="end" x="70.8" y="5.6" style="font-family: Arial; font-size: 16px; fill: rgb(42, 63, 95); fill-opacity: 1; white-space: pre; opacity: 1;" transform="translate(0,445.64)">100</text></g><g class="ytick"><text text-anchor="end" x="70.8" y="5.6" style="font-family: Arial; font-size: 16px; fill: rgb(42, 63, 95); fill-opacity: 1; white-space: pre; opacity: 1;" transform="translate(0,168.45999999999998)">1000</text></g></g><g class="overaxes-above"/></g></g><g class="polarlayer"/><g class="smithlayer"/><g class="ternarylayer"/><g class="geolayer"/><g class="funnelarealayer"/><g class="pielayer"/><g class="iciclelayer"/><g class="treemaplayer"/><g class="sunburstlayer"/><g class="glimages"/><defs id="topdefs-86a1f0"><g class="clips"/><clipPath id="legend86a1f0"><rect width="90" height="121" x="0" y="0"/></clipPath></defs><g class="layer-above"><g class="imagelayer"/><g class="shapelayer"/></g><g class="infolayer"><g class="legend" pointer-events="all" transform="translate(1818.08,100)"><rect class="bg" shape-rendering="crispEdges" style="stroke: rgb(68, 68, 68); stroke-opacity: 1; fill: rgb(255, 255, 255); fill-opacity: 1; stroke-width: 0px;" width="90" height="121" x="0" y="0"/><g class="scrollbox" transform="" clip-path="url(#legend86a1f0)"><g class="groups" transform=""><g class="traces" transform="translate(0,18.200000000000003)" style="opacity: 1;"><text class="legendtext" text-anchor="start" x="5" y="7.0200000000000005" style="font-family: Arial; font-size: 18px; fill: rgb(42, 63, 95); fill-opacity: 1; white-space: pre;">coverage</text><g class="layers"><g class="legendfill"/><g class="legendlines"/><g class="legendsymbols"><g class="legendpoints"/></g></g><rect class="legendtoggle" x="0" y="-13.200000000000001" width="84.0625" height="26.400000000000002" style="fill: rgb(0, 0, 0); fill-opacity: 0;"/></g><g class="traces" transform="translate(0,43.300000000000004)" style="opacity: 1;"><text class="legendtext" text-anchor="start" x="40" y="6.24" style="font-family: Arial; font-size: 16px; fill: rgb(42, 63, 95); fill-opacity: 1; white-space: pre;"></text><g class="layers"><g class="legendfill"><path class="js-fill" d="M5,-2h30v6h-30z" style="stroke-width: 0; fill: rgb(255, 212, 135); fill-opacity: 0.4;"/></g><g class="legendlines"><path class="js-line" d="M5,-2h30" style="fill: none; stroke: rgb(224, 168, 68); stroke-opacity: 1; stroke-width: 2px;"/></g><g class="legendsymbols"><g class="legendpoints"/></g></g><rect class="legendtoggle" x="0" y="-11.9" width="84.0625" height="23.8" style="fill: rgb(0, 0, 0); fill-opacity: 0;"/></g></g><g class="groups" transform="translate(0,10)"><g class="traces" transform="translate(0,68.4)" style="opacity: 1;"><text class="legendtext" text-anchor="start" x="5" y="7.0200000000000005" style="font-family: Arial; font-size: 18px; fill: rgb(42, 63, 95); fill-opacity: 1; white-space: pre;">average</text><g class="layers"><g class="legendfill"/><g class="legendlines"/><g class="legendsymbols"><g class="legendpoints"/></g></g><rect class="legendtoggle" x="0" y="-13.200000000000001" width="84.0625" height="26.400000000000002" style="fill: rgb(0, 0, 0); fill-opacity: 0;"/></g><g class="traces" transform="translate(0,93.50000000000001)" style="opacity: 1;"><text class="legendtext" text-anchor="start" x="40" y="6.24" style="font-family: Arial; font-size: 16px; fill: rgb(42, 63, 95); fill-opacity: 1; white-space: pre;"></text><g class="layers" style="opacity: 1;"><g class="legendfill"/><g class="legendlines"><path class="js-line" d="M5,0h30" style="fill: none; stroke: rgb(128, 128, 128); stroke-opacity: 1; stroke-dasharray: 9px, 9px; stroke-width: 1px;"/></g><g class="legendsymbols"><g class="legendpoints"/></g></g><rect class="legendtoggle" x="0" y="-11.9" width="84.0625" height="23.8" style="fill: rgb(0, 0, 0); fill-opacity: 0;"/></g></g></g><rect class="scrollbar" rx="20" ry="3" width="0" height="0" style="fill: rgb(128, 139, 164); fill-opacity: 1;" x="0" y="0"/></g><g class="g-gtitle"/><g class="g-xtitle"><text class="xtitle" x="932" y="1056.503125" text-anchor="middle" style="font-family: Arial; font-size: 19px; fill: rgb(42, 63, 95); opacity: 1; white-space: pre;">genome position</text></g><g class="g-ytitle"/></g></svg>