<svg class="main-svg" xmlns="http://www.w3.org/2000/svg" xmlns:xlink="http://www.w3.org/1999/xlink" width="1920" height="1080" style="" viewBox="0 0 1920 1080"><rect x="0" y="0" width="1920" height="1080" style="fill: rgb(255, 255, 255); fill-opacity: 1;"/><defs id="defs-0848ea"><g class="clips"><clipPath id="clip0848eaxyplot" class="plotclip"><rect width="1704" height="900"/></clipPath><clipPath class="axesclip" id="clip0848eax"><rect x="80" y="0" width="1704" height="1080"/></clipPath><clipPath class="axesclip" id="clip0848eay"><rect x="0" y="100" width="1920" height="900"/></clipPath><clipPath class="axesclip" id="clip0848eaxy"><rect x="80" y="100" width="1704" height="900"/></clipPath></g><g class="gradients"/><g class="patterns"/></defs><g class="bglayer"/><g class="layer-below"><g class="imagelayer"/><g class="shapelayer"/></g><g class="cartesianlayer"><g class="subplot xy"><g class="layer-subplot"><g class="shapelayer"/><g class="imagelayer"/></g><g class="minor-gridlayer"><g class="x"/><g class="y"/></g><g class="gridlayer"><g class="x"/><g class="y"/></g><g class="zerolinelayer"/><g class="layer-between"><g class="shapelayer"/><g class="imagelayer"/></g><path class="xlines-below"/><path class="ylines-below"/><g class="overlines-below"/><g class="xaxislayer-below"/><g class="yaxislayer-below"/><g class="overaxes-below"/><g class="plot" transform="translate(80,100)" clip-path="url(#clip0848eaxyplot)"><g class="scatterlayer mlayer"><g class="trace scatter trace8d98c4" style="stroke-miterlimit: 2;"><g class="fills"><g><path class="js-fill" d="M1704,9450L0,9450L0,18900L7.97402,18900L7.99,0L7.99002,18900L8,18900L8,900L8,0L8.0001,18900L64.83,18900L64.83,900L64.84091532526907,18900L71.2,18900L71.2,900L71.26,0L71.26,18900L71.27,18900L71.27,900L71.27,18900L76.48,18900L76.48,900L76.5,0L76.5123,18900L82.77,18900L82.77,0L82.78112,18900L88.33,18900L88.33,900L88.56,900L88.56,900L88.56,18900L88.56998095056672,18900L88.57,900L88.59474521382988,18900L101.56,18900L101.56,900L101.57426802552624,18900L109.36998,18900L109.37,0L109.46246000000001,18900L155.6,18900L155.6,900L155.6524049909515,18900L183.19,18900L183.19,900L183.32,0L183.32004,18900L183.34,18900L183.34,900L183.35,0L183.35002,18900L190.59,18900L190.59,900L190.59,0L190.59026,18900L218.0999809505667,18900L218.1,900L218.17210210496236,18900L255.99,18900L255.99,900L256.02857510239073,18900L276.54,18900L276.54,900L276.5771273454615,18900L296.16,18900L296.16,0L296.21894000000003,18900L325.63,18900L325.63,900L325.65,0L325.65,18900L325.65,900L325.65,0L325.65004,18900L327.12,18900L327.12,900L327.15,0L327.15,18900L327.15,900L327.15,0L327.15015999999997,18900L354.61,18900L354.61,900L354.61,18900L385.82,18900L385.82,900L385.82,18900L433.3,18900L433.3,900L433.3128583674636,18900L440.35,18900L440.35,900L440.42545480521954,18900L481.15,18900L481.15,900L481.15,18900L554.36,18900L554.36,900L554.36,0L554.36004,18900L568.51,18900L568.51,900L568.51,0L568.51004,18900L593.93,18900L593.93,0L593.9516,18900L604.73,18900L604.73,900L604.74,0L604.75232,18900L611.86,18900L611.86,900L611.93,0L612.02784,18900L660.93,18900L660.93,900L661,0L661.00006,18900L661.03,18900L661.03,900L661.0618697018764,18900L677.95,18900L677.95,900L677.95,18900L677.97994,18900L677.98,0L677.98644,18900L681.2,18900L681.2,900L681.2452805029051,18900L706.39,18900L706.39,900L706.415164301362,18900L719.69,18900L719.69,900L719.71,0L719.71002,18900L719.72,18900L719.72,900L719.75,0L719.75006,18900L739.76,18900L739.76,900L739.94,0L740.02238,18900L782.07,18900L782.07,900L782.2,0L782.20002,18900L810.59,18900L810.59,0L810.6146200000001,18900L822.9,18900L822.9,900L822.9,0L822.90022,18900L867.61,18900L867.61,900L867.61,0L867.61006,18900L891.04,18900L891.04,900L891.1,0L891.14478,18900L913.74,18900L913.74,900L913.74,18900L921.45,18900L921.45,900L921.45,18900L921.45,0L921.52124,18900L957.07,18900L957.07,900L957.29,900L957.29,900L957.29,18900L957.34988,18900L957.35,0L957.48826,18900L1026.48,18900L1026.48,900L1026.48,18900L1026.5498599999999,18900L1026.55,0L1026.5617399999999,18900L1032.42,18900L1032.42,0L1032.48298,18900L1063.9199809505667,18900L1063.92,900L1063.92,0L1063.9203200000002,18900L1065.05,18900L1065.05,900L1065.13,0L1065.13866,18900L1069.82,18900L1069.82,900L1069.82,18900L1069.8499399999998,18900L1069.85,0L1069.87284,18900L1081.27,18900L1081.27,900L1081.48,0L1081.64366,18900L1163.34,18900L1163.34,900L1163.34,0L1163.3400199999999,18900L1228.87,18900L1228.87,900L1228.9,0L1228.929,18900L1243.5,18900L1243.5,900L1243.5276788265548,18900L1258.79,18900L1258.79,0L1258.8228199999999,18900L1275.2099809505667,18900L1275.21,900L1275.21,18900L1275.21998,18900L1275.22,0L1275.23962,18900L1285.03,18900L1285.03,900L1285.135629107534,18900L1340.6,18900L1340.6,900L1340.62,0L1340.62,18900L1340.62,900L1340.62,0L1340.62008,18900L1343.49,18900L1343.49,900L1343.59,0L1343.62114,18900L1359.4,18900L1359.4,900L1359.4151062005906,18900L1368.6499809505667,18900L1368.65,900L1369.22,0L1369.22738,18900L1373.02,18900L1373.02,900L1373.02,0L1373.02008,18900L1382.01,18900L1382.01,900L1382.06,0L1382.11448,18900L1409.56,18900L1409.56,0L1409.58734,18900L1423.23,18900L1423.23,900L1423.2766711115344,18900L1447.76,18900L1447.76,900L1447.82,0L1447.8200199999999,18900L1447.83,18900L1447.83,900L1447.83,0L1447.8300399999998,18900L1463.46,18900L1463.46,900L1463.46,0L1463.46002,18900L1480.82,18900L1480.82,900L1480.9618230307647,18900L1555.27,18900L1555.27,900L1555.28,0L1555.28002,18900L1555.29,18900L1555.29,900L1555.29,18900L1555.30996,18900L1555.31,0L1555.32088,18900L1560.75,18900L1560.75,900L1560.86,0L1560.86,18900L1561.18,18900L1561.18,900L1561.28,0L1561.30152,18900L1572.45,18900L1572.45,900L1572.4676207257835,18900L1581.86,18900L1581.86,900L1581.87,0L1581.8928799999999,18900L1594.91,18900L1594.91,900L1594.99,0L1595.03738,18900L1618.87,18900L1618.87,900L1618.99,0L1619.02322,18900L1636.2899809505666,18900L1636.29,900L1636.29,18900L1636.3199399999999,18900L1636.32,0L1636.36142,18900L1657.03,18900L1657.03,900L1657.06,0L1657.06002,18900L1657.07,18900L1657.07,900L1657.07,18900L1657.08996,18900L1657.09,0L1657.15582,18900L1690,18900L1690,900L1690.18,0L1690.18,18900L1690.18,900L1690.23,0L1690.23002,18900L1690.24,18900L1690.24,900L1690.24,0L1690.24016,18900L1703.57,18900L1703.57,900L1703.57,18900L1703.57998,18900L1703.58,0L1703.5808399999999,18900L1704,18900" style="fill: rgb(255, 212, 135); fill-opacity: 0.4; stroke-width: 0;"/></g></g><g class="errorbars"/><g class="lines"><path class="js-line" d="M0,18900L7.97402,18900L7.99,0L7.99002,18900L8,18900L8,900L8,0L8.0001,18900L64.83,18900L64.83,900L64.84091532526907,18900L71.2,18900L71.2,900L71.26,0L71.26,18900L71.27,18900L71.27,900L71.27,18900L76.48,18900L76.48,900L76.5,0L76.5123,18900L82.77,18900L82.77,0L82.78112,18900L88.33,18900L88.33,900L88.56,900L88.56,900L88.56,18900L88.56998095056672,18900L88.57,900L88.59474521382988,18900L101.56,18900L101.56,900L101.57426802552624,18900L109.36998,18900L109.37,0L109.46246000000001,18900L155.6,18900L155.6,900L155.6524049909515,18900L183.19,18900L183.19,900L183.32,0L183.32004,18900L183.34,18900L183.34,900L183.35,0L183.35002,18900L190.59,18900L190.59,900L190.59,0L190.59026,18900L218.0999809505667,18900L218.1,900L218.17210210496236,18900L255.99,18900L255.99,900L256.02857510239073,18900L276.54,18900L276.54,900L276.5771273454615,18900L296.16,18900L296.16,0L296.21894000000003,18900L325.63,18900L325.63,900L325.65,0L325.65,18900L325.65,900L325.65,0L325.65004,18900L327.12,18900L327.12,900L327.15,0L327.15,18900L327.15,900L327.15,0L327.15015999999997,18900L354.61,18900L354.61,900L354.61,18900L385.82,18900L385.82,900L385.82,18900L433.3,18900L433.3,900L433.3128583674636,18900L440.35,18900L440.35,900L440.42545480521954,18900L481.15,18900L481.15,900L481.15,18900L554.36,18900L554.36,900L554.36,0L554.36004,18900L568.51,18900L568.51,900L568.51,0L568.51004,18900L593.93,18900L593.93,0L593.9516,18900L604.73,18900L604.73,900L604.74,0L604.75232,18900L611.86,18900L611.86,900L611.93,0L612.02784,18900L660.93,18900L660.93,900L661,0L661.00006,18900L661.03,18900L661.03,900L661.0618697018764,18900L677.95,18900L677.95,900L677.95,18900L677.97994,18900L677.98,0L677.98644,18900L681.2,18900L681.2,900L681.2452805029051,18900L706.39,18900L706.39,900L706.415164301362,18900L719.69,18900L719.69,900L719.71,0L719.71002,18900L719.72,18900L719.72,900L719.75,0L719.75006,18900L739.76,18900L739.76,900L739.94,0L740.02238,18900L782.07,18900L782.07,900L782.2,0L782.20002,18900L810.59,18900L810.59,0L810.6146200000001,18900L822.9,18900L822.9,900L822.9,0L822.90022,18900L867.61,18900L867.61,900L867.61,0L867.61006,18900L891.04,18900L891.04,900L891.1,0L891.14478,18900L913.74,18900L913.74,900L913.74,18900L921.45,18900L921.45,900L921.45,18900L921.45,0L921.52124,18900L957.07,18900L957.07,900L957.29,900L957.29,900L957.29,18900L957.34988,18900L957.35,0L957.48826,18900L1026.48,18900L1026.48,900L1026.48,18900L1026.5498599999999,18900L1026.55,0L1026.5617399999999,18900L1032.42,18900L1032.42,0L1032.48298,18900L1063.9199809505667,18900L1063.92,900L1063.92,0L1063.9203200000002,18900L1065.05,18900L1065.05,900L1065.13,0L1065.13866,18900L1069.82,18900L1069.82,900L1069.82,18900L1069.8499399999998,18900L1069.85,0L1069.87284,18900L1081.27,18900L1081.27,900L1081.48,0L1081.64366,18900L1163.34,18900L1163.34,900L1163.34,0L1163.3400199999999,18900L1228.87,18900L1228.87,900L1228.9,0L1228.929,18900L1243.5,18900L1243.5,900L1243.5276788265548,18900L1258.79,18900L1258.79,0L1258.8228199999999,18900L1275.2099809505667,18900L1275.21,900L1275.21,18900L1275.21998,18900L1275.22,0L1275.23962,18900L1285.03,18900L1285.03,900L1285.135629107534,18900L1340.6,18900L1340.6,900L1340.62,0L1340.62,18900L1340.62,900L1340.62,0L1340.62008,18900L1343.49,18900L1343.49,900L1343.59,0L1343.62114,18900L1359.4,18900L1359.4,900L1359.4151062005906,18900L1368.6499809505667,18900L1368.65,900L1369.22,0L1369.22738,18900L1373.02,18900L1373.02,900L1373.02,0L1373.02008,18900L1382.01,18900L1382.01,900L1382.06,0L1382.11448,18900L1409.56,18900L1409.56,0L1409.58734,18900L1423.23,18900L1423.23,900L1423.2766711115344,18900L1447.76,18900L1447.76,900L1447.82,0L1447.8200199999999,18900L1447.83,18900L1447.83,900L1447.83,0L1447.8300399999998,18900L1463.46,18900L1463.46,900L1463.46,0L1463.46002,18900L1480.82,18900L1480.82,900L1480.9618230307647,18900L1555.27,18900L1555.27,900L1555.28,0L1555.28002,18900L1555.29,18900L1555.29,900L1555.29,18900L1555.30996,18900L1555.31,0L1555.32088,18900L1560.75,18900L1560.75,900L1560.86,0L1560.86,18900L1561.18,18900L1561.18,900L1561.28,0L1561.30152,18900L1572.45,18900L1572.45,900L1572.4676207257835,18900L1581.86,18900L1581.86,900L1581.87,0L1581.8928799999999,18900L1594.91,18900L1594.91,900L1594.99,0L1595.03738,18900L1618.87,18900L1618.87,900L1618.99,0L1619.02322,18900L1636.2899809505666,18900L1636.29,900L1636.29,18900L1636.3199399999999,18900L1636.32,0L1636.36142,18900L1657.03,18900L1657.03,900L1657.06,0L1657.06002,18900L1657.07,18900L1657.07,900L1657.07,18900L1657.08996,18900L1657.09,0L1657.15582,18900L1690,18900L1690,900L1690.18,0L1690.18,18900L1690.18,900L1690.23,0L1690.23002,18900L1690.24,18900L1690.24,900L1690.24,0L1690.24016,18900L1703.57,18900L1703.57,900L1703.57,18900L1703.57998,18900L1703.58,0L1703.5808399999999,18900L1704,18900" style="vector-effect: none; fill: none; stroke: rgb(224, 168, 68); stroke-opacity: 1; stroke-width: 2px; opacity: 1;"/></g><g class="points"/><g class="text"/></g><g class="trace scatter trace81b341" style="stroke-miterlimit: 2; opacity: 1;"><g class="fills"/><g class="errorbars"/><g class="lines"><path class="js-line" d="M0,6573.5L1704,6573.5" style="vector-effect: none; fill: none; stroke: rgb(128, 128, 128); stroke-opacity: 1; stroke-dasharray: 9px, 9px; stroke-width: 1px; opacity: 1;"/></g><g class="points"/><g class="text"><g class="textpoint"/><g class="textpoint" transform="translate(0,12)"><text x="1704" y="6573.5" text-anchor="end" style="font-family: Arial; font-size: 16px; fill: rgb(42, 63, 95); fill-opacity: 1; white-space: pre;">0x</text></g></g></g></g></g><g class="overplot"/><path class="xlines-above crisp" d="M79,1000.5H1784" style="fill: none; stroke-width: 1px; stroke: rgb(0, 0, 0); stroke-opacity: 1;"/><path class="ylines-above crisp" d="M79.5,100V1000" style="fill: none; stroke-width: 1px; stroke: rgb(0, 0, 0); stroke-opacity: 1;"/><g class="overlines-above"/><g class="xaxislayer-above"><path class="xtick ticks crisp" d="M0,1001v3" transform="translate(137.55,0)" style="stroke: rgb(0, 0, 0); stroke-opacity: 1; stroke-width: 1px;"/><path class="xtick ticks crisp" d="M0,1001v3" transform="translate(195.09,0)" style="stroke: rgb(0, 0, 0); stroke-opacity: 1; stroke-width: 1px;"/><path class="xtick ticks crisp" d="M0,1001v3" transform="translate(252.64,0)" style="stroke: rgb(0, 0, 0); stroke-opacity: 1; stroke-width: 1px;"/><path class="xtick ticks crisp" d="M0,1001v3" transform="translate(310.18,0)" style="stroke: rgb(0, 0, 0); stroke-opacity: 1; stroke-width: 1px;"/><path class="xtick ticks crisp" d="M0,1001v3" transform="translate(425.27,0)" style="stroke: rgb(0, 0, 0); stroke-opacity: 1; stroke-width: 1px;"/><path class="xtick ticks crisp" d="M0,1001v3" transform="translate(482.82,0)" style="stroke: rgb(0, 0, 0); stroke-opacity: 1; stroke-width: 1px;"/><path class="xtick ticks crisp" d="M0,1001v3" transform="translate(540.36,0)" style="stroke: rgb(0, 0, 0); stroke-opacity: 1; stroke-width: 1px;"/><path class="xtick ticks crisp" d="M0,1001v3" transform="translate(597.91,0)" style="stroke: rgb(0, 0, 0); stroke-opacity: 1; stroke-width: 1px;"/><path class="xtick ticks crisp" d="M0,1001v3" transform="translate(713,0)" style="stroke: rgb(0, 0, 0); stroke-opacity: 1; stroke-width: 1px;"/><path class="xtick ticks crisp" d="M0,1001v3" transform="translate(770.54,0)" style="stroke: rgb(0, 0, 0); stroke-opacity: 1; stroke-width: 1px;"/><path class="xtick ticks crisp" d="M0,1001v3" transform="translate(828.09,0)" style="stroke: rgb(0, 0, 0); stroke-opacity: 1; stroke-width: 1px;"/><path class="xtick ticks crisp" d="M0,1001v3" transform="translate(885.63,0)" style="stroke: rgb(0, 0, 0); stroke-opacity: 1; stroke-width: 1px;"/><path class="xtick ticks crisp" d="M0,1001v3" transform="translate(1000.72,0)" style="stroke: rgb(0, 0, 0); stroke-opacity: 1; stroke-width: 1px;"/><path class="xtick ticks crisp" d="M0,1001v3" transform="translate(1058.27,0)" style="stroke: rgb(0, 0, 0); stroke-opacity: 1; stroke-width: 1px;"/><path class="xtick ticks crisp" d="M0,1001v3" transform="translate(1115.81,0)" style="stroke: rgb(0, 0, 0); stroke-opacity: 1; stroke-width: 1px;"/><path class="xtick ticks crisp" d="M0,1001v3" transform="translate(1173.36,0)" style="stroke: rgb(0, 0, 0); stroke-opacity: 1; stroke-width: 1px;"/><path class="xtick ticks crisp" d="M0,1001v3" transform="translate(1288.45,0)" style="stroke: rgb(0, 0, 0); stroke-opacity: 1; stroke-width: 1px;"/><path class="xtick ticks crisp" d="M0,1001v3" transform="translate(1346,0)" style="stroke: rgb(0, 0, 0); stroke-opacity: 1; stroke-width: 1px;"/><path class="xtick ticks crisp" d="M0,1001v3" transform="translate(1403.54,0)" style="stroke: rgb(0, 0, 0); stroke-opacity: 1; stroke-width: 1px;"/><path class="xtick ticks crisp" d="M0,1001v3" transform="translate(1461.09,0)" style="stroke: rgb(0, 0, 0); stroke-opacity: 1; stroke-width: 1px;"/><path class="xtick ticks crisp" d="M0,1001v3" transform="translate(1576.18,0)" style="stroke: rgb(0, 0, 0); stroke-opacity: 1; stroke-width: 1px;"/><path class="xtick ticks crisp" d="M0,1001v3" transform="translate(1633.72,0)" style="stroke: rgb(0, 0, 0); stroke-opacity: 1; stroke-width: 1px;"/><path class="xtick ticks crisp" d="M0,1001v3" transform="translate(1691.27,0)" style="stroke: rgb(0, 0, 0); stroke-opacity: 1; stroke-width: 1px;"/><path class="xtick ticks crisp" d="M0,1001v3" transform="translate(1748.81,0)" style="stroke: rgb(0, 0, 0); stroke-opacity: 1; stroke-width: 1px;"/><path class="xtick ticks crisp" d="M0,1001v5" transform="translate(80,0)" style="stroke: rgb(0, 0, 0); stroke-opacity: 1; stroke-width: 1px;"/><path class="xtick ticks crisp" d="M0,1001v5" transform="translate(367.73,0)" style="stroke: rgb(0, 0, 0); stroke-opacity: 1; stroke-width: 1px;"/><path class="xtick ticks crisp" d="M0,1001v5" transform="translate(655.45,0)" style="stroke: rgb(0, 0, 0); stroke-opacity: 1; stroke-width: 1px;"/><path class="xtick ticks crisp" d="M0,1001v5" transform="translate(943.18,0)" style="stroke: rgb(0, 0, 0); stroke-opacity: 1; stroke-width: 1px;"/><path class="xtick ticks crisp" d="M0,1001v5" transform="translate(1230.9,0)" style="stroke: rgb(0, 0, 0); stroke-opacity: 1; stroke-width: 1px;"/><path class="xtick ticks crisp" d="M0,1001v5" transform="translate(1518.63,0)" style="stroke: rgb(0, 0, 0); stroke-opacity: 1; stroke-width: 1px;"/><g class="xtick"><text text-anchor="middle" x="0" y="1025.2" transform="translate(80,0)" style="font-family: Arial; font-size: 16px; fill: rgb(42, 63, 95); fill-opacity: 1; white-space: pre; opacity: 1;">0</text></g><g class="xtick"><text text-anchor="middle" x="0" y="1025.2" style="font-family: Arial; font-size: 16px; fill: rgb(42, 63, 95); fill-opacity: 1; white-space: pre; opacity: 1;" transform="translate(367.73,0)">0.5M</text></g><g class="xtick"><text text-anchor="middle" x="0" y="1025.2" style="font-family: Arial; font-size: 16px; fill: rgb(42, 63, 95); fill-opacity: 1; white-space: pre; opacity: 1;" transform="translate(655.45,0)">1M</text></g><g class="xtick"><text text-anchor="middle" x="0" y="1025.2" style="font-family: Arial; font-size: 16px; fill: rgb(42, 63, 95); fill-opacity: 1; white-space: pre; opacity: 1;" transform="translate(943.18,0)">1.5M</text></g><g class="xtick"><text text-anchor="middle" x="0" y="1025.2" style="font-family: Arial; font-size: 16px; fill: rgb(42, 63, 95); fill-opacity: 1; white-space: pre; opacity: 1;" transform="translate(1230.9,0)">2M</text></g><g class="xtick"><text text-anchor="middle" x="0" y="1025.2" style="font-family: Arial; font-size: 16px; fill: rgb(42, 63, 95); fill-opacity: 1; white-space: pre; opacity: 1;" transform="translate(1518.63,0)">2.5M</text></g></g><g class="yaxislayer-above"><path class="ytick ticks crisp" d="M79,0h-3" transform="translate(0,100)" style="stroke: rgb(0, 0, 0); stroke-opacity: 1; stroke-width: 1px;"/><path class="ytick ticks crisp" d="M79,0h-5" transform="translate(0,1000)" style="stroke: rgb(0, 0, 0); stroke-opacity: 1; stroke-width: 1px;"/><g class="ytick"><text text-anchor="end" x="70.8" y="5.6" transform="translate(0,1000)" style="font-family: Arial; font-size: 16px; fill: rgb(42, 63, 95); fill-opacity: 1; white-space: pre; opacity: 1;">1</text></g></g><g class="overaxes-above"/></g></g><g class="polarlayer"/><g class="smithlayer"/><g class="ternarylayer"/><g class="geolayer"/><g class="funnelarealayer"/><g class="pielayer"/><g class="iciclelayer"/><g class="treemaplayer"/><g class="sunburstlayer"/><g class="glimages"/><defs id="topdefs-0848ea"><g class="clips"/><clipPath id="legend0848ea"><rect width="90" height="121" x="0" y="0"/></clipPath></defs><g class="layer-above"><g class="imagelayer"/><g class="shapelayer"/></g><g class="infolayer"><g class="legend" pointer-events="all" transform="translate(1818.08,100)"><rect class="bg" shape-rendering="crispEdges" style="stroke: rgb(68, 68, 68); stroke-opacity: 1; fill: rgb(255, 255, 255); fill-opacity: 1; stroke-width: 0px;" width="90" height="121" x="0" y="0"/><g class="scrollbox" transform="" clip-path="url(#legend0848ea)"><g class="groups" transform=""><g class="traces" transform="translate(0,18.200000000000003)" style="opacity: 1;"><text class="legendtext" text-anchor="start" x="5" y="7.0200000000000005" style="font-family: Arial; font-size: 18px; fill: rgb(42, 63, 95); fill-opacity: 1; white-space: pre;">coverage</text><g class="layers"><g class="legendfill"/><g class="legendlines"/><g class="legendsymbols"><g class="legendpoints"/></g></g><rect class="legendtoggle" x="0" y="-13.200000000000001" width="84.0625" height="26.400000000000002" style="fill: rgb(0, 0, 0); fill-opacity: 0;"/></g><g class="traces" transform="translate(0,43.300000000000004)" style="opacity: 1;"><text class="legendtext" text-anchor="start" x="40" y="6.24" style="font-family: Arial; font-size: 16px; fill: rgb(42, 63, 95); fill-opacity: 1; white-space: pre;"></text><g class="layers"><g class="legendfill"><path class="js-fill" d="M5,-2h30v6h-30z" style="stroke-width: 0; fill: rgb(255, 212, 135); fill-opacity: 0.4;"/></g><g class="legendlines"><path class="js-line" d="M5,-2h30" style="fill: none; stroke: rgb(224, 168, 68); stroke-opacity: 1; stroke-width: 2px;"/></g><g class="legendsymbols"><g class="legendpoints"/></g></g><rect class="legendtoggle" x="0" y="-11.9" width="84.0625" height="23.8" style="fill: rgb(0, 0, 0); fill-opacity: 0;"/></g></g><g class="groups" transform="translate(0,10)"><g class="traces" transform="translate(0,68.4)" style="opacity: 1;"><text class="legendtext" text-anchor="start" x="5" y="7.0200000000000005" style="font-family: Arial; font-size: 18px; fill: rgb(42, 63, 95); fill-opacity: 1; white-space: pre;">average</text><g class="layers"><g class="legendfill"/><g class="legendlines"/><g class="legendsymbols"><g class="legendpoints"/></g></g><rect class="legendtoggle" x="0" y="-13.200000000000001" width="84.0625" height="26.400000000000002" style="fill: rgb(0, 0, 0); fill-opacity: 0;"/></g><g class="traces" transform="translate(0,93.50000000000001)" style="opacity: 1;"><text class="legendtext" text-anchor="start" x="40" y="6.24" style="font-family: Arial; font-size: 16px; fill: rgb(42, 63, 95); fill-opacity: 1; white-space: pre;"></text><g class="layers" style="opacity: 1;"><g class="legendfill"/><g class="legendlines"><path class="js-line" d="M5,0h30" style="fill: none; stroke: rgb(128, 128, 128); stroke-opacity: 1; stroke-dasharray: 9px, 9px; stroke-width: 1px;"/></g><g class="legendsymbols"><g class="legendpoints"/></g></g><rect class="legendtoggle" x="0" y="-11.9" width="84.0625" height="23.8" style="fill: rgb(0, 0, 0); fill-opacity: 0;"/></g></g></g><rect class="scrollbar" rx="20" ry="3" width="0" height="0" style="fill: rgb(128, 139, 164); fill-opacity: 1;" x="0" y="0"/></g><g class="g-gtitle"/><g class="g-xtitle"><text class="xtitle" x="932" y="1056.503125" text-anchor="middle" style="font-family: Arial; font-size: 19px; fill: rgb(42, 63, 95); opacity: 1; white-space: pre;">genome position</text></g><g class="g-ytitle"/></g></svg>